<?xml version="1.0" standalone="no"?>
<!DOCTYPE svg PUBLIC "-//W3C//DTD SVG 1.1//EN" "http://www.w3.org/Graphics/SVG/1.1/DTD/svg11.dtd" >
<svg xmlns="http://www.w3.org/2000/svg" xmlns:xlink="http://www.w3.org/1999/xlink" version="1.1">
<metadata></metadata>
<defs>
<font id="culturebold" horiz-adv-x="1142" >
<font-face units-per-em="2048" ascent="1638" descent="-410" />
<missing-glyph horiz-adv-x="622" />
<glyph horiz-adv-x="0" />
<glyph horiz-adv-x="0" />
<glyph horiz-adv-x="682" />
<glyph unicode="&#xa;" horiz-adv-x="0" />
<glyph unicode="&#xd;" horiz-adv-x="0" />
<glyph unicode=" "  horiz-adv-x="622" />
<glyph unicode="&#x09;" horiz-adv-x="622" />
<glyph unicode="&#xa0;" horiz-adv-x="622" />
<glyph unicode="!" horiz-adv-x="301" d="M53 89q0 20 7 37q6 15 21 30q13 14 30 21q18 8 37 8t38 -8q15 -6 30 -21t21 -30q8 -19 8 -37q0 -20 -8 -38q-7 -17 -21 -30q-13 -13 -30 -20q-19 -8 -38 -8q-39 0 -67 28t-28 68zM104 882v592h96v-592q0 -60 -1 -88q-1 -14 -1.5 -42.5t-0.5 -42.5q-1 -22 -5 -90 q-3 -50 -6 -106h-68q-3 56 -6 106q-2 32 -4 90q-1 29 -3 85q-1 28 -1 88z" />
<glyph unicode="#" horiz-adv-x="1071" d="M20 499v9q0 2 1 7t2 8l3 17h225l85 403h-262l7 39q4 34 45 34h221l90 419q4 19 17 29t30 10h44l-99 -458h309l98 458h44q32 0 32 -31q0 -10 -1 -13l-90 -414h233l-6 -39q-4 -34 -47 -34h-191l-84 -403h233q31 0 31 -27l-5 -45h-270l-97 -459h-43q-14 0 -23 9 q-10 10 -10 25q0 8 1 11l89 414h-308l-89 -418q-4 -22 -18 -32q-12 -9 -30 -9h-43l97 459h-189q-16 0 -23 6q-9 6 -9 25zM334 540h309l85 403h-309z" />
<glyph unicode="$" horiz-adv-x="1155" d="M84 510h16q10 -59 28 -115.5t53 -120.5t81 -114t117.5 -88.5t157.5 -50.5v599l-178 116q-445 284 -230 590q4 6 13 17t43 38t76 48t116 38t160 18v253h48v-253q83 -2 158 -13t122.5 -25.5t83 -28t51.5 -22.5l15 -10l25 -348h-16q-10 49 -28 98t-53 105.5t-81.5 99.5 t-118.5 74.5t-158 36.5v-538l226 -149q206 -135 264.5 -296.5t-41.5 -308.5q-30 -36 -58.5 -60t-79.5 -52t-129.5 -42.5t-181.5 -15.5v-252h-48v252q-88 4 -164.5 18t-123 31t-80 34t-47.5 28l-13 11zM316.5 1189q10.5 -51 52 -105.5t110.5 -99.5l58 -39v509 q-54 0 -101 -22.5t-77.5 -58.5t-41.5 -84.5t-0.5 -99.5zM585 21q97 2 160.5 39.5t84 96t13 125t-49 131.5t-105.5 111l-103 67v-570z" />
<glyph unicode="%" horiz-adv-x="1482" d="M37 1122q0 91 24 160q25 72 65 116q40 45 98 69q55 23 120 23q67 0 120 -23q59 -25 98 -69q43 -48 67 -116q24 -69 24 -160t-25 -159q-26 -72 -67 -115q-39 -42 -99 -68q-56 -24 -118 -24q-63 0 -120 24t-98 68q-40 43 -65 115q-24 69 -24 159zM117 1122q0 -79 18 -136 q18 -58 49 -93q33 -38 72 -53q43 -17 88 -17q46 0 89 17q41 16 73 53t50 93q18 57 18 136t-18 136q-17 55 -50 94q-34 39 -73 54q-43 17 -89 17q-45 0 -88 -17q-38 -15 -72 -54q-30 -35 -49 -94q-18 -57 -18 -136zM158 9l1051 1446q7 10 15 14q10 5 23 5h70l-1052 -1447 q-13 -18 -37 -18h-70zM829 357q0 91 24 160q25 72 65 116q40 45 98 69q55 23 120 23q67 0 120 -23q59 -25 98 -69q42 -46 66 -116q24 -69 24 -160t-25 -159q-26 -72 -67 -115q-40 -43 -98 -68q-56 -24 -118 -24q-63 0 -120 24t-98 68q-40 43 -65 115q-24 69 -24 159z M908 357q0 -79 18 -136q18 -58 49 -93q32 -37 73 -53t88 -16q48 0 89 16t73 53q31 35 49 93q18 57 18 136q0 80 -18 137q-19 59 -49 94q-34 39 -73 54q-43 17 -89 17q-45 0 -88 -17q-39 -15 -73 -54q-30 -35 -49 -94q-18 -57 -18 -137z" />
<glyph unicode="&#x26;" horiz-adv-x="1994" d="M43.5 284.5q-18.5 107.5 11 213t89 205.5t145.5 178t180 119q-2 36 -7 114t-7 121.5t-1 70.5q-4 85 19.5 152t67 107.5t101 64.5t123 27.5t132 -6.5t130 -35t114.5 -61l-62 -60q-38 59 -88 98t-100 52t-98.5 -0.5t-84 -51t-55 -108t-13.5 -164.5q0 -33 7.5 -126t8.5 -140 q56 9 128.5 4.5t135.5 -13.5l62 -10q17 -5 30.5 -10t23 -8.5t19.5 -10.5t14.5 -9.5t12.5 -12t10 -11.5t11 -14t11 -15q45 -67 93 -201t62 -166l161 216q13 20 33.5 45.5t35 42.5t27 37.5t14.5 33.5t-7 26.5t-33.5 21t-69 12.5t-110.5 5v18h571v-18q-24 -1 -63.5 -2t-58.5 -2 t-50.5 -6.5t-54 -17.5t-53 -34t-63.5 -55l-267 -353q14 -34 37.5 -95.5t37 -96t36 -86t39 -81.5t40 -66t45.5 -55t49 -32t56 -14h119v-19h-717l1 19q53 4 132 2q44 -1 59.5 1t29.5 10.5t6.5 33t-21 62.5t-41.5 105q-38 91 -62 151q-3 -4 -56.5 -75t-68.5 -90 q-89 -107 -219 -168t-254 -69.5t-232.5 20.5t-164.5 90q-70 82 -88.5 189.5zM276.5 495.5q-3.5 -84.5 9 -151.5t36.5 -119q27 -59 77 -104t120 -65t146.5 -11t164.5 64.5t167 155.5q18 20 62 78t56 73q-15 34 -59.5 141.5t-57.5 137.5q-20 55 -40 99.5t-52.5 95.5t-68.5 83 t-87 50.5t-109 10.5h1q-73 -7 -130 -38.5t-96 -85.5t-65 -113t-47 -138q-24 -79 -27.5 -163.5z" />
<glyph unicode="(" horiz-adv-x="376" d="M63 661q0 114 16 236q15 112 48 227q33 114 87 228q55 117 134 237l44 -27q13 -7 13 -22q0 -11 -7 -22q-124 -201 -186 -411q-63 -213 -63 -446q0 -232 63 -445t187 -410q7 -11 7 -22q0 -16 -14 -23l-44 -26q-80 123 -134 236q-54 114 -87 228q-33 115 -48 227 q-16 122 -16 235z" />
<glyph unicode=")" horiz-adv-x="376" d="M-33 -216q0 11 7 22q124 197 187 410t63 445q0 233 -63 446q-64 216 -185 411q-8 13 -8 22q0 14 14 22l43 27q77 -120 134 -237q54 -111 88 -228q33 -115 48 -227q15 -114 15 -236q0 -121 -15 -235q-15 -112 -48 -227q-34 -117 -88 -228q-55 -113 -134 -236l-43 26 q-15 7 -15 23z" />
<glyph unicode="*" horiz-adv-x="641" d="M35 1381l27 46l195 -114q19 -12 27 -20q9 -9 24 -27q-9 20 -12 34q-3 15 -3 33v222h53v-221q0 -24 -2 -34q-4 -18 -11 -33q8 12 23 27q9 9 27 19l194 113l27 -46l-194 -113q-20 -12 -29 -15q-18 -6 -31 -7q20 -3 31 -7q17 -6 29 -13l195 -114l-26 -46l-196 114 q-21 12 -26 17q-13 11 -24 26q9 -26 10 -32q3 -13 3 -31v-221h-53v220q0 22 2 31q4 16 11 31q-13 -16 -22 -24q-3 -3 -27 -17l-194 -113l-26 45l195 114q14 8 28 13q10 3 32 7q-17 3 -33 8q-8 3 -27 14z" />
<glyph unicode="+" horiz-adv-x="1177" d="M102 665v76h446v467h80v-467h447v-76h-447v-469h-80v469h-446z" />
<glyph unicode="," horiz-adv-x="229" d="M20 97q0 37 25 62q26 26 66 26q43 0 68 -31t25 -80q0 -40 -11 -86q-11 -44 -32 -87q-24 -47 -49 -82q-24 -33 -65 -72l-15 15q-8 8 -8 18q0 6 3 10q6 9 7 10q4 4 26 30q10 11 32 48q13 22 29 60q13 33 18 71q-4 -1 -14 -3q-5 -1 -18 -1q-38 0 -62 26q-25 27 -25 66z" />
<glyph unicode="-" horiz-adv-x="499" d="M8 581v84h482v-84h-482z" />
<glyph unicode="." horiz-adv-x="239" d="M23 89q0 20 7 37t20 30q14 14 30 21q18 8 38 8q18 0 37 -8q17 -7 31 -21q13 -13 20 -30q8 -19 8 -37q0 -20 -8 -38t-20 -30t-31 -20t-37 -8q-40 0 -68 28q-27 27 -27 68z" />
<glyph unicode="/" horiz-adv-x="948" d="M102 -78l644 1555q15 38 56 38h43l-643 -1553q-8 -19 -25 -30q-16 -10 -34 -10h-41z" />
<glyph unicode="0" horiz-adv-x="1384" d="M55 712q0 107 21 211.5t69.5 205.5t119.5 178t179.5 124t240.5 47q133 0 241.5 -41.5t181.5 -112.5t123 -169t72.5 -208.5t22.5 -234.5q0 -77 -16 -158t-48 -164t-85.5 -156t-122 -130t-164 -90t-205.5 -33q-133 0 -241 43.5t-179 115t-119.5 167.5t-69.5 197.5 t-21 207.5zM285 729q0 -172 24.5 -304.5t63 -212.5t92.5 -131t107 -69.5t112 -18.5q62 0 115 16.5t108.5 64.5t94 124.5t63 207t24.5 302.5q0 173 -25 308t-65 218t-94 136.5t-107.5 74t-110.5 20.5q-50 0 -95 -13.5t-92 -44t-84.5 -86.5t-67.5 -134.5t-46.5 -195.5 t-16.5 -262z" />
<glyph unicode="1" horiz-adv-x="962" d="M102 1204l517 255h25v-1211q0 -55 1 -87t5 -62.5t11 -41.5t19 -25t30 -13t42.5 -4.5t57.5 0.5h48v-13h-621v13q20 0 55 -1q103 -2 120.5 27.5t17.5 206.5v1040q-17 29 -88.5 8.5t-152.5 -60.5l-81 -40z" />
<glyph unicode="2" horiz-adv-x="1101" d="M12 2l106 104q163 162 383 395q71 77 106.5 118.5t75 97t56 100.5t27.5 103.5t11 131.5q0 47 -1 78.5t-6 77.5t-14 77t-26.5 66t-41.5 55.5t-61.5 34.5t-85.5 14q-123 0 -215.5 -45t-134.5 -133q-34 -72 -43 -149t-9 -241h-16l-16 474q27 9 100 34.5t111 37t104 23 t129 11.5q77 0 145 -13.5t129.5 -44t104.5 -77t67.5 -115.5t22.5 -156q-1 -60 -31.5 -117.5t-86.5 -113t-115 -104t-139 -116.5t-137 -126l-87 -87t-67 -66.5t-54.5 -56.5t-71.5 -79h12h449h110h24q45 0 80 15t56 36.5t38 55t24.5 59.5t17 61t14.5 50h8l-77 -438l-8 -32 h-826h-141z" />
<glyph unicode="3" horiz-adv-x="1005" d="M20 48l77 97q5 -4 17 -24.5t26 -42t42 -42.5t62 -31.5t88 -1.5t119 41q102 51 170 140t93 183.5t24.5 183t-25.5 151.5q-33 80 -89 110.5t-182 29.5h-14v22q4 4 10.5 12t24.5 33.5t33 52.5t30 66.5t21 78t1 85t-24 89.5q-25 57 -61 88t-68.5 34.5t-61.5 -0.5t-47 -13 l-17 -10q-50 -29 -82 -86.5t-42 -119t-13 -118.5t1 -94l4 -36h-17l-5 305l-1 1l1 1l-1 66v28q9 5 24 14t61 31.5t90.5 39.5t104.5 31t110 14q88 5 153.5 -31.5t90.5 -114.5q26 -114 -34.5 -229t-171.5 -189q104 21 194.5 -1.5t141.5 -78.5q78 -85 85 -207.5t-44 -237 t-151.5 -210.5t-223.5 -132q-94 -27 -183 -35t-148 0.5t-104.5 20.5t-66.5 24z" />
<glyph unicode="4" horiz-adv-x="1249" d="M102 436l18 26l46 69l630 928h160v-930h23q53 0 92 19t62 55.5t35 66.5t24 76.5t17 60.5h9l-78 -338l-8 -32v-1h-176v-218q0 -55 2.5 -87.5t9.5 -58.5t18.5 -35t30 -18t45.5 -6.5t64 0.5h48v-14h-621v14q20 0 54 -1q82 -1 102 9q29 15 34 78q3 29 3 91v246h-644zM185 531 l561 -1v826l-537 -789q-17 -24 -24 -36z" />
<glyph unicode="5" horiz-adv-x="1054" d="M57 71l90 141q5 -4 16 -26.5t24 -48.5t39 -52t58.5 -42t85.5 -13.5t118 29.5q85 35 147 100t93.5 139t44 153.5t5.5 148t-28 117.5q-20 47 -54.5 80.5t-79.5 49.5t-96 15t-107.5 -29t-111.5 -77.5t-110.5 -134t-101.5 -195.5h-17v1v3l95 1040h763l-14 -470h-9 q1 11 1.5 28t-3.5 62t-14.5 79t-38 62t-68.5 28h-612l-76 -771q36 82 89 158q67 95 152.5 159.5t168 91.5t162.5 29t143.5 -22t103.5 -67q62 -68 80 -161.5t-8 -189t-80.5 -184t-141 -156.5t-184.5 -97q-94 -27 -183 -35t-148 0.5t-104.5 20.5t-67.5 24z" />
<glyph unicode="6" horiz-adv-x="1179" d="M47 562q0 85 26.5 183t83.5 204t137.5 201.5t197 179.5t252.5 135q13 5 14 -4q1 -6 -6 -8q-481 -185 -481 -867q0 -6 0.5 -19t0.5 -20q22 38 47 74q83 118 195 191.5t214.5 93t192 1t139.5 -72.5q80 -86 83.5 -217.5t-58 -259t-163.5 -216.5l-4 -4l-1 -1q-8 -7 -26 -21 l2 1q-1 -1 -4 -3q-28 -20 -42 -29q-3 -2 -10 -5.5t-10 -5.5q0 -1 -1 -1l-1 -1q-2 -2 -7 -4t-8 -4q-1 -1 -3.5 -2t-3.5 -1q-39 -19 -47 -23l-2 -1q-48 -20 -96 -31t-72 -12l-25 -1h-1q-2 0 -7 -0.5t-8 -0.5q-78 0 -150 24q-154 49 -251 190.5t-97 356.5zM274 508 q6 -105 27.5 -189t60.5 -149t100 -100t141 -35q39 0 77 6l1 1q94 19 170 84q1 1 3.5 3t3.5 3l2 2q59 58 91 131.5t35 145.5t-7.5 134.5t-33.5 114.5q-23 51 -63.5 91t-94 64t-118 20t-130 -34.5t-135.5 -105.5t-130 -187z" />
<glyph unicode="7" horiz-adv-x="1226" d="M102 989l86 470h935l-58 -93q-350 -624 -411 -1128q-6 -60 -8 -95.5t6 -63t15 -39.5t36.5 -19t51 -7.5t76.5 -0.5h25v-14h-621v14q107 0 125 4q30 7 42 40q7 20 20 95q1 5 2.5 15.5t2.5 16.5q2 10 6 30.5t6 31.5q17 86 47.5 171t60 149.5t88.5 162t96.5 154.5t124 184.5 t133.5 198.5h-648q-45 0 -80 -15t-56 -36.5t-38 -55t-24.5 -59.5t-17 -61t-14.5 -50h-9z" />
<glyph unicode="8" horiz-adv-x="1093" d="M45 323q0 126 104 235t231 144q-273 168 -273 396q0 123 59 210.5t153.5 128t212.5 40.5q188 0 301 -83.5t113 -229.5q0 -99 -72.5 -195t-190.5 -124q159 -76 260.5 -191.5t101.5 -247.5q0 -113 -36.5 -196t-104 -132t-153 -72.5t-192.5 -23.5q-514 0 -514 341zM240 332 q0 -152 85.5 -242t228.5 -90q49 0 98.5 17.5t93.5 50.5t71.5 90t26.5 128q-1 47 -22 91.5t-50.5 77.5t-80.5 68.5t-91.5 59t-103.5 55.5q-8 4 -43.5 22.5t-53.5 29.5q-59 -28 -109 -118.5t-50 -239.5zM289 1214q0 -111 97 -199t279 -160q59 25 91 102t30 188 q-1 86 -23.5 149.5t-60 98t-80 50.5t-90.5 16q-93 0 -168 -68.5t-75 -176.5z" />
<glyph unicode="9" horiz-adv-x="1169" d="M35 858.5q-6 125.5 52.5 247.5t160.5 211l4 4l1 1q8 7 26 21l-2 -1q1 1 4 3q28 20 42 29q3 2 10 6t10 6q1 1 2 1q3 1 8 4t7 4q1 0 3.5 1.5t3.5 2.5q16 8 48 22l1 1q48 20 96 31t72 12l25 1h1q2 0 8 0.5t8 0.5q77 0 149 -24q154 -49 251 -190t97 -356q0 -85 -26.5 -183 t-83.5 -204t-137.5 -201.5t-197 -180t-252.5 -135.5q-13 -5 -14 4q-1 6 6 8q481 185 481 867q0 7 -0.5 20.5t-0.5 19.5q-30 -52 -46 -75q-67 -95 -152.5 -159.5t-168.5 -91.5t-163 -29t-143.5 22t-103.5 67q-80 87 -86 212.5zM190.5 1056.5q-0.5 -68.5 11.5 -126.5t35 -112 q19 -44 51.5 -81.5t75.5 -62.5t92 -36t105 1.5t112 45.5t114.5 101.5t109.5 164.5q-6 105 -27.5 189t-60.5 148.5t-100 99.5t-141 35q-40 0 -78 -6h-1q-94 -19 -170 -84l-7 -7l-2 -2q-59 -58 -89 -128.5t-30.5 -139z" />
<glyph unicode=":" horiz-adv-x="260" d="M33 89q0 20 7 37t20 30q14 14 30 21q18 8 38 8q18 0 37 -8q17 -7 31 -21q15 -15 21 -30q7 -17 7 -37q0 -23 -7 -38q-7 -17 -21 -30q-12 -12 -31 -20t-37 -8q-40 0 -68 28q-27 27 -27 68zM33 914q0 20 7 37q8 19 20 31t30 20t38 8q18 0 37 -8t31 -20q14 -14 21 -31t7 -37 q0 -23 -7 -38q-7 -16 -21 -30q-12 -12 -31 -20t-37 -8q-40 0 -68 28q-27 27 -27 68z" />
<glyph unicode=";" horiz-adv-x="260" d="M33 914q0 20 7 37q8 19 20 31t30 20t38 8q18 0 37 -8t31 -20q14 -14 21 -31t7 -37q0 -23 -7 -38q-7 -16 -21 -30q-12 -12 -31 -20t-37 -8q-40 0 -68 28q-27 27 -27 68zM38 97q0 37 25 62q26 26 65 26q44 0 69 -31q24 -30 24 -80q0 -40 -11 -86q-12 -48 -31 -87 q-22 -43 -50 -82q-26 -36 -64 -72l-16 15q-8 8 -8 18q0 6 3 10q6 9 7 10q11 10 27 30q10 11 32 48q13 22 29 60q12 29 17 71q-4 -1 -14 -3q-5 -1 -17 -1q-39 0 -63 26q-24 25 -24 66z" />
<glyph unicode="&#x3c;" horiz-adv-x="811" d="M14 683v42l777 399v-67q0 -11 -6 -20q-4 -6 -22 -17l-573 -289q-35 -18 -74 -27q40 -8 74 -26l573 -291q18 -11 22 -17q6 -9 6 -19v-68z" />
<glyph unicode="=" horiz-adv-x="886" d="M14 508v75h857v-75h-857zM14 832v76h857v-76h-857z" />
<glyph unicode="&#x3e;" horiz-adv-x="811" d="M18 283v68q0 9 7 20q6 9 20 16l574 291q33 18 73 26q-24 5 -38 11q-9 3 -35 16l-574 289q-27 15 -27 37v67l777 -399v-42z" />
<glyph unicode="?" horiz-adv-x="829" d="M102 1346q26 26 64 54q37 28 77 46q45 21 91 32q50 12 108 12q72 0 137 -21q63 -20 112 -62q49 -41 77 -99q28 -57 28 -131q0 -79 -24 -136q-23 -55 -62 -100q-34 -39 -81 -75q-14 -11 -41 -31t-40 -30q-32 -25 -64 -58q-27 -29 -29 -64l-12 -170h-67l-5 177v5 q0 45 24 75q28 35 62 62q40 32 80 61q43 31 79 70q38 41 62 89q25 50 25 121q0 53 -22 99q-22 45 -59 75q-38 31 -86 47q-47 16 -101 16q-67 0 -119 -19q-49 -17 -84 -40q-36 -24 -54 -40q-20 -18 -27 -18q-15 0 -23 12zM312 89q0 20 7 37t20 30q13 14 30 21q18 8 38 8 q18 0 37 -8q17 -7 31 -21q13 -13 20 -30q8 -19 8 -37q0 -20 -8 -38t-20 -30t-31 -20t-37 -8q-40 0 -68 28q-27 27 -27 68z" />
<glyph unicode="@" horiz-adv-x="1585" d="M53 577q0 174 61 321q61 148 167 257t246 170q142 62 302 62q140 0 266 -43q127 -44 225 -129q98 -86 156 -211q59 -127 59 -293q0 -113 -30 -206q-29 -91 -83 -160q-52 -67 -122 -104q-71 -38 -150 -38q-91 0 -138 49q-46 48 -48 138q-59 -96 -131 -139 q-73 -43 -157 -43q-58 0 -101 20q-40 19 -70 55q-28 34 -42 83q-14 50 -14 103q0 87 33 176q33 87 99 160q64 70 159 115q92 44 214 44q55 0 103 -9q46 -9 86 -27l-94 -359q-12 -49 -18 -85q-6 -37 -6 -68q0 -46 12 -74q13 -30 30 -45q21 -18 44 -23q21 -5 52 -5 q60 0 113 31t95 88t66 140q24 82 24 183q0 152 -50 267t-137 190q-89 77 -201 113q-114 37 -244 37q-145 0 -269 -54q-127 -55 -223 -154q-95 -98 -152 -234q-56 -134 -56 -299q0 -184 58 -322q59 -140 159 -233q102 -94 235 -142t285 -48q151 0 280 35q126 34 230 102 q10 6 18 6q15 0 21 -15l15 -38q-114 -76 -255 -118q-139 -42 -309 -42q-168 0 -319 55q-148 54 -258 158t-173 256q-63 151 -63 346zM529 471q0 -40 11 -78q11 -36 31 -61q22 -26 51 -41q30 -15 72 -15q36 0 77 12t77 45q40 36 69 88q34 59 54 142l82 321q-29 9 -51 11 q-27 3 -61 3q-92 0 -170 -38q-75 -37 -129 -98q-52 -59 -83 -138q-30 -76 -30 -153z" />
<glyph unicode="A" horiz-adv-x="1447" d="M-143 0v13h8q81 1 122 9.5t64 28t49 65.5q73 126 137 284l422 1036q3 7 15 7h116q16 0 19 -7l315 -752l64 -152l46 -109q50 -119 81 -185.5t57.5 -117t49 -70.5t44 -28.5t54.5 -8.5h69v-13h-692v13h164q41 0 57 16q10 11 10 37q0 14 -3 32q-8 54 -48 159q-16 43 -67 166 l-40 91l-8 21q-30 66 -86 115q-55 50 -130 68q-38 9 -77 9q-38 0 -78 -9q-80 -18 -166.5 -97t-156.5 -214l-7 -18q-65 -157 -75 -256l-1 -1v-31q9 -89 126 -89q13 0 87.5 0.5t76.5 0.5v-13h-618zM321 536q115 162 259 226q100 44 193 44q41 0 79 -9l-218 515z" />
<glyph unicode="B" horiz-adv-x="1261" d="M-4 1418v13h621q560 -12 560 -333q0 -78 -33 -139t-93.5 -102t-138 -66.5t-175.5 -38.5q220 -14 353.5 -106t133.5 -255q0 -377 -517 -391h-42h-656v13q20 0 55 -1h13q91 0 107 28q18 30 18 206l8 938q0 56 -1 87.5t-5 62.5t-11 42t-19.5 25t-30 13t-42.5 4.5t-58 -0.5 h-47zM416 197q1 -117 20 -149q20 -29 72 -29q49 -1 148 -1q87 0 148 16t98 44.5t57.5 77t27.5 102.5t7 133q0 73 -8.5 125t-31.5 96t-63 70.5t-103 41t-152 14.5h-216zM420 760h189q191 0 264 76t73 265q0 94 -20.5 154.5t-67.5 96.5t-115 50.5t-172 14.5l-67 1 q-58 -3 -69 -40t-11 -194z" />
<glyph unicode="C" horiz-adv-x="1406" d="M29 717q0 163 62.5 302.5t170.5 234.5t255 149t312 54q126 0 276 -27t234 -64v-446h-19q-9 99 -59 208t-109 176q-62 70 -131.5 101t-193.5 31q-282 0 -422 -189t-140 -530q0 -342 136 -530.5t418 -188.5q127 0 198.5 34t136.5 109q58 66 108.5 179.5t61.5 212.5h17v-463 q-87 -39 -231.5 -66t-284.5 -27q-225 0 -406 92.5t-285.5 262t-104.5 385.5z" />
<glyph unicode="D" horiz-adv-x="1454" d="M-4 1418v13h637q161 0 304 -48.5t251.5 -136.5t172 -222.5t63.5 -296.5q0 -215 -99 -380.5t-277.5 -256t-407.5 -90.5l2 13q547 0 547 714q0 332 -140.5 508.5t-419.5 176.5h-144q-43 -6 -52 -44.5t-9 -183.5l-8 -986q1 -42 3 -69t6.5 -50t12.5 -33.5t20 -19.5t29.5 -10 t41 -3.5t54.5 0.5h47v-13h-621v13q20 0 55 -1h13q91 0 107 28q18 30 18 206l8 938q0 56 -1 87.5t-5 62.5t-11 42t-19.5 25t-30 13t-42.5 4.5t-58 -0.5h-47z" />
<glyph unicode="E" horiz-adv-x="1220" d="M-6 1418v12h1120q8 0 14.5 -5.5t6.5 -13.5v-513h-24q0 11 -1.5 29.5t-8 72t-16.5 102.5t-30.5 108.5t-47 102.5t-69 72.5t-93.5 29.5l-244 3h-42q-42 0 -58.5 0.5t-37 -10t-25 -18t-10.5 -42.5t-6 -63.5v-100.5l-4 -428l178 -4q150 1 230 89.5t80 232.5h14v-630h-14 q0 149 -82.5 221t-275.5 72l-130 1l-4 -540q1 -42 3 -69t6.5 -50t12.5 -33.5t20 -19.5t29.5 -10t41 -3.5t54.5 0.5h47l257 3q71 0 124.5 53.5t79.5 129.5t41.5 151.5t18.5 129.5l3 53h24v-512q0 -8 -6.5 -14.5t-14.5 -6.5h-1148v13q20 0 53 -1h14q70 0 89 9q28 15 34 77 q3 35 3 149l8 937q0 56 -1 87.5t-5 62.5t-11 42t-19.5 25t-30 13t-42.5 4.5t-58 -0.5h-47z" />
<glyph unicode="F" horiz-adv-x="1150" d="M-4 1418v14h1120q8 0 14.5 -7t6.5 -15v-512h-24q0 11 -1.5 29.5t-8.5 72t-17.5 102.5t-31.5 108.5t-47.5 102.5t-68 72.5t-91.5 29.5l-244 2h-44q-41 0 -57.5 0.5t-36.5 -9.5t-24.5 -17.5t-10.5 -43t-6 -63.5v-100l-4 -430l178 -1q150 1 230 89t80 232h14v-630h-14 q0 149 -82.5 221t-275.5 72l-130 1l-4 -540q1 -42 3 -69t6.5 -50t12.5 -33.5t20 -19.5t29.5 -10t41 -3.5t54.5 0.5h47v-13h-621v13q20 0 55 -1h13q91 0 107 28q18 30 18 206l8 938q0 56 -1 87.5t-5 62.5t-11 42t-19.5 25t-30 13t-42.5 4.5t-58 -0.5h-47z" />
<glyph unicode="G" horiz-adv-x="1540" d="M29 709q0 214 106.5 382.5t286.5 259t399 90.5q124 0 273 -26.5t232 -63.5l-18 -439h-19q0 92 -39 190t-89 167q-64 81 -138 116.5t-204 35.5q-143 0 -249.5 -49t-173 -142.5t-99.5 -223.5t-33 -297q0 -165 31 -293.5t95.5 -223t171 -144.5t251.5 -50q55 0 115 7.5 t122 24t102 49t40 76.5q0 52 -1 85.5t-2 47.5t-1 17q0 5 -0.5 29.5t-0.5 45.5v108q-2 47 -27.5 82.5t-65.5 55t-91 33t-105 16.5t-108 5q-24 2 -46 2q-27 0 -52 -2h-41v19h890v-19q-17 0 -42.5 0.5t-35.5 0.5t-26.5 -1t-22 -3.5t-14.5 -8.5t-11.5 -13.5t-6.5 -20.5t-4.5 -29 t-1.5 -39q-1 -171 -1 -567h-23q-44 42 -86 65q-27 -3 -100.5 -25.5t-167.5 -41.5t-191 -19q-224 0 -401 92t-277 259.5t-100 379.5z" />
<glyph unicode="H" horiz-adv-x="1576" d="M-4 1420v14h621v-14q-20 0 -55 1h-13q-91 1 -107 -27q-18 -30 -18 -207l-4 -489h736l4 486q0 55 -1 87t-5 62.5t-11 41.5t-19 25t-30 13t-42.5 4.5t-57.5 -0.5h-48v14h621v-14q-20 0 -55 1h-13q-91 0 -107 -28q-18 -30 -18 -206l-8 -986q1 -42 3 -69t6.5 -50t12.5 -33.5 t20 -19.5t29.5 -10t41 -3.5t54.5 0.5h47v-14h-621v14q20 0 55 -1h13q91 0 107 28q18 30 18 206l4 431h-736l-4 -476q1 -42 3 -69t6.5 -50t12.5 -33.5t20 -19.5t29.5 -10t41 -3.5t54.5 0.5h47v-13h-621v13q20 0 55 -1h13q91 -1 107 27q18 30 18 207l8 938q0 55 -1 87t-5 62.5 t-11 41.5t-19 25t-30 13t-42.5 4.5t-57.5 -0.5h-48z" />
<glyph unicode="I" horiz-adv-x="626" d="M-4 1418v13h621v-13q-20 0 -53 1h-14q-70 0 -89 -9q-28 -15 -34 -77q-3 -34 -3 -149l-8 -986q1 -42 3 -69t6.5 -50t12.5 -33.5t20 -19.5t29.5 -10t41 -3.5t54.5 0.5h47v-13h-621v13q20 0 55 -1h13q91 0 107 28q18 30 18 206l8 938q0 56 -1 87.5t-5 62.5t-11 42t-19.5 25 t-30 13t-42.5 4.5t-58 -0.5h-47z" />
<glyph unicode="J" horiz-adv-x="782" d="M-365 -538l160 166q58 -73 118.5 -116.5t109.5 -55.5q33 -9 66 -9q16 0 31 2q49 6 83 22t65 40.5t44 38t21 24.5q33 43 43 149q5 61 5 115q0 40 -3 76l-6 84q0 4 0.5 12t0.5 12l-1 173l8 990q0 55 -1 87t-5 62.5t-11 41.5t-19 25t-30 13t-42.5 4.5t-57.5 -0.5h-48v13h621 v-13q-20 0 -53 1h-14q-70 0 -89 -9q-28 -15 -34 -77q-3 -34 -3 -148l-7 -987v-130q0 -25 -4 -64q-10 -99 -48 -200l-1 -2q-18 -45 -43 -89l-6 -12q-1 -1 -2.5 -3.5t-2.5 -4.5v1q-28 -44 -51 -72l-12 -13q-53 -67 -125 -111.5t-144 -62t-148 -22.5q-29 -2 -56 -2q-44 0 -84 5 q-64 8 -115 17.5t-81 18.5z" />
<glyph unicode="K" horiz-adv-x="1447" d="M-4 1418v13h621v-13q-18 0 -42.5 0.5t-36.5 0.5t-29 -0.5t-25 -2t-18 -5t-15 -9t-10 -13t-8 -18.5q0 -1 -0.5 -1t-0.5 -1q-8 -30 -8 -185l-3 -408l-1 -22v-49l-1 -80v-114l171 240l18 25l163 228l12 16q91 127 134.5 206.5t43.5 125.5q0 65 -93 65h-118l1 14h599v-15 h-105q-114 0 -198 -101q-85 -89 -241 -305l-19 -26l-152 -209q182 -12 284 -113q20 -20 29 -32q59 -70 114 -187q42 -88 65.5 -136.5t52 -103t46.5 -80t40 -52.5t42 -37t43 -16.5t52 -6.5h64v-11h-361q-4 0 -11.5 1t-25.5 12t-31 32q-100 161 -169 317q-77 180 -123 250 q-4 6 -19 26q-14 18 -26 30t-20 18.5t-21.5 10.5t-20 5t-25.5 2t-29 2l-167 -227l-2 -282q1 -49 3.5 -78.5t9 -52.5t18 -31.5t30 -16t44.5 -5.5t62 0h47v-13h-621v13q20 0 55 -1h13q91 0 107 28q18 30 18 206l8 938q0 56 -1 87.5t-5 62.5t-11 42t-19.5 25t-30 13t-42.5 4.5 t-58 -0.5h-47z" />
<glyph unicode="L" horiz-adv-x="1144" d="M-6 0v13q121 0 135 2q48 6 63 43q16 39 16 189l-8 938q0 72 -0.5 101t-5 64t-11.5 42.5t-24 17.5t-38.5 10t-58.5 -1q-35 -1 -55 -1v13h621v-13h-47q-31 3 -54.5 0.5t-41 -3.5t-29.5 -10t-20 -19.5t-12.5 -33.5t-6.5 -50t-3 -69l8 -986q0 -175 17 -205q16 -29 113 -29h7 h42l244 3q57 0 105.5 43t77 104t48.5 122.5t28 104.5l7 43h24v-412q0 -8 -6.5 -14.5t-14.5 -6.5h-1120z" />
<glyph unicode="M" horiz-adv-x="1935" d="M-4 0v13q149 0 221 82.5t72 275.5l8 814q0 13 -0.5 35.5t-0.5 31.5q0 4 -0.5 10.5t-0.5 9.5q-2 53 -7.5 81t-23.5 43.5t-40 18.5t-68 3h-2h-71v13h407q17 -29 58 -88l476 -721l381 607q55 88 97 158l27 44h396v-13q-20 0 -55 1h-13q-91 1 -107 -27q-18 -30 -18 -207 l-8 -987q1 -49 3.5 -78.5t9 -53t18.5 -32t30.5 -16t44.5 -5.5t63 0h45v-13h-621v13h121q45 4 58 35q13 30 14 147v15v8v29h1l7 938q0 109 -6 150q-11 -1 -45 -54l-520 -829q-9 -17 -21 -17h-12q-10 0 -21 17l-572 835q-1 -28 -1 -102l-8 -862q1 -151 86 -230.5t228 -79.5 v-13h-630z" />
<glyph unicode="N" horiz-adv-x="1660" d="M-4 0v13q149 0 221 82.5t72 275.5l8 814q0 13 -0.5 35.5t-0.5 31.5q0 4 -0.5 10.5t-0.5 9.5q0 16 -2 38q-6 73 -32 91q-25 17 -97 17h-8h-2h-23h-48v13h387l5 -10q21 -36 75 -99l793 -996v20l8 762q-2 151 -86.5 230.5t-227.5 79.5v13h630v-13q-149 0 -221 -82.5 t-72 -275.5l-7 -1010v-50h-28q-10 6 -25 26q0 1 -4 5.5t-6 7.5l-983 1257v-9q-1 -28 -1 -102l-7 -862q1 -151 85.5 -230.5t227.5 -79.5v-13h-630z" />
<glyph unicode="O" horiz-adv-x="1525" d="M29 717q0 211 101.5 382t269.5 264.5t365 93.5q151 0 285.5 -56t232 -153.5t154.5 -235.5t57 -295q0 -155 -61.5 -294t-163 -235.5t-236 -152.5t-277.5 -56q-149 0 -283 56t-231.5 153t-155 235t-57.5 294zM265 717q0 -164 26.5 -292t83 -225t151 -148.5t222.5 -51.5 q129 0 227.5 52t160.5 147.5t93 226t31 291.5q0 166 -25.5 293.5t-81.5 225t-151.5 149t-228.5 51.5q-130 0 -228.5 -52t-159 -148t-90.5 -226t-30 -293z" />
<glyph unicode="P" horiz-adv-x="1312" d="M-6 1418v13h739h-1q268 -1 418 -104t150 -294q0 -192 -153.5 -309.5t-405.5 -117.5h-14q-7 0 -21 0.5t-21 0.5q-108 3 -268 19l-3 -428q1 -42 3 -69t6.5 -50t12.5 -33.5t20 -19.5t29.5 -10t41 -3.5t54.5 0.5h47v-13h-621v13q20 0 53 -1h14q70 0 89 9q28 15 34 77 q3 35 3 149l8 938q0 55 -1 87t-5 62.5t-11 41.5t-19 25t-30 13t-42.5 4.5t-57.5 -0.5h-48zM418 705q108 -71 269 -77h16q110 0 183 28t112 84t54.5 125.5t15.5 169.5q0 80 -8.5 136t-31 104t-63 76t-105 43.5t-155.5 15.5h-207q-30 0 -44 -6.5t-22 -29.5q-10 -33 -10 -189z " />
<glyph unicode="Q" horiz-adv-x="1613" d="M29 717q0 211 101.5 382t269.5 264.5t365 93.5q151 0 285.5 -56t232 -153.5t154.5 -235.5t57 -295q0 -252 -152 -449q57 -68 111 -183q48 -100 74.5 -155t57.5 -109t50 -77.5t45 -44t50 -25.5t58 -5h65v-19h-361q-4 0 -11.5 1t-25.5 12.5t-31 32.5q-1 2 -18 29t-23.5 38 t-24 42.5t-30.5 56t-31.5 63t-36.5 79.5q-29 69 -57 127q-202 -153 -447 -153q-149 0 -283 56t-231.5 153.5t-155 235.5t-57.5 294zM265 717q0 -130 16.5 -238t53 -198t92 -152t137 -96t184.5 -34q272 0 404 227q-59 101 -113.5 135.5t-130.5 34.5h-126v20q52 2 197 2 q147 -2 236 -46q45 150 45 345q0 166 -25.5 293.5t-81.5 225t-151.5 149t-228.5 51.5q-130 0 -228.5 -52t-159 -148t-90.5 -226t-30 -293z" />
<glyph unicode="R" horiz-adv-x="1548" d="M-4 1420v13h739h-6q239 -5 381.5 -90.5t142.5 -236.5q0 -147 -77.5 -235t-254.5 -109q106 -26 179 -97q20 -20 29 -32q58 -69 114 -188q42 -88 65.5 -136.5t52 -103t46.5 -80t40 -52.5t42 -37t43 -16.5t52 -6.5h64v-11h-361q-4 0 -11.5 1t-25.5 12.5t-31 32.5 q-102 163 -169 316q-77 180 -123 250q-10 15 -19 27q-46 60 -91.5 85t-124.5 31h-27q-52 1 -163 8q-5 0 -10 0.5t-11 1.5t-9 1q-4 0 -51 4l-5 -572q1 -42 3 -69t6.5 -50t12.5 -33.5t20 -19.5t29.5 -10t41 -3.5t54.5 0.5h47v-13h-621v13q20 0 53 -1h14q70 0 89 9q28 15 34 77 q3 35 3 149l8 938q0 55 -1 87t-5 62.5t-11 41.5t-19 25t-30 13t-42.5 4.5t-57.5 -0.5h-48zM421 837q76 -45 193 -58q36 -4 53 -4h14q32 0 47 1q175 10 252 95t77 237q0 160 -84.5 234t-289.5 74h-190q-18 0 -25 -1q-31 -11 -37.5 -52.5t-6.5 -175.5z" />
<glyph unicode="S" horiz-adv-x="1144" d="M47 1026q0 131 73 230.5t192.5 149.5t266.5 50q236 0 456 -56l14 -505h-21q-3 92 -18.5 169t-49 147.5t-83 119.5t-125.5 78t-173 29q-165 0 -247 -71t-82 -188q0 -53 21.5 -98t55 -77t86 -62t102.5 -52t117 -49q5 -2 8.5 -3.5t7.5 -2.5h1l1 -1h1l1 -1h1l1 -1 q187 -74 264 -122q162 -103 177 -259l2 -36q0 -190 -147 -312.5t-369 -122.5q-35 0 -67.5 1t-58 2.5t-54.5 4.5t-47 5t-46 7.5t-40.5 8t-41.5 9.5t-38.5 9.5t-42 11t-42.5 11.5l-12 522h20q6 -258 130.5 -415.5t339.5 -157.5q151 0 224.5 72.5t73.5 192.5q0 66 -25 116 t-92 93t-108 62.5t-148 62.5q-17 7 -26 11q-85 34 -129 53.5t-112.5 59t-103 77.5t-61.5 97.5t-27 129.5z" />
<glyph unicode="T" horiz-adv-x="1323" d="M8 927l34 504h1237l33 -504h-14l-17 119q-15 104 -53 177t-97 114.5t-129.5 59.5t-161.5 18q-44 -1 -57 -32q-13 -30 -13 -165v-34l-8 -986q1 -42 3 -69t6.5 -50t12.5 -33.5t20 -19.5t29.5 -10t41 -3.5t54.5 0.5h47v-14h-621v14q20 0 55 -1h13q91 0 107 28q18 30 18 206 h1l7 938q0 143 -14 184.5t-70 47.5h-1h-2h-7q-89 -1 -157 -19.5t-123.5 -60.5t-91 -114.5t-50.5 -175.5l-17 -119h-15z" />
<glyph unicode="U" horiz-adv-x="1468" d="M-20 1418v18h706v-18h-138q-23 0 -34.5 -1t-26 -7t-20.5 -15t-14 -31t-10 -48t-5 -72.5t-3.5 -98.5t-0.5 -131v-405q0 -118 8 -201.5t31 -158t63 -119t104.5 -70t154.5 -25.5q195 0 305.5 145t110.5 388v456q2 57 2 103q-1 75 -5 125q-6 80 -37.5 117.5t-61.5 43 t-107 5.5h-7.5h-7h-8.5h-118v18h629v-18h-115q-26 0 -39.5 -1.5t-30.5 -9t-25.5 -23.5t-17.5 -43t-13 -70t-6.5 -103.5t-2.5 -143.5v-456q0 -129 -33 -236t-96.5 -186t-162 -123t-224.5 -44q-241 0 -373.5 148.5t-132.5 425.5v460q0 281 -16 344q-12 49 -46 57q-14 4 -48 4 h-128z" />
<glyph unicode="V" horiz-adv-x="1576" d="M-27 1418v18h717l-1 -18h-141q-23 0 -35 -2t-20 -9t-7.5 -20t5.5 -34t17 -53.5t28 -75.5q9 -22 14 -35.5t13 -36.5t16 -44l331 -776q6 -13 10 -13t11 13l280 744q63 170 63 238q0 106 -133 106h-158l1 16h618v-18h-109q-51 0 -85 -25t-62 -81q-66 -128 -106 -230 l-412 -1082q-3 -6 -15 -6h-12q-16 0 -19 6l-425 1065q-41 103 -69 164.5t-50.5 102.5t-46 58t-44 22.5t-55.5 5.5h-119z" />
<glyph unicode="W" horiz-adv-x="2428" d="M-27 1411v18h717l-1 -18h-141q-13 0 -22.5 -0.5t-17.5 -2.5t-12 -5.5t-7 -9t-3 -13.5t2 -18.5t6 -24.5t10 -31.5t14 -39t18 -47.5q9 -23 14 -36.5t13.5 -37.5t16.5 -45l330 -776q6 -12 10 -12q5 0 11 12l278 738q-34 85 -57.5 140.5t-46 96.5t-38.5 62.5t-37 33.5t-39 15 t-47 3h-118v18h716v-2v-16h-141q-49 0 -59 -16q-3 -5 -3 -15q0 -21 14 -64q8 -23 34.5 -94.5t44.5 -120.5l330 -776q6 -13 10 -13t11 13l280 744q63 170 63 238q0 106 -133 106h-158l1 16h618v-18h-108q-51 0 -85.5 -25t-62.5 -81q-62 -120 -105 -230l-413 -1082 q-4 -7 -14 -7h-13q-15 0 -19 7l-412 1033l-394 -1035q-4 -7 -15 -7h-12q-15 0 -19 7l-425 1065q-34 86 -57.5 142t-46 97t-38.5 62.5t-37 33.5t-39 15t-47 3h-119z" />
<glyph unicode="X" horiz-adv-x="1656" d="M-18 0v16h93q30 0 59 9.5t61 34.5t56.5 48t64 72.5t65 83t76.5 103.5l267 364l-174 268q-70 108 -111.5 170.5t-80.5 114.5t-60 74.5t-47 37.5t-43.5 17.5t-49.5 2.5l-121 -1v19h754v-18h-137q-66 0 -66 -40q0 -28 40 -97.5t150 -238.5l90 -138l88 122q92 128 135.5 207 t43.5 125q0 62 -94 62h-118l1 16h599v-18h-104q-118 0 -199 -98q-85 -89 -241 -305l-97 -132l46 -71l12 -18l234 -361q98 -150 157 -233t102.5 -124t68 -49.5t64.5 -8.5h108v-16h-724v16h120q69 0 69 36q0 32 -49 113.5t-181 279.5l-173 264l-254 -355q-121 -165 -121 -244 q0 -41 29.5 -67t78.5 -26q17 0 79.5 0.5t63.5 0.5l-1 -18h-629z" />
<glyph unicode="Y" horiz-adv-x="1517" d="M-27 1418v18l758 1v-19h-139q-53 0 -75.5 -11.5t-16.5 -51t33 -94.5t88 -160l234 -407l259 450q25 42 40 86.5t18 89.5v7q0 39 -26 65q-29 28 -88 28h-118l1 16h603v-17l-108 -1q-134 0 -299 -280l-267 -469v-277q0 -66 0.5 -109.5t1.5 -84.5t4.5 -65.5t6.5 -46.5 t10.5 -32.5t14 -19.5t19.5 -11.5t24 -3.5t31 -1h137v-18h-304h-408v18h137q20 0 31 1t24 3.5t19.5 11.5t14 19.5t10.5 32.5t6.5 46.5t4.5 65.5t1.5 84.5t0.5 109.5v267l-261 452q-59 102 -91.5 153t-68.5 90.5t-67.5 51.5t-75.5 12h-119z" />
<glyph unicode="Z" horiz-adv-x="1245" d="M12 5q0 5 7 14q3 5 5 8l946 1385h-454q-196 0 -291.5 -85.5t-117.5 -279.5l-16 -172l-25 2l18 170q4 38 9 90.5t8.5 83t7 68t6.5 58.5t5.5 41t5 29.5t4.5 10.5l1062 8q31 0 18 -20l-945 -1387q39 0 212 -3t202 -3q198 0 299.5 102t123.5 316l15 162l21 -2l-13 -164 q-34 -420 -51 -437h-1050q-12 0 -12 5z" />
<glyph unicode="[" horiz-adv-x="253" d="M82 -264v1843h329v-37q0 -13 -9 -22q-8 -8 -23 -8h-213v-1709h213q15 0 23 -8q9 -9 9 -22v-37h-329z" />
<glyph unicode="\" horiz-adv-x="948" d="M102 1515h43q41 0 56 -38l644 -1555h-41q-18 0 -34 10q-17 11 -25 30z" />
<glyph unicode="]" horiz-adv-x="251" d="M-160 -227q0 13 9 22q8 8 22 8h214v1709h-214q-14 0 -22 8q-9 9 -9 22v37h328v-1843h-328v37z" />
<glyph unicode="^" horiz-adv-x="802" d="M16 837l353 637h63l353 -637h-71q-12 0 -20 7q-9 6 -14 17l-249 451q-3 6 -9 17t-8 16q-7 13 -12 33q-1 -5 -3 -10.5t-5 -12t-4 -10.5q-4 -11 -16 -33l-249 -451q-4 -9 -13 -16q-10 -8 -22 -8h-74z" />
<glyph unicode="_" horiz-adv-x="980" d="M82 -203h816v-71h-816v71z" />
<glyph unicode="`" horiz-adv-x="335" d="M-6 1490h95q26 0 37 -7t24 -26l163 -246h-56q-9 0 -21 4q-8 3 -17 13z" />
<glyph unicode="a" horiz-adv-x="1374" d="M38 276q-6 40 -6 80q0 68 17 136q27 108 81.5 211.5t136.5 184.5t174 122q159 60 286 59q105 0 187 -40q28 -16 41 -27v-1h1q21 -17 40 -42q22 -29 39 -65l123 158h13q0 -100 0.5 -403t0.5 -403q0 -55 1 -87t5 -62.5t11 -41.5t19 -25t30 -13t42.5 -4.5t57.5 0.5h15.5h15 h17.5v-13h-621v13q20 0 55 -1h13q91 0 107 28q18 30 18 206v257q-39 -112 -105.5 -208.5t-144.5 -162t-165 -106t-167 -48.5q-18 -2 -35 -2q-59 0 -113 22q-70 28 -113 89q-61 81 -77 189zM221 428q8 -80 34 -149q20 -55 54.5 -99.5t80.5 -71.5q46 -28 100 -36q13 -2 27 -2 q42 0 87 18q60 24 119.5 77.5t120.5 154t114 238.5q3 31 3 63q0 36 -4 74q-8 70 -33 136.5t-64 116.5q-38 51 -100 79q-49 22 -108 22q-14 0 -29 -1h2q-90 -11 -164 -53.5t-121.5 -105t-78 -140t-39.5 -159.5q-5 -43 -5 -86q0 -38 4 -76z" />
<glyph unicode="b" horiz-adv-x="1372" d="M-8 0v13q20 0 55 -1h13q92 0 108 28q18 30 17 206v1166q0 27 -17.5 38.5t-42 9t-49 -9t-42.5 -14.5l-17 -7l-6 7l362 146h26v-1008q33 84 81 165q51 100 122.5 172t145.5 108t152 50q44 8 85 8q32 0 62 -5q68 -11 124 -39t89 -70q52 -66 69 -155q9 -47 10 -95 q0 -41 -8 -85q-15 -92 -56.5 -186t-101.5 -173t-137.5 -140.5t-160.5 -89.5q-134 -46 -255 -46q-46 0 -90 7h-538zM399 246q0 -98 5 -139q30 -24 68.5 -44.5t101.5 -40.5q45 -14 98 -13q22 0 46 2q81 8 165 49q85 41 142 117.5t81 162.5q23 88 28 182q2 29 2 55q0 63 -8 118 q-12 79 -34 138q-28 77 -83 127t-129 57q-11 1 -23 1q-64 0 -132 -34q-80 -40 -167.5 -159t-160.5 -305v-274z" />
<glyph unicode="c" horiz-adv-x="1140" d="M34 362q-2 24 -1 47q0 127 53 246q70 172 210.5 283.5t319.5 126.5q43 6 84 6q62 1 120 -13q96 -22 149 -96q51 -67 72 -159l-161 -121q3 40 3 75q1 38 -3 72q-8 65 -25.5 103t-40.5 65t-47 38t-44.5 16t-33.5 5l-13 -1q-92 -7 -157 -48t-138 -136q-64 -83 -96 -203 q-27 -101 -27 -198q0 -18 1 -36q6 -114 44 -192q23 -51 64.5 -92t97.5 -64q56 -24 120 -28q9 -1 18 -1q57 0 117 25q70 28 137 84t133.5 159.5t118.5 243.5h19q-44 -132 -110 -244q-67 -111 -165 -186.5t-200 -106.5q-103 -30 -203 -32h-9q-95 0 -173 29q-82 30 -131 83 q-91 98 -103 250z" />
<glyph unicode="d" horiz-adv-x="1396" d="M40 441q15 91 56.5 185.5t101 173.5t137.5 140.5t160 89.5q87 30 168 40q47 6 88 6q29 0 53 -2q60 -8 100.5 -19.5t73.5 -27.5v385q0 27 -17.5 38.5t-42 9t-49 -9t-41.5 -14.5l-18 -7l-5 7l362 146h25v-1336q0 -55 1 -87t5 -62.5t11 -41.5t19 -25t30 -13t42.5 -4.5 t57.5 0.5h15.5h15h17.5v-13h-621v13q20 0 55 -1h13q91 0 107 28q18 30 18 206v265q-40 -103 -87 -182q-58 -119 -145.5 -198.5t-179 -109t-182 -29.5t-162 31t-111.5 82q-52 65 -69 155q-9 48 -9 96q0 42 7 85zM216 535q-1 -16 -1 -31q0 -74 14 -140q17 -78 47 -129 t68.5 -90t85.5 -63q48 -24 100 -26h8q48 0 100 26q57 28 113 84.5t115 158.5t112 241v335q-25 21 -47 38t-78 47q-55 31 -109 44q-38 9 -87 9q-21 1 -43 -1q-76 -6 -148 -41q-85 -41 -142.5 -117.5t-80.5 -164.5t-27 -180z" />
<glyph unicode="e" d="M34 357q-2 23 -1 47q0 127 53 245q70 172 210.5 284t319.5 127q46 6 71 7h4h21q72 1 132 -17q70 -20 114 -55.5t77.5 -79t50.5 -87t27 -80t13 -59.5l2 -23h-125h-717q-27 -101 -27 -204q1 -15 1 -30q4 -118 43 -196q23 -51 64.5 -92t97.5 -64q56 -24 120 -28q9 -1 18 -1 q57 -1 117 25q70 28 137 84.5t133.5 160t118.5 243.5h19q-44 -135 -110 -245q-67 -111 -165 -186.5t-200 -105.5q-103 -29 -203 -31q-5 0 -9 -1q-95 0 -173 29q-82 30 -131 83q-91 98 -103 250zM291 685h638q-2 79 -17 142t-37.5 100t-49 64t-53 37.5t-48 16.5t-34.5 5h-14 q-92 -7 -157 -48t-138 -136q-58 -74 -90 -181z" />
<glyph unicode="f" horiz-adv-x="534" d="M-4 0v13q20 0 53 -1h14q70 0 89 9q28 15 34 77q3 33 3 128v20v695v1q0 35 4 64q1 10 5 30h-171v16h174q16 84 44 154q39 98 106 182q1 2 3.5 5t4.5 5l4 4q2 3 5 5.5t6 5.5l5 5q18 21 49 46q2 2 7.5 6t6.5 5q84 66 169 80q27 4 52 4q54 0 100 -20q67 -30 117 -93 q10 -12 14 -19l-148 -86q-43 59 -110 91q-60 30 -115 30h-12q-61 -4 -93 -41q-32 -33 -36 -79q-1 -12 -1 -26q0 -44 9 -114q13 -93 15 -150h291v-16h-291v-24v-25v-793v-3q1 -47 3.5 -75.5t9.5 -51t18.5 -31t30 -15.5t44.5 -5t62 0h46v-13h-621z" />
<glyph unicode="g" horiz-adv-x="1007" d="M-20 -370q0 96 69 178t177 139h-133v12h334v-12h-167q-44 -22 -73.5 -59.5t-40.5 -78t-15 -85.5q-1 -13 -1 -26q0 -29 6 -54q6 -34 21 -60t47 -51t92.5 -38.5t146.5 -13.5q140 0 263 39t202 114.5t79 171.5q0 99 -69.5 142t-235.5 43h-356q-276 3 -276 134q0 68 87 127 t213 79q-69 11 -130 38.5t-110.5 70t-78.5 104t-29 133.5q0 102 70 189.5t181 136.5t232 49h5q97 0 200 -42q111 59 215 59q33 0 65 -6l3 -89q-68 47 -146 47q-53 0 -110 -22q168 -81 204 -259q8 -30 8 -59q0 -106 -70 -189t-180 -125.5t-237 -42.5q-25 0 -35 2 q-94 -7 -145 -46q-46 -36 -46 -90v-9q1 -12 6.5 -20.5t18 -13.5t25.5 -7.5t37 -3t42.5 0t51.5 1t57 0.5h293q77 0 136 -25.5t91.5 -66.5t48.5 -86.5t16 -91.5q0 -74 -42 -149.5t-114 -137.5t-161.5 -110.5t-190.5 -75.5q-97 -26 -188 -26h-7h-5q-166 0 -258 73 q-93 74 -93 188zM220 693q0 -348 243 -348q128 0 189 82t61 254q0 99 -25 176.5t-80.5 125.5t-134.5 48q-132 0 -192.5 -83t-60.5 -255z" />
<glyph unicode="h" horiz-adv-x="1523" d="M-8 -4v13q20 0 55 -1h13q92 0 108 28q18 30 17 206v1165q0 26 -17.5 37.5t-42 9.5t-49 -8t-42.5 -14l-17 -7l-6 7l363 146h25v-857q2 3 5 9t5 9q56 93 133 162t157 105q79 36 163 52q55 10 106 11q26 0 50 -3q72 -8 130 -34.5t91 -68.5q86 -110 86 -274v-11h1v-432 q0 -174 22 -204q21 -29 131 -29h7h15.5h15h17.5v-13h-621v13q20 0 54 -1h35.5t28 1t23.5 2.5t16.5 7t13 11t8.5 18t6.5 23.5t2.5 32t2 41v52v388q1 16 1 38t-1 50l-1 1v2q-4 90 -28 154q-22 58 -60 100.5t-88 66.5q-41 19 -89 19q-11 1 -23 -1q-62 -6 -128.5 -39.5 t-141.5 -111t-145 -191.5v-434q0 -55 1 -87t5 -62.5t11 -41.5t19 -25t30 -13t42.5 -4.5t57.5 0.5h48v-13h-621z" />
<glyph unicode="i" horiz-adv-x="614" d="M4 0v13q20 0 55 -1h13q92 0 108 28q18 30 17 206v635q0 27 -17.5 38.5t-42 9t-49 -9t-42.5 -13.5l-17 -8l-6 8l363 146h25v-806q0 -55 1 -87t5 -62.5t11 -41.5t19 -25t30 -13t42.5 -4.5t57.5 0.5h48v-13h-621zM116 1195l276 118l5 -12l-276 -117z" />
<glyph unicode="j" horiz-adv-x="391" d="M-389 -408l148 86q43 -59 109 -92q61 -29 116 -29q6 0 12 1q61 3 93 40q34 35 37 88v18q0 50 -12 134q-12 91 -12 159v10v25v849q0 27 -17.5 38.5t-42 9t-49 -9t-41.5 -13.5l-18 -8l-5 8l362 146h25v-974v-1q0 -35 -4 -64q-12 -98 -52 -200q-39 -98 -106 -182 q-1 -2 -3.5 -5t-4.5 -4l-2 -2q-1 -2 -2 -3q-5 -6 -15 -16q-16 -18 -50 -46q-2 -2 -7.5 -6t-6.5 -5q-84 -66 -169 -80q-27 -4 -52 -4q-54 0 -100 20q-67 30 -117 93q-7 8 -14 19z" />
<glyph unicode="k" horiz-adv-x="1273" d="M-8 0v13q20 0 55 -1h13q92 0 108 28q18 30 17 206v1165q0 27 -17.5 38.5t-42 9t-49 -8.5t-42.5 -14l-17 -7l-6 7l363 146h25v-1102l240 323l98 129q10 13 10 24q0 31 -78 50q-85 21 -239 21v19h770v-19q-28 -3 -55 -3q-23 0 -45 2q-19 2 -40 2q-30 0 -60 -4 q-52 -6 -101.5 -22.5t-108 -64t-118.5 -124.5l46 -72l3 -5l205 -341l13 -22l5 -8q19 -31 50 -82t44 -72t36.5 -56.5t36 -49t34 -35t38 -29t41 -17t50.5 -11.5t59 -2v-11h-283q-61 0 -92 21q-37 23 -81 84.5t-122 191.5l-27 47l-11 20l-162 281l-4 6l-152 -205v-200 q0 -55 1 -87t5 -62.5t11 -41.5t19 -25t30 -13t42.5 -4.5t57.5 0.5h48v-13h-621z" />
<glyph unicode="l" horiz-adv-x="602" d="M-8 0v13q20 0 55 -1h13q92 0 108 28q18 30 17 206v1166q0 27 -17.5 38.5t-42 9t-49 -9t-42.5 -14.5l-17 -7l-6 7l362 146h26v-1336q0 -55 1 -87t5 -62.5t11 -41.5t19 -25t30 -13t42.5 -4.5t57.5 0.5h48v-13h-621z" />
<glyph unicode="m" horiz-adv-x="2443" d="M4 1v14q20 0 55 -1h13q92 0 108 28q18 30 17 206v635q0 27 -17.5 38.5t-42 9t-49 -9t-42.5 -13.5l-17 -8l-6 7l363 146h25v-335l12 21q56 93 133 162t157 105q79 36 163 52q55 10 106 11q26 0 50 -3q72 -8 130 -34.5t91 -68.5q69 -87 83 -214q67 108 162 182.5t192 104.5 q96 30 190 32h14q84 0 152 -26q74 -28 113 -79q87 -111 87 -274v-11v-432q0 -174 22 -204q21 -29 131 -29h7h48v-13h-620v13q20 0 54 -1q25 0 35.5 -0.5t27.5 1t23 3t16.5 7.5t13.5 11t8.5 17.5t6 23.5t2.5 32.5t2 41v51.5v388q1 15 1 36.5t-1 50.5v4q-6 91 -29 154 q-25 68 -71.5 113.5t-111.5 59.5q-26 5 -53 5q-41 -1 -86 -13q-74 -20 -161.5 -93t-171.5 -193v-34h1v-432q0 -174 22 -204q21 -29 131 -29h7h15.5h15h17.5v-13h-671v13q20 0 54 -1h35.5t28 1t23.5 2.5t16.5 7t13 11t8.5 18t6.5 23.5t2.5 32t2 41v52v388q1 16 1 38t-1 50 l-1 1v2q-4 90 -28 154q-26 69 -74 113t-113 52q-16 2 -32 2q-51 0 -105 -20q-72 -26 -152 -105.5t-151 -202.5v-424q0 -55 1 -87t5 -62.5t11 -41.5t19 -25t30 -13t42.5 -4.5t57.5 0.5h48v-14h-621z" />
<glyph unicode="n" horiz-adv-x="1538" d="M4 1v14q20 0 55 -1h13q92 0 108 28q18 30 17 206v635q0 27 -17.5 38.5t-42 9t-49 -9t-42.5 -13.5l-17 -8l-6 7l363 146h25v-335l12 21q56 93 133 162t157 105q79 36 163 52q55 10 106 11q26 0 50 -3q72 -8 130 -34.5t91 -68.5q86 -110 86 -274v-11h1v-432q0 -174 22 -204 q21 -29 131 -29h7h15.5h15h17.5v-13h-621v13q20 0 54 -1q25 0 35.5 -0.5t27.5 1t23 3t16.5 7.5t13.5 11t8.5 17.5t6 23.5t2.5 32.5t2 41v51.5v388q1 16 1 38t-1 50v3q-4 87 -29 154q-12 40 -42 75.5t-73.5 59t-95.5 33.5q-22 4 -45 4q-33 0 -67 -8q-60 -14 -119 -48.5 t-120.5 -105.5t-113.5 -170v-425q0 -55 1 -87t5 -62.5t11 -41.5t19 -25t30 -13t42.5 -4.5t57.5 0.5h48v-14h-621z" />
<glyph unicode="o" d="M33 382q0 183 110 362q114 186 293 274q126 61 262 61q79 0 160 -20q112 -37 175 -122t73 -188q3 -27 3 -54q1 -79 -21 -165q-28 -116 -88 -214.5t-148 -174.5t-186 -101q-134 -35 -241 -35q-167 0 -270 85q-122 101 -122 292zM231 438q10 -130 43.5 -219t67.5 -127 q34 -40 86 -56q49 -16 70 -15h2q22 1 56 7q7 1 9 1h1q2 0 8 2h1q21 6 38 12.5t50.5 25.5t59 44t56.5 70.5t51 101.5t34 139.5t14 183.5q0 109 -18 193t-43 130t-58.5 76t-58.5 39.5t-49 11.5h-3l-17 1q-1 0 -4 -0.5t-4 -0.5q-4 0 -16 -2q-9 0 -24 -2t-58 -15.5t-81.5 -35.5 t-83.5 -69t-75.5 -109.5t-46.5 -162.5q-10 -63 -11 -134q0 -44 4 -90z" />
<glyph unicode="p" horiz-adv-x="1359" d="M-20 -516q20 0 55 -1h13q91 0 108 27q17 30 17 207v1165q0 26 -17.5 37.5t-42 9t-49 -8.5t-42.5 -13l-17 -7l-6 7l362 146h26v-477q51 138 127 239t157.5 153t168.5 76q63 16 120 16q23 0 46 -2q77 -10 140.5 -40t100.5 -78q62 -79 75 -186q4 -31 4 -61q0 -77 -24 -155 q-34 -109 -96 -209.5t-153 -177.5t-190 -111q-110 -38 -213 -43q-29 -1 -54 -1q-65 0 -106 9q-56 13 -103 35v-323q0 -56 1 -87.5t5 -62t11 -41.5t19 -25.5t29.5 -13t42 -4t57.5 0.5h48v-13h-620v13zM387 113q22 -18 48 -35t75 -36.5t100 -27.5q21 -3 46 -3q34 0 75 7 q70 10 139 44q85 41 142 115t81 157t29 174q2 27 2 53q0 60 -8 113q-12 77 -34 136q-16 42 -40 77.5t-56 61.5t-69 42q-36 16 -77 16q-1 0 -2 -1q-43 0 -87 -14t-91.5 -51t-93 -91.5t-92 -138.5t-87.5 -189v-409z" />
<glyph unicode="q" horiz-adv-x="1304" d="M40 418q15 94 56.5 191.5t101 179t137.5 145t160 91.5q95 32 183 41q44 5 80 5q38 0 68 -5q59 -10 104.5 -24.5t66.5 -28.5l21 -14l200 53l-2 -1410q0 -42 42 -46q8 -1 17 -1l67 13l42 17l5 -8l-362 -146h-25v1101q-44 -136 -111 -248q-67 -111 -157.5 -189.5 t-180.5 -113.5t-177 -41q-17 -2 -34 -2q-67 0 -122 21q-70 26 -109 76q-52 66 -69 157q-9 48 -9 98q0 43 7 88zM236 558q-2 -28 -2 -54q0 -60 8 -114q12 -76 34 -135q29 -78 84.5 -129t131.5 -58h20q67 0 138 36q81 42 171 164.5t166 314.5q0 352 2 354q-8 8 -24 21.5 t-67 42t-106 42.5q-37 9 -86 9q-24 0 -52 -2q-83 -7 -166 -47q-85 -41 -142 -115t-81 -157t-29 -173z" />
<glyph unicode="r" horiz-adv-x="944" d="M4 0v13q20 0 55 -1h13q92 0 108 28q18 30 17 206v635q0 27 -17.5 38.5t-42 9t-49 -9t-42.5 -13.5l-17 -8l-6 8l363 146h25v-146q73 82 151 123q75 40 140 40q2 -1 4 -1q68 -2 125.5 -30.5t100.5 -83.5q3 -4 8 -10t7 -10l-118 -151q-28 75 -66.5 125.5t-90.5 76.5 q-27 14 -58 14q-29 1 -61 -11q-68 -24 -142 -101v-641q0 -55 1 -87t5 -62.5t11 -41.5t19 -25t30 -13t42.5 -4.5t57.5 0.5h48v-13h-621z" />
<glyph unicode="s" horiz-adv-x="913" d="M58 722q-2 19 -2 38q0 86 52 154q64 84 184 123q94 31 205 31q30 0 62 -2q163 -12 245 -135l-5 -6l-113 -145q-5 79 -34.5 134.5t-67 80.5t-84.5 37q-43 11 -75 10h-5q-33 -1 -60 -7q-64 -7 -97 -44.5t-33 -94.5q0 -37 16 -68t41.5 -53t65 -42t78 -35t88.5 -33 q10 -3 15 -5q350 -115 350 -308q0 -86 -30 -153t-81 -107.5t-119 -65.5t-142 -32q-45 -4 -91 -4q-30 0 -60 2q-77 4 -147 19t-129 38l4 389h12q5 -85 31 -160.5t71 -137t115 -97.5t156 -37q107 0 167.5 51.5t60.5 140.5t-88 161.5t-217 116.5q-24 8 -61.5 19.5t-60 18 t-53 18.5t-49.5 22.5t-41 27.5t-35.5 36t-24 45.5t-14.5 58.5z" />
<glyph unicode="t" horiz-adv-x="782" d="M-41 1039v13h232v62q0 25 -17.5 36.5t-42 9t-49 -8.5t-42.5 -13l-17 -7l-6 7l387 146h26v-232h349v-13h-349v-560h-1v-223q0 -123 26.5 -168t105.5 -47h6q49 1 94 29q48 30 102 100l16 -13q-52 -75 -149.5 -127.5t-191.5 -52.5q-35 0 -66.5 6t-66 24.5t-59.5 46.5 q-24 28 -40 78q-15 47 -15 107v7v710v83h-232z" />
<glyph unicode="u" horiz-adv-x="1388" d="M-4 906l362 146h38l-2 -129h1q-1 -25 -1 -91v-374h-1q-1 -15 -1 -36.5t1 -50.5q0 -1 0.5 -2t0.5 -2q4 -90 28 -154q26 -69 70 -114t102 -55q17 -3 34 -3q43 0 89 18q65 26 139 106.5t143 208.5v424q0 59 -1 83q1 27 -16.5 38.5t-42 9t-49.5 -9t-42 -13.5l-18 -8l-6 8 l362 146h31l-3 -129q-1 -32 -1 -125v-634q-1 -43 41 -47q8 -1 16 -1l68 14l43 17l6 -8l-359 -146h-29v336q-2 -3 -6 -10.5t-6 -11.5q-68 -112 -147 -188t-156 -109q-76 -33 -154 -35h-11q-71 0 -135 26q-68 28 -127 82q-86 110 -86 274v11h-1v432v81q0 42 -42 46q-8 1 -16 1 l-68 -14l-42 -16z" />
<glyph unicode="v" horiz-adv-x="1187" d="M-12 1017v18l577 -2v-16q-100 0 -118 -3q-71 -11 -73 -70q0 -38 23 -97l268 -640l239 563q21 50 29.5 87t8.5 63.5t-14 44.5t-31.5 28t-51.5 15.5t-65 7t-81 1.5v18h500v-18q-62 0 -99 -9t-68 -44.5t-46 -64.5t-50 -112q-3 -5 -4 -8t-3 -8t-4 -9l-328 -765q-3 -7 -12 -7 h-23q-7 0 -12 7l-351 802q-11 28 -29 73t-24.5 62.5t-20.5 39.5t-17.5 26.5t-22.5 11t-28 6t-41 -0.5h-28z" />
<glyph unicode="w" horiz-adv-x="1843" d="M-12 1017v18l577 -2v-16q-100 0 -118 -3q-71 -11 -73 -70q0 -38 23 -97l268 -640l221 519l-33 75q-9 23 -20.5 51.5t-17.5 43.5t-14 34t-12.5 28t-11 20.5t-11 16.5t-11 10t-13 7.5t-15.5 3.5q-16 2 -28 2h-58v19l505 -2h53h19v-17q-3 0 -9.5 0.5t-9.5 0.5q-29 1 -57.5 0 t-51.5 -5t-39 -17t-21 -35q-2 -10 -2 -22q0 -36 22 -92l269 -639l239 563q18 43 27.5 77t9.5 59.5t-5 43.5t-22.5 30t-35 19.5t-49 11t-59.5 4.5t-72 1v19h500v-19q-62 0 -99 -9t-68 -44.5t-46 -64.5t-50 -112q-3 -5 -4 -8t-3 -8t-4 -9l-327 -765q-3 -6 -13 -6h-22 q-9 0 -13 6l-305 700l-301 -701q-3 -6 -12 -6h-23q-8 0 -12 6l-350 802q-11 27 -28 70q-45 113 -64 131q-18 18 -85 17h-7h-28z" />
<glyph unicode="x" horiz-adv-x="1363" d="M-4 -1v18q115 0 153 10q60 17 125 90q42 46 122 155l185 241l-172 240q-39 56 -60.5 87t-49 63.5t-40.5 47.5t-39 30.5t-38.5 20t-44.5 9.5t-53 5.5t-68 0.5l-1 18h654v-18h-62.5t-51.5 -2.5t-39 -7.5t-25 -15t-9 -25.5t9 -38.5t28.5 -54.5t50.5 -72.5l127 -173l106 146 q96 132 100 184q2 16 1 27.5t-19 18.5t-62.5 10t-129.5 3v18h546v-18q-128 0 -155 -4q-65 -11 -121 -67q-48 -48 -144 -184l-112 -150l316 -396q41 -54 66 -84.5t53 -55.5t43 -35t46 -16.5t51.5 -7.5t70.5 0h14v-18h-697v18q11 0 33.5 -0.5t36.5 -1t34.5 1t33 4t27 8.5 t20 14.5t8.5 22.5t-3 32t-19.5 43t-35.5 55l-214 298l-182 -238q-79 -105 -79 -158q0 -14 2 -22t14 -21t34 -21q22 -6 66 -12q38 -5 89 -5h19v-18h-558z" />
<glyph unicode="y" horiz-adv-x="1345" d="M-12 1017v18h664v-18q-26 -2 -53 -0.5t-53.5 0t-47.5 -5.5t-34.5 -16t-14.5 -32q-1 -26 8.5 -58t38.5 -98l260 -578l238 539q24 63 34 104q6 24 6 43q0 15 -3 27q-8 29 -19 43.5t-53 22t-75.5 8.5t-107.5 1v18h581v-18q-60 0 -98 -5.5t-74 -20t-62.5 -44.5t-53.5 -75.5 t-57 -116.5l-354 -796q-83 -188 -184.5 -276t-248.5 -88q-42 0 -66 5v151q96 -73 188 -73q79 0 150.5 66t139.5 220l23 51l-330 730q-92 198 -133.5 233.5t-175.5 37.5q-21 1 -33 1z" />
<glyph unicode="z" horiz-adv-x="1054" d="M26 17l755 995h-347q-94 0 -157 -20t-101 -64t-55.5 -106t-21.5 -154l-7 -128h-18l6 128l17 369h902q9 0 13.5 -5t2 -15t-13.5 -23l-730 -970q48 0 139 -2t141 -2q174 0 259 87t101 282l11 143l18 -2l-10 -144l-31 -386l-852 -1q-10 0 -17.5 5.5t-3.5 12.5z" />
<glyph unicode="{" horiz-adv-x="352" d="M33 626v63q39 0 66 11q30 12 51 33t33 50q11 26 11 62q0 60 -10 111q-2 12 -6 34t-7.5 40t-7.5 34t-7.5 34t-7.5 40t-6 34q-10 51 -10 112q0 62 20 117q19 53 57 94q36 39 91 62q53 22 123 22h57v-43q0 -12 -9 -18t-17 -6h-34q-45 0 -81 -15q-34 -14 -63 -45 q-27 -29 -42 -70q-15 -42 -15 -92q0 -60 9 -115q10 -61 21 -111q12 -54 21 -108t9 -110q0 -40 -13 -70q-14 -34 -34 -56q-19 -22 -49 -40q-24 -15 -57 -23q31 -6 57 -22q28 -17 49 -41q20 -22 34 -56q13 -30 13 -69q0 -56 -9 -110q-9 -52 -21 -109q-12 -56 -21 -111t-9 -114 q0 -50 15 -92q15 -41 42 -70q29 -31 63 -45q36 -15 81 -15h34q8 0 17 -6t9 -18v-43h-57q-70 0 -123 22q-55 23 -91 62q-38 41 -57 94q-20 55 -20 117q0 61 10 112l21 108q4 16 7.5 34t7.5 40t6 34q10 51 10 111q0 36 -11 62q-12 29 -33 50t-51 33q-27 11 -66 11z" />
<glyph unicode="|" horiz-adv-x="243" d="M82 -356v1935h78v-1935h-78z" />
<glyph unicode="}" horiz-adv-x="352" d="M-129 -221q0 13 8 18q9 6 18 6h34q44 0 81 15q34 14 63 45q27 29 42 70q15 42 15 92q0 59 -9 114t-21 111q-12 57 -21 109q-9 54 -9 110q0 37 12 69q12 30 34 56q21 24 49 41q26 16 57 22q-33 8 -57 23q-30 18 -49 40q-22 26 -34 56q-12 32 -12 70q0 56 9 110t21 108 q11 50 21 111q9 55 9 115q0 50 -15 92q-15 41 -42 70q-29 31 -63 45q-36 15 -81 15h-34q-9 0 -18 6q-8 5 -8 18v43h57q70 0 123 -22q55 -23 91 -62q38 -41 57 -94q20 -55 20 -117q0 -61 -10 -112l-21 -108q-4 -16 -7.5 -34t-7.5 -40t-6 -34q-10 -51 -10 -111q0 -36 11 -62 q12 -29 33 -50q22 -22 50 -33q27 -11 66 -11v-63q-39 0 -66 -11q-28 -11 -50 -33q-21 -21 -33 -50q-11 -26 -11 -62q0 -60 10 -111q2 -12 6 -34t7.5 -40t7.5 -34t7.5 -34t7.5 -40t6 -34q10 -51 10 -112q0 -62 -20 -117q-19 -53 -57 -94q-36 -39 -91 -62q-53 -22 -123 -22 h-57v43z" />
<glyph unicode="~" horiz-adv-x="925" d="M25 492q22 57 53.5 98t64 61.5t66.5 32t64 12t54 -2t37 -6.5l14 -4l221 -85q25 -10 65.5 -12t85 5t83.5 31.5t56 62.5l12 -4q-22 -57 -53.5 -98.5t-64 -62t-66.5 -32t-64 -11.5t-54 2.5t-37 6.5l-14 4l-217 85q-38 14 -93 15t-116 -24t-86 -78z" />
<glyph unicode="&#xa3;" horiz-adv-x="1318" d="M14 178.5q-1 20.5 4 44.5t15.5 47.5t29.5 45.5t44 39.5t61 28t78.5 13t99 -6.5t120.5 -31q77 -30 91 -40q3 58 -21 120t-75 143q-10 16 -52 80.5t-61 95.5h-195v31h180q-52 112 -72 212.5t-10 177.5t40.5 142t78.5 108t105.5 72.5t119.5 39.5t123 4t114 -29 q34 -14 69 -36l-24 -21q-26 20 -55 30q-67 20 -127.5 20.5t-108 -19.5t-81 -58t-45.5 -99t-2.5 -138.5t49 -182t108.5 -223.5h372v-31h-354l62 -85q42 -68 55.5 -141.5t2 -138.5t-42.5 -125q16 -11 59 -29t78 -30l35 -12q73 -22 137.5 -18t110.5 34t54 75l31 -6 q1 -64 -20 -116t-49.5 -82t-62 -50.5t-54.5 -28t-31 -8.5q-82 -10 -175 25.5t-212 110.5q-67 -81 -157.5 -112t-215.5 -31q-16 0 -38 4t-60 17t-71 47t-49 83q-5 17 -6 37.5zM53 150q10 -36 30.5 -62t41 -38.5t46 -19.5t39 -8t26.5 -1q205 0 296 162q-123 77 -197 107 q-100 40 -166 21.5t-97.5 -66t-18.5 -95.5z" />
<glyph unicode="&#xad;" horiz-adv-x="0" />
<glyph unicode="&#xc0;" horiz-adv-x="1681" d="M-27 2v13h9q81 1 121.5 9.5t63.5 28t49 65.5q73 126 137 284l423 1037q3 6 15 6h116q16 0 19 -6l315 -752l64 -153l46 -109q50 -119 81 -185.5t57.5 -116.5t49.5 -70.5t44 -28.5t54 -8h68v-14h-691v13h164q41 0 56.5 16t7.5 70t-48 159q-12 34 -67 165l-40 91l-8 21 q-30 66 -85.5 115t-130.5 67.5t-155 0.5t-166.5 -97t-156.5 -214l-7 -17q-66 -161 -76 -256v-2v-31q9 -89 126 -89q13 0 87.5 0.5t76.5 0.5v-13h-619zM437 538q115 162 259.5 225.5t271.5 35.5l-217 515zM598 1828l122 29l361 -332h-15z" />
<glyph unicode="&#xc1;" horiz-adv-x="1681" d="M-27 2v13h9q81 1 121.5 9.5t63.5 28t49 65.5q73 126 137 284l423 1036q3 6 15 6h116q16 0 19 -6l315 -752l64 -153l46 -108q50 -119 81 -185.5t57.5 -117t49 -70.5t44 -28.5t54.5 -8.5h68v-13h-691v13h164q41 0 56.5 16t7.5 69.5t-48 158.5q-12 34 -67 165l-40 92l-8 20 q-30 66 -85.5 115t-130.5 67.5t-155 0.5t-166.5 -97t-156.5 -214l-7 -17q-66 -161 -76 -256v-1v-32q9 -88 126 -88q13 0 87.5 0.5t76.5 0.5v-13h-619zM438 537q115 162 259 226t271 36l-217 515zM614 1525l360 332l123 -29l-469 -303h-14z" />
<glyph unicode="&#xc2;" horiz-adv-x="1681" d="M-27 2v13h9q81 1 121.5 9.5t63.5 28t49 65.5q73 126 137 284l423 1036q3 6 15 6h116q16 0 19 -6l315 -752l64 -153l46 -108q50 -119 81 -185.5t57.5 -117t49 -70.5t44 -28.5t54.5 -8.5h68v-13h-691v13h164q41 0 56.5 16t7.5 69.5t-48 158.5q-12 34 -67 165l-40 92l-8 20 q-30 66 -85.5 115t-130.5 67.5t-155 0.5t-166.5 -97t-156.5 -214l-7 -17q-66 -161 -76 -256v-1v-32q9 -88 126 -88q13 0 87.5 0.5t76.5 0.5v-13h-619zM438 537q115 162 259 226t271 36l-217 515zM570 1525l269 390l270 -390h-23l-247 264l-246 -264h-23z" />
<glyph unicode="&#xc3;" horiz-adv-x="1681" d="M-27 2v13h9q81 1 121.5 9.5t63.5 28t49 65.5q73 126 137 284l423 1037q3 6 15 6h116q16 0 19 -6l315 -752l64 -153l46 -109q50 -119 81 -185.5t57.5 -116.5t49.5 -70.5t44 -28.5t54 -8l68 -1v-13h-691v13h164q41 0 56.5 16t7.5 70t-48 159q-12 34 -67 165l-40 91l-8 21 q-30 66 -85.5 115t-130.5 67.5t-155 0.5t-166.5 -97t-156.5 -214l-7 -17q-66 -161 -76 -256v-2v-31q9 -89 126 -89q13 0 87.5 0.5t76.5 0.5v-13h-619zM361 1629q29 76 76.5 121.5t95.5 57.5t92 12.5t71 -7.5l28 -8l228 -89q25 -11 68 -13.5t89.5 4.5t88 32.5t58.5 65.5l9 -2 q-29 -77 -77.5 -123t-96.5 -57.5t-92 -12t-71 7.5l-28 9l-226 89q-28 10 -68.5 14t-87 -1.5t-89 -31.5t-62.5 -70zM437 538q115 162 259.5 225.5t271.5 35.5l-217 515z" />
<glyph unicode="&#xc4;" horiz-adv-x="1681" d="M-27 2v13h9q81 1 121.5 9.5t63.5 28t49 65.5q73 126 137 284l423 1037q3 6 15 6h116q16 0 19 -6l315 -752l64 -153l46 -109q50 -119 81 -185.5t57.5 -116.5t49.5 -70.5t44 -28.5t54 -8h68v-14h-691v13h164q41 0 56.5 16t7.5 70t-48 159q-12 34 -67 165l-40 91l-8 21 q-30 66 -85.5 115t-130.5 67.5t-155 0.5t-166.5 -97t-156.5 -214l-7 -17q-66 -161 -76 -256v-2v-31q9 -89 126 -89q13 0 87.5 0.5t76.5 0.5v-13h-619zM438 538q115 162 259 225.5t271 35.5l-217 515zM627 1704q0 31 19.5 51.5t48.5 20.5q28 0 49.5 -21t21.5 -51 q0 -28 -21.5 -48.5t-49.5 -20.5q-29 0 -48.5 20.5t-19.5 48.5zM898 1704q0 31 20 51.5t49 20.5q28 0 49 -21t21 -51q0 -28 -21 -48.5t-49 -20.5q-29 0 -49 20.5t-20 48.5z" />
<glyph unicode="&#xc5;" horiz-adv-x="1681" d="M-27 2v13h9q81 1 121.5 9.5t63.5 28t49 65.5q73 126 137 284l423 1036q3 6 15 6h116q16 0 19 -6l315 -752l64 -153l46 -108q50 -119 81 -185.5t57.5 -117t49 -70.5t44 -28.5t54.5 -8.5h68v-13h-691v13h164q41 0 56.5 16t7.5 69.5t-48 158.5q-12 34 -67 165l-40 92l-8 20 q-30 66 -85.5 115t-130.5 67.5t-155 0.5t-166.5 -97t-156.5 -214l-7 -17q-66 -161 -76 -256v-1v-32q9 -88 126 -88q13 0 87.5 0.5t76.5 0.5v-13h-619zM437 537q115 162 259.5 226t271.5 36l-217 515zM696 1826q0 61 41.5 103t101.5 42q59 0 101 -42.5t42 -102.5 q0 -59 -42 -101t-101 -42q-60 0 -101.5 41.5t-41.5 101.5zM721 1826q0 -50 34.5 -84t83.5 -34t83.5 34.5t34.5 83.5q0 50 -34.5 85t-83.5 35t-83.5 -35t-34.5 -85z" />
<glyph unicode="&#xc6;" horiz-adv-x="1837" d="M-27 2v13h9q81 0 122 9t63.5 28.5t48.5 65.5q73 126 137 284l413 1011q-11 4 -29 5.5t-31.5 1.5t-46 -0.5t-50.5 -0.5v14h1120q8 0 14.5 -6.5t6.5 -14.5v-512h-24q0 11 -1.5 29.5t-8 72t-16.5 102.5t-31 108.5t-47.5 102.5t-69 72.5t-93.5 29.5l-243 2h-44 q-41 0 -57.5 0.5t-37 -9.5t-25 -18t-10.5 -42.5t-6 -63.5v-100v-11l-3 -371l177 -4q155 2 233 70t78 206h14v-630h-14q0 137 -65 199t-227 72q-54 3 -57 3l-139 1l-1 -109l-3 -412q1 -74 4.5 -109t27.5 -54t45.5 -21t88.5 -1h47l258 3q71 0 124.5 53t79.5 129t41.5 152 t18.5 129l3 53h23v-512q0 -8 -6 -14t-14 -6h-1148v13q20 0 53 -1q82 -1 103 9q28 15 34 77q3 34 3 148l4 480q-113 12 -227 -63.5t-207 -255.5l-7 -17q-66 -161 -76 -256v-2v-31q9 -89 126 -89q13 0 87.5 0.5t76.5 0.5v-13h-619zM437 538q82 116 182 181.5t201 82.5l2 344 l1 40q0 109 -7 154.5t-30 62.5z" />
<glyph unicode="&#xc7;" horiz-adv-x="1406" d="M29 717q0 163 62.5 302.5t170.5 234.5t255 149t312 54q126 0 276 -27t234 -64v-446h-19q-9 99 -59 208t-109 176q-62 70 -131.5 101t-193.5 31q-282 0 -422 -189t-140 -530q0 -342 136 -530.5t418 -188.5q127 0 198.5 34t136.5 109q58 66 108.5 179.5t61.5 212.5h17v-463 q-87 -39 -231.5 -66t-284.5 -27h-13l-42 -113q145 32 220 -23.5t64 -148.5q-6 -45 -24.5 -78.5t-40.5 -51t-52 -27.5t-52.5 -12.5t-50.5 -2.5q-48 -1 -86 14l11 7q33 -15 75 -14q65 0 108.5 36.5t43.5 106.5q0 25 -6 49.5t-22.5 51.5t-44.5 42t-71.5 21t-104.5 -12l53 156 q-162 6 -302.5 62.5t-241.5 152t-159 231t-58 293.5z" />
<glyph unicode="&#xc8;" horiz-adv-x="1222" d="M-4 1419v14h1120q8 0 14.5 -6.5t6.5 -14.5v-512h-23q0 11 -1.5 29.5t-8 72t-16.5 102.5t-31 108.5t-47.5 102.5t-69 72.5t-93.5 29.5l-244 2h-44q-41 0 -57.5 0.5t-36.5 -9.5t-24.5 -17.5t-10.5 -43t-6 -63.5v-100l-4 -428l179 -5q150 1 230 90t80 233h13v-630h-13 q0 149 -83 221t-276 72l-130 1l-4 -540q1 -42 3 -69t6.5 -50t12.5 -33.5t20 -19.5t29.5 -10t41 -3.5t54.5 0.5h47l257 2q71 0 124.5 53.5t79.5 129.5t41.5 152t18.5 130l3 53h24v-513q0 -8 -6.5 -14t-14.5 -6h-1148v13q20 0 55 -1q103 -2 120.5 27.5t17.5 206.5l8 938 q0 55 -1 87t-5 62.5t-11 41.5t-19 25t-30 13t-42.5 4.5t-57.5 -0.5h-48zM383 1828l122 29l361 -332h-14z" />
<glyph unicode="&#xc9;" horiz-adv-x="1222" d="M-4 1419v14h1120q8 0 14.5 -6.5t6.5 -14.5v-512h-23q0 11 -1.5 29.5t-8 72t-16.5 102.5t-31 108.5t-47.5 102.5t-69 72.5t-93.5 29.5l-244 2h-44q-41 0 -57.5 0.5t-36.5 -9.5t-24.5 -17.5t-10.5 -43t-6 -63.5v-100l-4 -428l179 -5q150 1 230 90t80 233h13v-630h-13 q0 149 -83 221t-276 72l-130 1l-4 -540q1 -42 3 -69t6.5 -50t12.5 -33.5t20 -19.5t29.5 -10t41 -3.5t54.5 0.5h47l258 2q71 0 124.5 53.5t79.5 129.5t41 152t18 130l3 53h24v-513q0 -8 -6.5 -14t-14.5 -6h-1148v13q20 0 55 -1q103 -2 120.5 27.5t17.5 206.5l8 938 q0 55 -1 87t-5 62.5t-11 41.5t-19 25t-30 13t-42.5 4.5t-57.5 -0.5h-48zM382 1525l361 332l122 -29l-468 -303h-15z" />
<glyph unicode="&#xca;" horiz-adv-x="1222" d="M-4 1419v14h1120q8 0 14.5 -6.5t6.5 -14.5v-512h-23q0 11 -1.5 29.5t-8 72t-16.5 102.5t-31 108.5t-47.5 102.5t-69 72.5t-93.5 29.5l-244 2h-44q-41 0 -57.5 0.5t-36.5 -9.5t-24.5 -17.5t-10.5 -43t-6 -63.5v-100l-4 -428l179 -5q150 1 230 90t80 233h13v-630h-13 q0 149 -83 221t-276 72l-130 1l-4 -540q1 -42 3 -69t6.5 -50t12.5 -33.5t20 -19.5t29.5 -10t41 -3.5t54.5 0.5h47l258 2q71 0 124.5 53.5t79.5 129.5t41 152t18 130l3 53h24v-513q0 -8 -6.5 -14t-14.5 -6h-1148v13q20 0 55 -1q103 -2 120.5 27.5t17.5 206.5l8 938 q0 55 -1 87t-5 62.5t-11 41.5t-19 25t-30 13t-42.5 4.5t-57.5 -0.5h-48zM355 1525l269 390l270 -390h-23l-247 264l-246 -264h-23z" />
<glyph unicode="&#xcb;" horiz-adv-x="1222" d="M-4 1419v14h1120q8 0 14.5 -6.5t6.5 -14.5v-512h-23q0 11 -1.5 29.5t-8 72t-16.5 102.5t-31 108.5t-47.5 102.5t-69 72.5t-93.5 29.5l-244 2h-44q-41 0 -57.5 0.5t-36.5 -9.5t-24.5 -17.5t-10.5 -43t-6 -63.5v-100l-4 -428l179 -5q150 1 230 90t80 233h13v-630h-13 q0 149 -83 221t-276 72l-130 1l-4 -540q1 -42 3 -69t6.5 -50t12.5 -33.5t20 -19.5t29.5 -10t41 -3.5t54.5 0.5h47l258 2q71 0 124.5 53.5t79.5 129.5t41 152t18 130l3 53h24v-513q0 -8 -6.5 -14t-14.5 -6h-1148v13q20 0 55 -1q103 -2 120.5 27.5t17.5 206.5l8 938 q0 55 -1 87t-5 62.5t-11 41.5t-19 25t-30 13t-42.5 4.5t-57.5 -0.5h-48zM441 1704q0 31 19.5 51.5t48.5 20.5q28 0 49.5 -21t21.5 -51q0 -28 -21.5 -48.5t-49.5 -20.5q-29 0 -48.5 20.5t-19.5 48.5zM713 1704q0 31 19.5 51.5t48.5 20.5q28 0 49 -21t21 -51q0 -28 -21 -48.5 t-49 -20.5q-29 0 -48.5 20.5t-19.5 48.5z" />
<glyph unicode="&#xcc;" horiz-adv-x="626" d="M-4 1418v13h621v-13q-20 0 -55 1q-103 2 -120.5 -27.5t-17.5 -206.5l-8 -987q1 -42 3 -69t6.5 -50t12.5 -33.5t20 -19.5t29.5 -10t41 -3.5t54.5 0.5h47v-13h-621v13q20 0 53 -1q82 -1 103 9q28 15 34 77q3 35 3 149l8 938q0 55 -1 87t-5 62.5t-11 41.5t-19 25t-30 13 t-42.5 4.5t-57.5 -0.5h-48zM70 1828l123 29l360 -332h-14z" />
<glyph unicode="&#xcd;" horiz-adv-x="626" d="M-4 1419v14h621v-14q-20 0 -55 1q-103 2 -120.5 -27.5t-17.5 -206.5l-8 -986q1 -42 3 -69t6.5 -50t12.5 -33.5t20 -19.5t29.5 -10t41 -3.5t54.5 0.5h47v-13h-621v13q20 0 55 -1q103 -2 120.5 27.5t17.5 206.5l8 938q0 55 -1 87t-5 62.5t-11 41.5t-19 25t-30 13t-42.5 4.5 t-57.5 -0.5h-48zM62 1525l361 332l122 -29l-468 -303h-15z" />
<glyph unicode="&#xce;" horiz-adv-x="624" d="M-6 1419v14h621v-14q-20 0 -55 1q-103 2 -120.5 -27.5t-17.5 -206.5l-8 -986q1 -42 3 -69t6.5 -50t12.5 -33.5t20 -19.5t29.5 -10t41 -3.5t54.5 0.5h47v-13h-621v13q20 0 55 -1q103 -2 120.5 27.5t17.5 206.5l8 938q0 55 -1 87t-5 62.5t-11 41.5t-19 25t-30 13t-42.5 4.5 t-57.5 -0.5h-48zM41 1525l270 390l269 -390h-23l-246 264l-247 -264h-23z" />
<glyph unicode="&#xcf;" horiz-adv-x="626" d="M-4 1419v14h621v-14q-20 0 -55 1q-103 2 -120.5 -27.5t-17.5 -206.5l-8 -986q1 -42 3 -69t6.5 -50t12.5 -33.5t20 -19.5t29.5 -10t41 -3.5t54.5 0.5h47v-13h-621v13q20 0 55 -1q103 -2 120.5 27.5t17.5 206.5l8 938q0 55 -1 87t-5 62.5t-11 41.5t-19 25t-30 13t-42.5 4.5 t-57.5 -0.5h-48zM121 1704q0 31 19.5 51.5t48.5 20.5q28 0 49.5 -21t21.5 -51q0 -28 -21.5 -48.5t-49.5 -20.5q-29 0 -48.5 20.5t-19.5 48.5zM392 1704q0 31 20 51.5t49 20.5q28 0 49 -21t21 -51q0 -28 -21 -48.5t-49 -20.5q-29 0 -49 20.5t-20 48.5z" />
<glyph unicode="&#xd1;" horiz-adv-x="1660" d="M-4 2v13q149 0 221 82.5t72 275.5l8 813q0 13 -0.5 36t-0.5 32q0 4 -0.5 10.5t-0.5 9.5q0 15 -2 37q-6 73 -32 91.5t-105 17.5h-2h-23q-7 0 -23 -0.5t-25 -0.5v14h387l5 -10q21 -36 75 -99l793 -997v21l8 761q-2 151 -86.5 230.5t-227.5 79.5v14h630v-14 q-149 0 -221 -82.5t-72 -275.5l-7 -1009v-50h-28q-10 6 -25 26q0 1 -4 5.5t-6 7.5l-983 1257v-9q-1 -28 -1 -103l-7 -861q1 -151 85.5 -230.5t227.5 -79.5v-13h-630zM367 1629q29 76 76.5 121.5t95.5 57.5t92 12.5t71 -7.5l28 -8l228 -89q25 -11 68 -13.5t90 4.5t88.5 32.5 t58.5 65.5l8 -2q-29 -77 -77.5 -123t-96.5 -57.5t-92 -12t-71 7.5l-28 9l-226 89q-28 10 -68.5 14t-87 -1.5t-89 -31.5t-62.5 -70z" />
<glyph unicode="&#xd2;" horiz-adv-x="1525" d="M29 721q0 211 101.5 382t269.5 264.5t365 93.5q151 0 285.5 -56t232 -153.5t154.5 -235.5t57 -295q0 -155 -61.5 -294t-163 -235.5t-236 -152.5t-277.5 -56q-149 0 -283 56t-231.5 153t-155 235t-57.5 294zM265 721q0 -164 26.5 -292t83 -225t151 -148.5t222.5 -51.5 q129 0 227.5 52t160.5 147.5t93 226t31 291.5q0 166 -25.5 293.5t-81.5 225t-151.5 149t-228.5 51.5q-130 0 -228 -52t-159 -148t-91 -226t-30 -293zM520 1828l122 29l361 -332h-14z" />
<glyph unicode="&#xd3;" horiz-adv-x="1525" d="M29 721q0 211 101.5 382t269.5 264.5t365 93.5q151 0 285.5 -56t232 -153.5t154.5 -235.5t57 -295q0 -155 -61.5 -294t-163 -235.5t-236 -152.5t-277.5 -56q-149 0 -283 56t-231.5 153t-155 235t-57.5 294zM265 721q0 -164 26.5 -292t83 -225t151 -148.5t222.5 -51.5 q129 0 227.5 52t160.5 147.5t93 226t31 291.5q0 166 -25.5 293.5t-81.5 225t-151.5 149t-228.5 51.5q-130 0 -228.5 -52t-159 -148t-90.5 -226t-30 -293zM540 1525l360 332l123 -29l-469 -303h-14z" />
<glyph unicode="&#xd4;" horiz-adv-x="1525" d="M29 721q0 211 101.5 382t269.5 264.5t365 93.5q151 0 285.5 -56t232 -153.5t154.5 -235.5t57 -295q0 -155 -61.5 -294t-163 -235.5t-236 -152.5t-277.5 -56q-149 0 -283 56t-231.5 153t-155 235t-57.5 294zM265 721q0 -164 26.5 -292t83 -225t151 -148.5t222.5 -51.5 q129 0 227.5 52t160.5 147.5t93 226t31 291.5q0 166 -25.5 293.5t-81.5 225t-151.5 149t-228.5 51.5q-130 0 -228 -52t-159 -148t-91 -226t-30 -293zM475 1525l269 390l270 -390h-23l-247 264l-247 -264h-22z" />
<glyph unicode="&#xd5;" horiz-adv-x="1525" d="M29 721q0 211 101.5 382t269.5 264.5t365 93.5q151 0 285.5 -56t232 -153.5t154.5 -235.5t57 -295q0 -155 -61.5 -294t-163 -235.5t-236 -152.5t-277.5 -56q-149 0 -283 56t-231.5 153t-155 235t-57.5 294zM265 721q0 -164 26.5 -292t83 -225t151 -148.5t222.5 -51.5 q129 0 227.5 52t160.5 147.5t93 226t31 291.5q0 166 -25.5 293.5t-81.5 225t-151.5 149t-228.5 51.5q-130 0 -228.5 -52t-159 -148t-90.5 -226t-30 -293zM309 1629q29 76 76.5 121.5t95.5 57.5t91.5 12.5t71.5 -7.5l27 -8l228 -89q25 -11 68 -13.5t90 4.5t88.5 32.5 t58.5 65.5l8 -2q-29 -77 -77.5 -123t-96.5 -57.5t-91.5 -12t-70.5 7.5l-28 9l-226 89q-28 10 -68.5 14t-87 -1.5t-89 -31.5t-62.5 -70z" />
<glyph unicode="&#xd6;" horiz-adv-x="1525" d="M29 721q0 211 101.5 382t269.5 264.5t365 93.5q151 0 285.5 -56t232 -153.5t154.5 -235.5t57 -295q0 -155 -61.5 -294t-163 -235.5t-236 -152.5t-277.5 -56q-149 0 -283 56t-231.5 153t-155 235t-57.5 294zM265 721q0 -164 26.5 -292t83 -225t151 -148.5t222.5 -51.5 q129 0 227.5 52t160.5 147.5t93 226t31 291.5q0 166 -25.5 293.5t-81.5 225t-151.5 149t-228.5 51.5q-130 0 -228 -52t-159 -148t-91 -226t-30 -293zM559 1704q0 31 20 51.5t49 20.5q28 0 49 -21t21 -51q0 -28 -21 -48.5t-49 -20.5q-29 0 -49 20.5t-20 48.5zM831 1704 q0 31 19.5 51.5t48.5 20.5q28 0 49.5 -21t21.5 -51q0 -28 -21.5 -48.5t-49.5 -20.5q-29 0 -48.5 20.5t-19.5 48.5z" />
<glyph unicode="&#xd8;" horiz-adv-x="1525" d="M29 721q0 211 101.5 382t269.5 264.5t365 93.5q214 0 388 -107l117 192l21 -13l-117 -193q149 -99 234.5 -260.5t85.5 -358.5q0 -155 -61.5 -294t-163 -235.5t-236 -152.5t-277.5 -56q-189 0 -353 89l-88 -143l-21 13l87 143q-162 96 -257 263t-95 373zM265 721 q0 -397 152 -576l699 1148q-120 147 -343 147q-130 0 -228 -52t-159 -148t-91 -226t-30 -293zM435 125q116 -121 313 -121q129 0 227.5 52t160.5 147.5t93 226t31 291.5q0 372 -128 551z" />
<glyph unicode="&#xd9;" horiz-adv-x="1468" d="M-20 1422v18h706v-18h-138q-23 0 -34.5 -1t-26 -7t-20.5 -15t-14 -31t-10 -48.5t-5 -72.5t-3.5 -98.5t-0.5 -131.5v-404q0 -118 8 -201.5t31 -158t63 -119t104.5 -70t154.5 -25.5q195 0 305.5 145t110.5 388v456q4 149 -2.5 228.5t-38 117t-61.5 43t-107 5.5h-7.5h-7 h-8.5h-118v18h629v-18h-115q-30 0 -45 -2.5t-33.5 -14t-26.5 -35.5t-16.5 -68t-11 -110.5t-2.5 -163.5v-456q0 -129 -33 -236t-96.5 -186t-162 -123t-224.5 -44q-241 0 -373.5 148.5t-132.5 425.5v460q0 281 -16 344q-12 49 -46 57q-14 4 -48 4h-128zM491 1828l122 29 l361 -332h-14z" />
<glyph unicode="&#xda;" horiz-adv-x="1468" d="M-20 1425v19h706v-19h-138q-23 0 -34.5 -1t-26 -7t-20.5 -15t-14 -31t-10 -48t-5 -72.5t-3.5 -98.5t-0.5 -131v-404q0 -118 8 -201.5t31 -158.5t63 -119.5t104.5 -70t154.5 -25.5q195 0 305.5 145t110.5 388v456q4 149 -2.5 228.5t-38 117t-61.5 43t-107 5.5h-7.5h-7 h-8.5h-118v19h629v-19h-115q-30 0 -45 -2.5t-33.5 -14t-26.5 -35.5t-16.5 -68t-11 -110.5t-2.5 -163.5v-456q0 -129 -33 -236t-96.5 -186t-162 -123t-224.5 -44q-241 0 -373.5 149t-132.5 426v460q0 281 -16 343q-11 48 -44 57q-15 4 -50 4h-128zM532 1525l361 332l122 -29 l-468 -303h-15z" />
<glyph unicode="&#xdb;" horiz-adv-x="1468" d="M-20 1425v19h706v-19h-138q-23 0 -34.5 -1t-26 -7t-20.5 -15t-14 -31t-10 -48t-5 -72.5t-3.5 -98.5t-0.5 -131v-404q0 -118 8 -201.5t31 -158.5t63 -119.5t104.5 -70t154.5 -25.5q195 0 305.5 145t110.5 388v456q4 149 -2.5 228.5t-38 117t-61.5 43t-107 5.5h-7.5h-7 h-8.5h-118v19h629v-19h-115q-30 0 -45 -2.5t-33.5 -14t-26.5 -35.5t-16.5 -68t-11 -110.5t-2.5 -163.5v-456q0 -129 -33 -236t-96.5 -186t-162 -123t-224.5 -44q-241 0 -373.5 149t-132.5 426v460q0 281 -16 343q-11 48 -44 57q-15 4 -50 4h-128zM492 1525l270 390l269 -390 h-23l-246 264l-247 -264h-23z" />
<glyph unicode="&#xdc;" horiz-adv-x="1468" d="M-20 1422v18h705v-18h-137q-23 0 -34.5 -1t-26 -7t-20.5 -15t-14 -31t-10 -48.5t-5 -72.5t-3.5 -98.5t-0.5 -131.5v-404q0 -118 8 -201.5t31 -158t63 -119t104.5 -70t154.5 -25.5q195 0 305.5 145t110.5 388v456q4 149 -2.5 228.5t-38 117t-61.5 43t-107 5.5h-7.5h-7 h-8.5h-118v18h629v-18h-115q-30 0 -45 -2.5t-33.5 -14t-26.5 -35.5t-16.5 -68t-11 -110.5t-2.5 -163.5v-456q0 -129 -33 -236t-96.5 -186t-162 -123t-224.5 -44q-241 0 -373.5 148.5t-132.5 425.5v460q0 159 -2.5 232t-16.5 117t-31 50t-60 6h-128zM561 1704q0 31 19.5 51.5 t48.5 20.5q28 0 49.5 -21t21.5 -51q0 -28 -21.5 -48.5t-49.5 -20.5q-29 0 -48.5 20.5t-19.5 48.5zM832 1704q0 31 20 51.5t49 20.5q28 0 49 -21t21 -51q0 -28 -21 -48.5t-49 -20.5q-29 0 -49 20.5t-20 48.5z" />
<glyph unicode="&#xdd;" horiz-adv-x="1517" d="M-27 1421v19l758 1v-20h-139q-53 0 -75.5 -11.5t-16.5 -51t33 -94.5t88 -160l234 -406l259 450q25 42 40 86.5t17.5 89t-26 72.5t-87.5 28q-18 0 -67 -0.5t-51 -0.5l1 17h603v-18l-108 -1q-135 0 -299 -279l-267 -469v-278v-99.5t2 -79.5t3 -63t5 -47t7.5 -35t11.5 -23 t14 -15t18.5 -7t22.5 -3.5t28 -0.5h137v-19q-32 0 -162 0.5t-142 0.5q-11 0 -193 -0.5t-215 -0.5v19h137q18 0 28 0.5t22.5 3.5t18.5 7t14 15t11.5 23t7.5 35t5 47t3 63t2 79.5v99.5v268l-261 452q-110 192 -164.5 249t-138.5 57h-119zM606 1525l361 332l122 -29l-469 -303 h-14z" />
<glyph unicode="&#xdf;" horiz-adv-x="1619" d="M-10 0v28q40 2 80.5 3.5t78.5 -1t71.5 9.5t58.5 35.5t39.5 77t14.5 133.5v858q0 136 31 246.5t92.5 191.5t158 125.5t222.5 44.5q57 0 103 -3t100.5 -13.5t96.5 -27.5t83 -47.5t68 -72t43.5 -102t16.5 -135.5q0 -84 -27.5 -152t-66 -106.5t-83.5 -64t-77 -34.5t-50 -9 q50 0 114 -15.5t140 -54.5t138.5 -94.5t104.5 -145.5t42 -199q0 -81 -17 -151.5t-58.5 -135.5t-104.5 -110.5t-161 -72.5t-222 -27q-105 0 -178 34l91 26q14 -20 87 -20q42 0 75.5 11.5t57 36t41 51t28 68t17 74.5t9.5 83t3.5 81t0.5 80q0 102 -42 191t-105.5 144.5 t-133 86.5t-129.5 31v40q41 0 73 8t65 32t54.5 63.5t35 106.5t13.5 158q0 72 -11.5 129.5t-28 93.5t-42 61.5t-45.5 37.5t-47.5 18t-39 6.5t-27.5 0.5h-3h-2q-45 0 -81 -28t-57.5 -73t-37.5 -100t-22.5 -109.5t-10.5 -99.5t-4 -73v-28v-1201h-634z" />
<glyph unicode="&#xe0;" horiz-adv-x="1374" d="M38 280.5q-16 107.5 11 216.5t81.5 211.5t136.5 183.5t174 122q292 110 473 20q28 -16 41 -27v-1h1q21 -17 40 -42q22 -29 39 -65l123 158h13q0 -101 0.5 -403t0.5 -403q0 -55 1 -87t5 -62.5t11 -41.5t19 -25t30 -13t42.5 -4.5t57.5 0.5h15.5h15h17.5v-14h-621v14 q20 0 55 -1q103 -2 120.5 27.5t17.5 206.5v257q-39 -112 -105.5 -208.5t-144.5 -162t-165 -106t-166.5 -48.5t-149 19.5t-112.5 89.5q-61 81 -77 188.5zM221 433.5q8 -80.5 34 -149.5q16 -42 40.5 -79t56.5 -64.5t70 -45t81 -19t88 11.5t93 49.5t93.5 91t92.5 140t88 193.5 q7 67 -1 137.5t-33 137t-64 117t-100.5 78.5t-136.5 21h2q-90 -11 -164 -53.5t-121.5 -105t-78 -140t-39.5 -159t-1 -162zM436 1439l123 29l360 -332h-14z" />
<glyph unicode="&#xe1;" horiz-adv-x="1374" d="M38 280.5q-16 107.5 11 216.5t81.5 211.5t136.5 183.5t174 122q292 110 473 20q28 -16 41 -27v-1h1q21 -17 40 -42q22 -29 39 -65l123 158h13q0 -101 0.5 -403t0.5 -403q0 -55 1 -87t5 -62.5t11 -41.5t19 -25t30 -13t42.5 -4.5t57.5 0.5h15.5h15h17.5v-14h-621v14 q20 0 55 -1q103 -2 120.5 27.5t17.5 206.5v257q-39 -112 -105.5 -208.5t-144.5 -162t-165 -106t-166.5 -48.5t-149 19.5t-112.5 89.5q-61 81 -77 188.5zM221 433.5q8 -80.5 34 -149.5q16 -42 40.5 -79t56.5 -64.5t70 -45t81 -19t88 11.5t93 49.5t93.5 91t92.5 140t88 193.5 q7 67 -1 137t-33 136.5t-64 117t-100.5 78.5t-136.5 21l2 1q-90 -11 -164 -53.5t-121.5 -105t-78 -140t-39.5 -159t-1 -162zM448 1136l361 332l122 -29l-468 -303h-15z" />
<glyph unicode="&#xe2;" horiz-adv-x="1374" d="M38 280.5q-16 107.5 11 216.5t81.5 211.5t136.5 183.5t174 122q292 110 473 20q28 -16 41 -27v-1h1q21 -17 40 -42q22 -29 39 -65l123 158h13q0 -101 0.5 -403t0.5 -403q0 -55 1 -87t5 -62.5t11 -41.5t19 -25t30 -13t42.5 -4.5t57.5 0.5h15.5h15h17.5v-14h-621v14 q20 0 55 -1q103 -2 120.5 27.5t17.5 206.5v257q-39 -112 -105.5 -208.5t-144.5 -162t-165 -106t-166.5 -48.5t-149 19.5t-112.5 89.5q-61 81 -77 188.5zM221 433.5q8 -80.5 34 -149.5q16 -42 40.5 -79t56.5 -64.5t70 -45t81 -19t88 11.5t93 49.5t93.5 91t92.5 140t88 193.5 q7 67 -1 137.5t-33 137t-64 117t-100.5 78.5t-136.5 21h2q-90 -11 -164 -53.5t-121.5 -105t-78 -140t-39.5 -159t-1 -162zM440 1078l269 390l270 -390h-23l-247 263l-247 -263h-22z" />
<glyph unicode="&#xe3;" horiz-adv-x="1374" d="M38 289.5q-16 107.5 11 216.5t81.5 211.5t136.5 183.5t174 122q292 110 473 20q24 -14 41 -28h1v-1q23 -18 40 -41v-1q23 -31 39 -64l123 157h13q0 -101 0.5 -403t0.5 -402q0 -55 1 -87t5 -62.5t11 -41.5t19 -25t30 -13t42.5 -4.5t57.5 0.5h15.5h15h17.5v-14h-621v14 q20 0 55 -1q103 -2 120.5 27.5t17.5 206.5v257q-39 -112 -105.5 -208.5t-144.5 -162t-165 -106t-166.5 -48.5t-149 19.5t-112.5 89.5q-61 81 -77 188.5zM206 1207q29 76 76.5 121.5t95.5 57.5t91.5 12.5t70.5 -7.5l28 -8l228 -89q25 -11 68 -13.5t90 4.5t88.5 32.5 t58.5 65.5l8 -2q-21 -56 -52.5 -96t-65 -59t-69 -29.5t-67 -9.5t-56.5 4t-39 8l-15 5l-226 90q-39 15 -96 17t-120.5 -23.5t-90.5 -83.5zM221 442.5q8 -80.5 34 -149.5q16 -42 40.5 -79t56.5 -64.5t70 -45t81 -19t88 11.5t93 49.5t93.5 91t92.5 140t88 193.5q7 67 -1 137 t-33 136.5t-64 117t-100.5 78.5t-136.5 21l2 1q-90 -11 -164 -53.5t-121.5 -105t-78 -140t-39.5 -159t-1 -162z" />
<glyph unicode="&#xe4;" horiz-adv-x="1374" d="M38 280.5q-16 107.5 11 216.5t81.5 211.5t136.5 183.5t174 122q292 110 473 20q28 -16 41 -27v-1h1q21 -17 40 -42q22 -29 39 -65l123 158h13q0 -101 0.5 -403t0.5 -403q0 -55 1 -87t5 -62.5t11 -41.5t19 -25t30 -13t42.5 -4.5t57.5 0.5h15.5h15h17.5v-14h-621v14 q20 0 55 -1q103 -2 120.5 27.5t17.5 206.5v257q-39 -112 -105.5 -208.5t-144.5 -162t-165 -106t-166.5 -48.5t-149 19.5t-112.5 89.5q-61 81 -77 188.5zM221 433.5q8 -80.5 34 -149.5q16 -42 40.5 -79t56.5 -64.5t70 -45t81 -19t88 11.5t93 49.5t93.5 91t92.5 140t88 193.5 q7 67 -1 137.5t-33 137t-64 117t-100.5 78.5t-136.5 21h2q-90 -11 -164 -53.5t-121.5 -105t-78 -140t-39.5 -159t-1 -162zM466 1285q0 31 19.5 52t48.5 21q28 0 49.5 -21.5t21.5 -51.5q0 -27 -21.5 -47.5t-49.5 -20.5q-29 0 -48.5 20t-19.5 48zM738 1285q0 31 19.5 52 t48.5 21q28 0 49 -21.5t21 -51.5q0 -28 -21 -48t-49 -20q-29 0 -48.5 20t-19.5 48z" />
<glyph unicode="&#xe5;" horiz-adv-x="1374" d="M38 278.5q-16 107.5 11 216.5t81.5 211.5t136.5 183.5t174 122q292 110 473 20q24 -14 41 -28h1v-1q23 -19 40 -41v-1q23 -31 39 -64l123 157h13q0 -100 0.5 -402t0.5 -403q0 -55 1 -87t5 -62.5t11 -41.5t19 -25t30 -13t42.5 -4.5t57.5 0.5h15.5h15h17.5v-14h-621v14 q20 0 55 -1q103 -2 120.5 27.5t17.5 206.5v257q-39 -112 -105.5 -208.5t-144.5 -162t-165 -106t-166.5 -48.5t-149 19.5t-112.5 89.5q-61 81 -77 188.5zM221 431.5q8 -80.5 34 -149.5q16 -42 40.5 -79t56.5 -64.5t70 -45t81 -19t88 11.5t93 49.5t93.5 91t92.5 140t88 193.5 q7 67 -1 137t-33 136.5t-64 117t-100.5 78.5t-136.5 21l2 1q-90 -11 -164 -53.5t-121.5 -105t-78 -140t-39.5 -159t-1 -162zM557 1318q0 64 45 109.5t108 45.5t107.5 -45.5t44.5 -109.5q0 -63 -44.5 -108t-107.5 -45t-108 45t-45 108zM582 1318q0 -53 37.5 -90.5t90.5 -37.5 t90 37.5t37 90.5q0 54 -37 92t-90 38t-90.5 -38.5t-37.5 -91.5z" />
<glyph unicode="&#xe6;" horiz-adv-x="2084" d="M38 277.5q-16 107.5 11 216.5t81.5 211.5t136.5 183.5t174 122q292 110 473 20q28 -16 41 -27v-1h1q21 -17 40 -42q22 -29 39 -65q12 -25 36 -30.5t53 5.5t50.5 23.5t42.5 27.5q148 126 337 142q34 4 71 6h1h3q84 3 153.5 -17.5t113.5 -55.5t77.5 -78t50.5 -87t27 -80 t13 -59l2 -23h-125h-717q-31 -116 -26.5 -234t43.5 -196q23 -51 64.5 -92t97.5 -64t120 -27.5t134.5 23.5t137.5 84t133.5 159.5t118.5 243.5h19q-44 -132 -110 -244q-56 -93 -134 -161.5t-162 -104.5t-169 -50t-166 -5h-560v13q20 0 55 -1q103 -2 120.5 27.5t17.5 206.5 v257q-39 -112 -105.5 -208.5t-144.5 -162t-165 -106t-166.5 -48.5t-149 19.5t-112.5 89.5q-61 81 -77 188.5zM221 430.5q8 -80.5 34 -149.5q16 -42 40.5 -79t56.5 -64.5t70 -45t81 -19t88 11.5t93 49.5t93.5 91t92.5 140t88 193.5q7 67 -1 137.5t-33 137t-64 117 t-100.5 78.5t-136.5 21h2q-90 -11 -164 -53.5t-121.5 -105t-78 -140t-39.5 -159t-1 -162zM1230 689h637q-2 79 -17 142t-37.5 100t-49 63.5t-53 37.5t-48 16.5t-34.5 5.5l-14 -1q-92 -7 -157 -48t-138 -136q-57 -73 -89 -180z" />
<glyph unicode="&#xe7;" d="M34.5 363q-11.5 152 51.5 292q70 172 210.5 284t319.5 127q107 15 203.5 -7.5t149.5 -95.5q51 -67 72 -159l-161 -121q7 82 -0.5 147t-25 103t-40.5 65t-47 38t-44.5 16t-33.5 4h-13q-92 -7 -157 -48t-138 -136q-64 -83 -96 -203.5t-26 -235t44 -191.5q23 -51 64.5 -92 t97.5 -64t120 -27.5t134.5 24t137.5 84.5t133.5 159.5t118.5 243.5h19q-44 -135 -110 -245q-67 -111 -165.5 -186t-198.5 -106.5t-204 -31.5l-33 -91q145 32 220 -23.5t64 -148.5q-6 -45 -24.5 -78.5t-40.5 -51t-52 -27.5t-52.5 -12.5t-50.5 -2.5q-59 -1 -96 19l12 7 q27 -20 84 -19q66 0 109 36t43 107q0 25 -6 49.5t-22.5 51.5t-44.5 42t-71.5 21t-104.5 -12l45 133q-92 3 -169 32.5t-123 79.5q-91 98 -102.5 250z" />
<glyph unicode="&#xe8;" horiz-adv-x="1140" d="M32.5 362.5q-11.5 152.5 51.5 292.5q70 172 210.5 284t319.5 127q34 4 71 6h4q84 3 153.5 -17.5t113.5 -55.5t77.5 -78t50.5 -87t27 -80t13 -59l2 -23h-125h-717q-31 -116 -26.5 -234t43.5 -196q23 -51 64.5 -92t97.5 -64t120 -27.5t134.5 23.5t137.5 84t133.5 159.5 t118.5 243.5h19q-44 -132 -110 -244q-67 -111 -165 -186.5t-200 -106t-202.5 -32t-182.5 28.5t-131 83q-91 98 -102.5 250.5zM278 1439l122 29l361 -332h-14zM289 691h638q-2 79 -17 142t-37.5 100t-49 63.5t-53 37.5t-48 16.5t-34.5 5.5l-14 -1q-92 -7 -157 -48t-138 -136 q-59 -75 -90 -180z" />
<glyph unicode="&#xe9;" d="M34.5 363.5q-11.5 152.5 51.5 292.5q70 172 210.5 284t319.5 127q34 4 71 6h4q84 3 153.5 -17.5t113.5 -55.5t77.5 -78.5t50.5 -87t27 -80t13 -59.5l2 -23h-125h-717q-31 -116 -26.5 -233.5t43.5 -195.5q23 -51 64.5 -92t97.5 -64t120 -27.5t134.5 23.5t137.5 84 t133.5 159.5t118.5 243.5h19q-44 -132 -110 -244q-67 -111 -165 -186.5t-200 -106t-202.5 -32t-182.5 28.5t-131 83q-91 98 -102.5 250.5zM272 1136l361 332l122 -29l-469 -303h-14zM291 692h638q-2 79 -17 142t-37.5 100t-49 63.5t-53 37.5t-48 16.5t-34.5 4.5h-14 q-92 -7 -157 -48t-138 -136q-59 -75 -90 -180z" />
<glyph unicode="&#xea;" horiz-adv-x="1140" d="M32.5 352.5q-11.5 152.5 51.5 292.5q70 172 210.5 284t319.5 127q34 4 71 6h4q66 2 123 -10t98 -34.5t74.5 -52.5t55.5 -63.5t38.5 -67.5t25 -65t13.5 -55t7 -38l1 -14h-124h-717q-31 -116 -26.5 -234t43.5 -196q23 -51 64.5 -92t97.5 -64t120 -27.5t134.5 23.5t137.5 84 t133.5 159.5t118.5 243.5h19q-44 -132 -110 -244q-67 -111 -165 -186.5t-200 -106t-202.5 -32t-182.5 28.5t-131 83q-91 98 -102.5 250.5zM289 681h638q-2 79 -17 142t-37.5 100t-49 64t-53 37.5t-48 16.5t-34.5 5h-14q-92 -7 -157 -48t-138 -136q-58 -74 -90 -181z M359 1078l270 390l269 -390h-23l-246 263l-247 -263h-23z" />
<glyph unicode="&#xeb;" horiz-adv-x="1140" d="M32.5 362.5q-11.5 152.5 51.5 292.5q70 172 210.5 284t319.5 127q34 4 71 6h4q84 3 153.5 -17.5t113 -55.5t77 -78.5t50.5 -87t27 -80t12 -59.5l3 -23h-124h-717q-31 -116 -26.5 -233.5t43.5 -195.5q23 -51 64.5 -92t97.5 -64t120 -27.5t134.5 23.5t137.5 84t133.5 159.5 t118.5 243.5h18q-45 -136 -109 -244q-67 -111 -165 -186.5t-200 -106t-202.5 -32t-182.5 28.5t-131 83q-91 98 -102.5 250.5zM289 691h638q-2 79 -17 142t-37.5 100t-49 63.5t-53 37.5t-48 16.5t-34.5 5.5l-14 -1q-92 -7 -157 -48t-138 -136q-59 -75 -90 -180zM385 1285 q0 31 20 52t49 21q28 0 49 -21.5t21 -51.5q0 -28 -21 -48t-49 -20q-29 0 -49 20t-20 48zM657 1285q0 31 19.5 52t48.5 21q28 0 49.5 -21.5t21.5 -51.5q0 -27 -21.5 -47.5t-49.5 -20.5q-29 0 -48.5 20t-19.5 48z" />
<glyph unicode="&#xec;" horiz-adv-x="571" d="M-41 0v13q20 0 53 -1q82 -1 103 9q28 15 34 77q3 35 3 149v634q0 27 -17.5 38.5t-42 9t-49 -9t-41.5 -13.5l-18 -8l-6 8l363 146h25v-805q0 -56 1 -87.5t5 -62.5t11 -42t19.5 -25t30 -13t42.5 -4.5t58 0.5h47v-13h-621zM11 1439l122 29l361 -332h-15z" />
<glyph unicode="&#xed;" horiz-adv-x="614" d="M4 0v13q20 0 53 -1q82 -1 103 9q28 15 34 77q3 35 3 149v634q0 27 -17.5 38.5t-42 9t-49 -9t-42.5 -13.5l-17 -8l-6 8l363 146h25v-805q0 -56 1 -87.5t5 -62.5t11 -42t19.5 -25t30 -13t42.5 -4.5t58 0.5h47v-13h-621zM29 1136l361 332l122 -29l-468 -303h-15z" />
<glyph unicode="&#xee;" horiz-adv-x="604" d="M-12 0v13q20 0 53 -1q82 -1 103 9q28 15 34 77q3 35 3 149v634q0 27 -17.5 38.5t-42 9t-49 -9t-42.5 -13.5l-17 -8l-6 8l362 146h26v-805q0 -56 1 -87.5t5 -62.5t11 -42t19.5 -25t30 -13t42.5 -4.5t58 0.5h47v-13h-621zM20 1078l269 390l270 -390h-23l-247 263l-247 -263 h-22z" />
<glyph unicode="&#xef;" horiz-adv-x="614" d="M4 0v13q20 0 53 -1q82 -1 103 9q28 15 34 77q3 35 3 149v634q0 27 -17.5 38.5t-42 9t-49 -9t-42.5 -13.5l-17 -8l-6 8l363 146h25v-805q0 -56 1 -87.5t5 -62.5t11 -42t19.5 -25t30 -13t42.5 -4.5t58 0.5h47v-13h-621zM68 1285q0 31 19.5 52t48.5 21q28 0 49.5 -21.5 t21.5 -51.5q0 -27 -21.5 -47.5t-49.5 -20.5q-29 0 -48.5 20t-19.5 48zM339 1285q0 31 20 52t49 21q28 0 49 -21.5t21 -51.5q0 -28 -21 -48t-49 -20q-29 0 -49 20t-20 48z" />
<glyph unicode="&#xf1;" horiz-adv-x="1538" d="M4 2v13q20 0 55 -1q103 -2 120.5 27.5t17.5 206.5v635q0 27 -17.5 38.5t-42 9t-49 -9t-42.5 -13.5l-17 -8l-6 7l363 147h25v-336q2 4 6 11t6 11q67 111 162.5 187t193 107t192 33.5t169 -26t113.5 -78.5q89 -114 86 -285l1 1v-432q0 -174 22 -204.5t139 -29.5h15.5h14.5 h17v-13h-621v13q20 0 54 -1q25 0 35.5 -0.5t27.5 1t23 3t16.5 7.5t13.5 11t8.5 17.5t6 23.5t2.5 32.5t2 41v51.5v388q2 31 0 88v3q-4 90 -28 154q-12 40 -42 75.5t-73.5 59t-95.5 33.5t-112 -4t-119.5 -48.5t-121 -105.5t-113.5 -170v-425q0 -55 1 -87t5 -62.5t11 -41.5 t19 -25t30 -13t42.5 -4.5t57.5 0.5h48v-13h-621zM286 1207q29 76 76.5 121.5t95.5 57.5t92 12.5t72 -7.5l27 -8l228 -89q25 -11 68 -13.5t90 4.5t88.5 32.5t58.5 65.5l8 -2q-21 -56 -52.5 -96t-65.5 -59t-69.5 -29.5t-67 -9.5t-56.5 4t-39 8l-15 5l-225 90q-39 15 -96 17 t-120.5 -23.5t-90.5 -83.5z" />
<glyph unicode="&#xf2;" d="M33 367q0 183 110 362q114 186 293 274q198 97 422 41q112 -37 175 -122t73 -188t-18.5 -218.5t-88 -214.5t-147.5 -175t-186 -101q-342 -89 -511 50q-122 101 -122 292zM232 423q7 -94 27 -167t41.5 -117t56 -73t57 -41t59 -15.5t47.5 -2t36 5.5q7 1 9 1h1q2 0 8 2h1 q21 6 38 12.5t50.5 25.5t59 44t56.5 70.5t51 101.5t34 139.5t14 183.5q0 109 -18 193t-43 130t-58.5 76t-58.5 39.5t-49 11.5h-3l-17 1q-1 0 -4 -0.5t-4 -0.5q-4 0 -16 -2q-9 0 -24 -2t-58 -15.5t-81 -35.5t-83.5 -69t-75.5 -109.5t-46.5 -163t-6.5 -223.5zM265 1439l122 29 l361 -332h-14z" />
<glyph unicode="&#xf3;" d="M33 376q1 183 110 361q114 186 294 274q198 97 421 41q112 -37 175 -122t73 -188t-18.5 -218t-88 -214t-147.5 -175t-186 -101q-342 -89 -511 50q-122 101 -122 292zM232 432q10 -130 43 -219t67.5 -128t85.5 -55.5t73 -15.5t55 7q7 1 9 1h1q2 0 8 2q0 1 1 1 q22 6 38.5 12t50 25.5t59 44t56.5 70t51 101.5t34 139.5t14 183.5q0 109 -18 193t-43 130t-58.5 76t-58.5 39.5t-49 11.5h-3l-17 1q-1 0 -4 -0.5t-4 -0.5q-4 0 -16 -2q-9 0 -24 -2t-58 -15.5t-81 -35.5t-83.5 -69t-75.5 -109t-46.5 -162.5t-6.5 -223.5zM339 1136l361 332 l123 -29l-469 -303h-15z" />
<glyph unicode="&#xf4;" d="M33 376q1 183 110 361q114 186 294 274q198 97 421 41q112 -37 175 -122t73 -188t-18.5 -218t-88 -214t-147.5 -175t-186 -101q-342 -89 -511 50q-122 101 -122 292zM232 432q10 -130 43 -219t67.5 -128t85.5 -55.5t73 -15.5t55 7q7 1 9 1h1q2 0 8 2h1q21 6 38 12.5 t50.5 25.5t59 44t56.5 70.5t51 101.5t34 139.5t14 183.5q0 109 -18 193t-43 130t-58.5 76t-58.5 39.5t-49 11.5h-3l-17 1q-1 0 -4 -0.5t-4 -0.5q-4 0 -16 -2q-9 0 -24 -2t-58 -15.5t-81 -35.5t-83.5 -69t-75.5 -109t-46.5 -162.5t-6.5 -223.5zM347 1103l270 390l269 -390 h-22l-247 263l-247 -263h-23z" />
<glyph unicode="&#xf5;" d="M33 376q0 183 110 362q114 186 293 274q198 97 422 41q112 -37 175 -122t73 -188t-18.5 -218.5t-88 -214.5t-147.5 -175t-186 -101q-342 -89 -511 50q-122 101 -122 292zM128 1207q29 76 76.5 121.5t95.5 57.5t92 12.5t72 -7.5l27 -8l228 -89q25 -11 68 -13.5t90 4.5 t88.5 32.5t58.5 65.5l8 -2q-21 -56 -52.5 -96t-65.5 -59t-69.5 -29.5t-67 -9.5t-56.5 4t-39 8l-15 5l-226 90q-39 15 -96 17t-120.5 -23.5t-90.5 -83.5zM231 432q10 -130 43.5 -219t67.5 -128t85.5 -55.5t73.5 -15.5t55 7q3 0 5 0.5t4 0.5q0 1 1 1q5 0 8 1q0 1 1 1 q21 6 38 12.5t50.5 25.5t59 44t56.5 70.5t51 101.5t34 139.5t14 183.5q0 109 -18 193t-43 130t-58.5 76t-58.5 39.5t-49 11.5h-3l-17 1q-1 0 -4 -0.5t-4 -0.5q-4 0 -16 -2q-9 0 -24 -2t-58 -15.5t-81.5 -35.5t-83.5 -69t-75.5 -109.5t-47 -163t-6.5 -223.5z" />
<glyph unicode="&#xf6;" d="M33 367q0 183 110 362q114 186 293 274q198 97 422 41q112 -37 175 -122t73 -188t-18.5 -218.5t-88 -214.5t-147.5 -175t-186 -101q-342 -89 -511 50q-122 101 -122 292zM231 423q10 -130 43.5 -219t67.5 -127.5t85.5 -55t73 -15.5t55.5 7q7 1 9 1h1q2 0 8 2h1 q21 6 38 12.5t50.5 25.5t59 44t56.5 70.5t51 101.5t34 139.5t14 183.5q0 109 -18 193t-43 130t-58.5 76t-58.5 39.5t-49 11.5h-3l-17 1q-1 0 -4 -0.5t-4 -0.5q-4 0 -16 -2q-9 0 -24 -2t-58 -15.5t-81.5 -35.5t-83.5 -69t-75.5 -109.5t-47 -163t-6.5 -223.5zM397 1285 q0 31 19.5 52t48.5 21q28 0 49 -21.5t21 -51.5q0 -28 -21 -48t-49 -20q-29 0 -48.5 20t-19.5 48zM668 1285q0 31 20 52t49 21q28 0 49 -21.5t21 -51.5q0 -28 -21 -48t-49 -20q-29 0 -49 20t-20 48z" />
<glyph unicode="&#xf8;" d="M35 315q-6 75 8 158.5t51.5 162.5t91 153.5t125.5 131t156.5 95t184 45t206.5 -18.5q35 -13 54 -23l50 63l19 -15l-47 -60q86 -51 130 -139t44.5 -188t-32.5 -207t-92 -198t-142.5 -159.5t-175.5 -92.5q-311 -82 -480 28l-55 -70l-19 15l53 69q-57 43 -90.5 109 t-39.5 141zM231 421q9 -123 42 -219l549 702q-35 71 -82 101.5t-89 34.5q-1 0 -2 0.5t-2 0.5l-16 1q-1 0 -4 -0.5t-4 -0.5q-4 0 -16 -2q-9 0 -24 -2t-58 -15.5t-81.5 -35.5t-83.5 -69t-75.5 -109.5t-47 -163t-6.5 -223.5zM283 175q14 -34 31 -61.5t36 -45.5t37 -31t39 -19 t36.5 -10t35 -3.5t28.5 1t24 2.5l15 3h1q2 0 8 2q0 1 1 1q21 6 38 12.5t50.5 25.5t59 44t56.5 70.5t51 101.5t34 139.5t14 183.5q0 177 -45 287z" />
<glyph unicode="&#xf9;" horiz-adv-x="1388" d="M-4 911l362 147h38l-2 -129h1q-1 -25 -1 -92v-373h-1q-2 -30 0 -87q0 -1 0.5 -2t0.5 -2q4 -90 28 -154q26 -69 69.5 -114t102 -55.5t123.5 15.5t139 106.5t143 208.5v424q0 59 -1 83q1 27 -16.5 38.5t-42 9t-49.5 -9t-42 -13.5l-18 -8l-6 7l362 147h31l-2 -129 q-2 -64 -2 -125v-634q-1 -43 41 -47t84 13l43 17l6 -8l-359 -146h-29v336q-2 -3 -6 -10.5t-6 -11.5q-68 -112 -147 -188t-156 -109t-154.5 -35t-146 26t-126.5 82q-89 114 -86 285h-1v432v81q0 42 -42 46t-84 -13l-42 -16zM394 1439l122 29l361 -332h-14z" />
<glyph unicode="&#xfa;" horiz-adv-x="1388" d="M-2 919l362 147h38l-2 -129h1q-1 -25 -1 -92v-373h-1q-2 -31 0 -88l1 -1v-2q4 -90 28 -154q26 -69 69.5 -114t102 -55.5t123.5 15.5t139 106.5t143 208.5v424q0 59 -1 83q1 27 -16.5 38.5t-42 9t-49.5 -9t-42 -13.5l-18 -8l-6 7l362 147h31l-2 -129q-2 -32 -2 -125v-635 q-1 -43 41 -47t84 13l43 17l6 -7l-359 -147h-29v337q-2 -3 -6 -10.5t-6 -11.5q-68 -112 -147 -188t-156 -109t-154.5 -35t-146 26t-126.5 82q-89 114 -86 285l-1 -1v433v81q0 42 -42 46t-84 -13l-42 -16zM429 1136l361 332l122 -29l-469 -303h-14z" />
<glyph unicode="&#xfb;" horiz-adv-x="1388" d="M-2 911l362 147h38l-2 -129h1q-1 -25 -1 -92v-373h-1q-2 -30 0 -87q0 -1 0.5 -2t0.5 -2q4 -90 28 -154q26 -69 69.5 -114t102 -55.5t123.5 15.5t139 106.5t143 208.5v424q0 59 -1 83q1 27 -16.5 38.5t-42 9t-49.5 -9t-42 -13.5l-18 -8l-6 7l362 147h31l-2 -129 q-2 -32 -2 -125v-634q-1 -43 41 -47t84 13l43 17l6 -8l-359 -146h-29v336q-2 -3 -6 -10.5t-6 -11.5q-68 -112 -147 -188t-156 -109t-154.5 -35t-146 26t-126.5 82q-89 114 -86 285h-1v432v81q0 42 -42 46t-84 -13l-42 -16zM419 1078l269 390l270 -390h-23l-247 263 l-247 -263h-22z" />
<glyph unicode="&#xfc;" horiz-adv-x="1388" d="M-4 911l362 147h38l-2 -129h1q-1 -25 -1 -92v-373h-1q-2 -30 0 -87q0 -1 0.5 -2t0.5 -2q4 -90 28 -154q26 -69 69.5 -114t102 -55.5t123.5 15.5t139 106.5t143 208.5v424q0 59 -1 83q1 27 -16.5 38.5t-42 9t-49.5 -9t-42 -13.5l-18 -8l-6 7l362 147h31l-3 -129 q-1 -32 -1 -125v-634q-1 -43 41 -47t84 13l43 17l6 -8l-359 -146h-29v336q-2 -3 -6 -10.5t-6 -11.5q-68 -112 -147 -188t-156 -109t-154.5 -35t-146 26t-126.5 82q-89 114 -86 285h-1v432v81q0 42 -42 46t-84 -13l-42 -16zM477 1285q0 31 19.5 52t48.5 21q28 0 49.5 -21.5 t21.5 -51.5q0 -27 -21.5 -47.5t-49.5 -20.5q-29 0 -48.5 20t-19.5 48zM748 1285q0 31 20 52t49 21q28 0 49 -21.5t21 -51.5q0 -28 -21 -48t-49 -20q-29 0 -49 20t-20 48z" />
<glyph unicode="&#xfd;" horiz-adv-x="1345" d="M-12 1026v19h664v-19q-26 -2 -53 -0.5t-53.5 0t-47.5 -5.5t-34.5 -16t-14.5 -32q-1 -26 8.5 -57t38.5 -98l260 -578l238 538q24 63 34.5 104.5t2.5 70t-19 43t-53 22t-75.5 8.5t-107.5 1v19h581v-19q-50 0 -83 -3t-66 -13t-56 -27t-47.5 -47t-46 -71t-46.5 -100 l-354 -796q-83 -188 -184.5 -276.5t-248.5 -88.5q-37 0 -66 6v151q97 -74 188 -74q79 0 150.5 66t139.5 220l23 52l-330 730q-35 75 -52.5 113.5t-45 74.5t-36 47.5t-46 22.5t-52 11t-75.5 1q-23 1 -35 1zM431 1136l361 332l122 -29l-469 -303h-14z" />
<glyph unicode="&#xff;" horiz-adv-x="1345" d="M-12 1026v19h664v-19q-26 -2 -53 -0.5t-53.5 0t-47.5 -5.5t-34.5 -16t-14.5 -32q-1 -26 8.5 -57t38.5 -98l260 -578l238 538q24 63 34.5 104.5t2.5 70t-19 43t-53 22t-75.5 8.5t-107.5 1v19h581v-19q-50 0 -83 -3t-66 -13t-56 -27t-47.5 -47t-46 -71t-46.5 -100 l-354 -796q-83 -188 -184.5 -276.5t-248.5 -88.5q-37 0 -66 6v151q97 -74 188 -74q79 0 150.5 66t139.5 220l23 52l-330 730q-35 75 -52.5 113.5t-45 74.5t-36 47.5t-46 22.5t-52 11t-75.5 1q-23 1 -35 1zM460 1285q0 31 19.5 52t48.5 21q28 0 49.5 -21.5t21.5 -51.5 q0 -27 -21.5 -47.5t-49.5 -20.5q-29 0 -48.5 20t-19.5 48zM731 1285q0 31 20 52t49 21q28 0 49 -21.5t21 -51.5q0 -28 -21 -48t-49 -20q-29 0 -49 20t-20 48z" />
<glyph unicode="&#x152;" horiz-adv-x="2009" d="M29 721q0 211 101.5 382t269.5 264.5t365 93.5q96 0 188 -23h950q8 0 14.5 -6.5t6.5 -14.5v-512h-24q0 11 -1.5 29.5t-8 72t-16.5 102.5t-30.5 108.5t-47 102.5t-69 72.5t-93.5 29.5l-244 2h-43h-37t-28 -1.5t-23.5 -4t-16.5 -8t-14 -13t-7.5 -20t-6 -27.5t-2.5 -37 q-1 -31 -1 -122l-1 -81l-3 -347l53 -1l126 -4q49 0 106 16q99 29 151 110t52 197h14v-630h-14q0 115 -47.5 183t-153.5 94q-64 16 -157 16h-77l-53 1l-3 -401l-1 -139q0 -10 3 -67q2 -37 8 -58.5t17.5 -35t29.5 -18t45 -6.5t64 0h47l257 2q71 0 124.5 53.5t79.5 129.5 t41.5 151.5t18.5 129.5l3 53h24v-512q0 -8 -6.5 -14t-14.5 -6h-1005q-94 -24 -183 -24q-149 0 -283 56t-231.5 153t-155 235t-57.5 294zM265 721q0 -164 26.5 -292t83 -225t151 -148.5t222.5 -51.5q28 0 55 3q40 3 74 12q49 12 99 38q13 35 13 196l8 938q0 108 -6.5 153.5 t-29.5 62.5q-29 11 -48 16q-46 12 -84 15q-18 2 -56 2q-130 0 -228.5 -52t-159 -148t-90.5 -226t-30 -293z" />
<glyph unicode="&#x153;" horiz-adv-x="1990" d="M33 372q0 183 110 362q114 186 293 274q198 97 422 41q149 -50 211 -183q164 175 392 194q34 4 72 6h-1h1h3q84 3 153.5 -17.5t113.5 -55.5t77.5 -78t50.5 -87t27 -80t12 -59l3 -23h-124h-1h-717q-31 -116 -26.5 -234t43.5 -196q23 -51 64.5 -92t97.5 -64t120 -27.5 t134.5 23.5t137.5 84t133.5 159.5t118.5 243.5h19q-44 -132 -110 -244q-67 -111 -165 -186.5t-200 -106t-202.5 -32t-182.5 28.5t-131 83q-37 40 -62 93q-115 -133 -254 -169q-342 -89 -511 50q-122 101 -122 292zM231 428q10 -130 43.5 -219t67.5 -127.5t85.5 -55t73 -15.5 t55.5 7q7 1 9 1h1q2 0 8 2h1q21 6 38 12.5t50.5 25.5t59 44t56.5 70.5t51 101.5t34 139.5t14 183.5q0 109 -18 193t-43 130t-58.5 76t-58.5 39.5t-49 11.5h-3l-17 1q-1 0 -4 -0.5t-4 -0.5q-4 0 -16 -2q-9 0 -24 -2t-58 -15.5t-81.5 -35.5t-83.5 -69t-75.5 -109.5t-47 -163 t-6.5 -223.5zM1137 685h637q-2 79 -17 142t-37.5 100t-49 64t-53 37.5t-48 16.5t-35.5 5h-13q-92 -7 -157 -48t-138 -136q-56 -72 -89 -181z" />
<glyph unicode="&#x178;" horiz-adv-x="1517" d="M-27 1421v19l758 1v-20h-139q-53 0 -75.5 -11.5t-16.5 -51t33 -94.5t88 -160l234 -406l259 450q25 42 40 86.5t17.5 89t-26 72.5t-87.5 28q-18 0 -67 -0.5t-51 -0.5l1 17h603v-18l-108 -1q-135 0 -299 -279l-267 -469v-278v-99.5t2 -79.5t3 -63t5 -47t7.5 -35t11.5 -23 t14 -15t18.5 -7t22.5 -3.5t28 -0.5h137v-19q-32 0 -162 0.5t-142 0.5q-11 0 -193 -0.5t-215 -0.5v19h137q18 0 28 0.5t22.5 3.5t18.5 7t14 15t11.5 23t7.5 35t5 47t3 63t2 79.5v99.5v268l-261 452q-110 192 -164.5 249t-138.5 57h-119zM608 1704q0 31 20 51.5t49 20.5 q28 0 49 -21t21 -51q0 -28 -21 -48.5t-49 -20.5q-29 0 -49 20.5t-20 48.5zM880 1704q0 31 19.5 51.5t48.5 20.5q28 0 49.5 -21t21.5 -51q0 -28 -21.5 -48.5t-49.5 -20.5q-29 0 -48.5 20.5t-19.5 48.5z" />
<glyph unicode="&#x2000;" horiz-adv-x="985" />
<glyph unicode="&#x2001;" horiz-adv-x="1971" />
<glyph unicode="&#x2002;" horiz-adv-x="985" />
<glyph unicode="&#x2003;" horiz-adv-x="1971" />
<glyph unicode="&#x2004;" horiz-adv-x="657" />
<glyph unicode="&#x2005;" horiz-adv-x="492" />
<glyph unicode="&#x2006;" horiz-adv-x="328" />
<glyph unicode="&#x2007;" horiz-adv-x="328" />
<glyph unicode="&#x2008;" horiz-adv-x="246" />
<glyph unicode="&#x2009;" horiz-adv-x="394" />
<glyph unicode="&#x200a;" horiz-adv-x="109" />
<glyph unicode="&#x2010;" horiz-adv-x="499" d="M8 581v84h482v-84h-482z" />
<glyph unicode="&#x2011;" horiz-adv-x="499" d="M8 581v84h482v-84h-482z" />
<glyph unicode="&#x2012;" horiz-adv-x="499" d="M8 581v84h482v-84h-482z" />
<glyph unicode="&#x2013;" horiz-adv-x="1041" d="M8 581v84h1024v-84h-1024z" />
<glyph unicode="&#x2014;" horiz-adv-x="2065" d="M8 581v84h2048v-84h-2048z" />
<glyph unicode="&#x2019;" horiz-adv-x="241" d="M29 1124q0 8 6 14q42 56 65 104q26 54 26 109q0 60 -36 123q-5 10 -5 16q0 15 15 21l63 27q23 -39 33 -78q11 -41 11 -78q0 -79 -40 -156q-37 -72 -102 -135l-29 18q-7 6 -7 15z" />
<glyph unicode="&#x201c;" horiz-adv-x="483" d="M35 1260q0 80 39 155q36 70 103 135l28 -18q8 -5 8 -15q0 -7 -6 -13q-41 -56 -66 -105q-25 -51 -25 -107q0 -62 36 -125q5 -10 5 -16q0 -15 -16 -21l-64 -27q-22 41 -32 78t-10 79zM313 1260q0 78 40 155q37 72 102 135l28 -18q8 -5 8 -15q0 -7 -6 -13q-38 -51 -65 -105 q-26 -54 -26 -107q0 -62 36 -125q5 -10 5 -16q0 -15 -15 -21l-64 -27q-22 41 -32 78q-11 41 -11 79z" />
<glyph unicode="&#x201d;" horiz-adv-x="518" d="M27 1124q0 8 6 14q42 56 65 104q26 54 26 109q0 60 -36 123q-5 10 -5 16q0 15 15 21l63 27q23 -39 33 -78q11 -41 11 -78q0 -79 -40 -156q-37 -72 -102 -135l-29 18q-7 6 -7 15zM305 1124q0 8 6 14q45 60 66 104q25 51 25 109q0 60 -36 123q-5 10 -5 16q0 15 16 21l63 27 q22 -39 33 -78q10 -37 10 -78q0 -81 -39 -156q-36 -70 -103 -135l-29 18q-7 6 -7 15z" />
<glyph unicode="&#x202f;" horiz-adv-x="394" />
<glyph unicode="&#x205f;" horiz-adv-x="492" />
<glyph unicode="&#x20ac;" horiz-adv-x="1261" d="M102 603l23 33h189q-2 33 -2 102q0 66 2 105h-212l23 33h193q14 138 52 246t103 191t166.5 127.5t233.5 44.5q125 0 192 -19t139 -74v-275h-31q0 165 -87.5 251t-212.5 86q-57 0 -100 -15.5t-80.5 -54t-62.5 -103.5t-41.5 -166t-22.5 -239h462l-23 -33h-441v-105v-102 h429l-21 -33h-406q6 -140 22.5 -242t41.5 -167t63 -104t80.5 -54t99.5 -15q56 0 108 20t96 59.5t70 106.5t26 152h31v-276q-77 -53 -147 -73t-186 -20q-132 0 -233 45t-166 128.5t-102.5 192.5t-51.5 247h-216z" />
<glyph unicode="&#x25fc;" horiz-adv-x="1034" d="M0 0v1034h1034v-1034h-1034z" />
</font>
</defs>
</svg>
