<?xml version="1.0" encoding="UTF-8"?>
<svg xmlns="http://www.w3.org/2000/svg" xmlns:xlink="http://www.w3.org/1999/xlink" version="1.2" >
<font id="MADE Cannes">
<font-face  font-family="MADE Cannes" units-per-em="1000" ascent="700" descent="-82" font-style="normal" font-weight="400" font-stretch="normal" cap-height="700" x-height="700" underline-position="-75" underline-thickness="50" />
<missing-glyph  horiz-adv-x="225" d="" />
<glyph glyph-name="NULL" d="" />
<glyph glyph-name="CR" unicode="&#xd;" horiz-adv-x="250" d="" />
<glyph glyph-name="space" unicode="&#x20;" horiz-adv-x="225" d="" />
<glyph glyph-name="exclam" unicode="&#x21;" horiz-adv-x="228" d="M114 51 C98 51 85 38 85 22 C85 6 98 -7 114 -7 C130 -7 143 6 143 22 C143 38 130 51 114 51 L114 51 Z M113 700 C95 699 87 686 87 639 C87 576 108 98 108 98 L119 98 C119 98 140 576 140 639 C140 686 132 699 113 700 L113 700 Z " />
<glyph glyph-name="quotedbl" unicode="&#x22;" horiz-adv-x="225" d="M82 761 C34 761 80 641 80 641 L84 641 C84 641 130 761 82 761 L82 761 Z M143 761 C95 761 141 641 141 641 L145 641 C145 641 191 761 143 761 L143 761 Z " />
<glyph glyph-name="numbersign" unicode="&#x23;" horiz-adv-x="755" d="M695 460 L695 470 L509 470 L562 700 L552 700 L499 470 L315 470 L367 700 L357 700 L305 470 L125 470 L125 460 L303 460 L254 248 L60 248 L60 238 L252 238 L198 0 L208 0 L262 238 L446 238 L392 0 L402 0 L456 238 L631 238 L631 248 L459 248 L507 460 L695 460 Z M449 248 L264 248 L312 460 L497 460 L449 248 Z " />
<glyph glyph-name="dollar" unicode="&#x24;" horiz-adv-x="406" d="M330 126 C326 195 262 288 208 381 L208 699 C248 692 261 651 261 587 C261 548 256 513 256 513 L310 513 C310 513 315 535 315 574 C316 667 279 703 208 707 L208 774 L198 774 L198 707 C197 707 196 707 195 707 C116 707 75 676 75 574 C75 492 141 382 198 285 L198 1 C155 6 139 49 138 113 C138 154 144 187 144 187 L90 187 C90 187 85 165 84 126 C82 28 124 -5 198 -7 L198 -74 L208 -74 L208 -7 C287 -7 336 32 330 126 L330 126 Z M129 587 C129 654 145 700 195 700 C196 700 197 700 198 700 L198 398 C160 464 129 530 129 587 L129 587 Z M208 0 L208 268 C243 206 273 151 276 113 C282 43 257 1 208 0 L208 0 Z " />
<glyph glyph-name="percent" unicode="&#x25;" horiz-adv-x="742" d="M560 700 L171 0 L181 0 L570 700 L560 700 Z M364 565 C364 630 316 707 219 707 C123 707 75 630 75 565 C75 500 123 423 219 423 C316 423 364 500 364 565 L364 565 Z M132 565 C132 624 147 701 219 701 C292 701 307 624 307 565 C307 506 292 429 219 429 C147 429 132 506 132 565 L132 565 Z M523 278 C427 278 379 200 379 136 C379 71 427 -7 523 -7 C619 -7 667 71 667 136 C667 200 619 278 523 278 L523 278 Z M523 0 C451 0 435 76 435 136 C435 195 451 271 523 271 C595 271 611 195 611 136 C611 76 595 0 523 0 L523 0 Z " />
<glyph glyph-name="ampersand" unicode="&#x26;" horiz-adv-x="489" d="M414 228 L360 228 C360 228 361 161 340 100 C312 167 274 255 238 340 L414 340 L414 350 L234 350 C192 450 154 544 139 587 C139 663 168 700 218 700 C268 700 297 659 297 587 L297 508 L351 508 L351 574 C351 674 298 707 218 707 C138 707 85 674 85 574 L180 350 L85 350 L85 126 C85 26 148 -7 227 -7 C266 -7 296 4 320 22 L333 -7 L387 -7 C387 -7 376 19 358 60 C409 130 414 228 414 228 L414 228 Z M227 0 C177 0 139 41 139 113 L139 340 L185 340 L311 43 C292 18 265 0 227 0 L227 0 Z " />
<glyph glyph-name="quotesingle" unicode="&#x27;" horiz-adv-x="164" d="M82 761 C34 761 80 641 80 641 L84 641 C84 641 130 761 82 761 L82 761 Z " />
<glyph glyph-name="parenleft" unicode="&#x28;" horiz-adv-x="254" d="M199 774 C198 774 194 774 193 774 C117 635 75 495 75 350 C75 206 117 65 193 -74 C194 -74 198 -74 199 -74 C146 23 88 187 88 350 C88 513 146 678 199 774 L199 774 Z " />
<glyph glyph-name="parenright" unicode="&#x29;" horiz-adv-x="253" d="M61 774 C60 774 56 774 55 774 C108 678 166 513 166 350 C166 187 108 23 55 -74 C56 -74 60 -74 61 -74 C137 65 178 206 178 350 C178 495 137 635 61 774 L61 774 Z " />
<glyph glyph-name="asterisk" unicode="&#x2a;" horiz-adv-x="247" d="M187 754 L185 761 L127 742 L127 803 L120 803 L120 742 L62 761 L60 754 L118 735 L82 686 L88 682 L124 731 L160 682 L165 686 L130 735 L187 754 Z " />
<glyph glyph-name="plus" unicode="&#x2b;" horiz-adv-x="413" d="M353 362 L212 362 L212 503 L202 503 L202 362 L60 362 L60 352 L202 352 L202 211 L212 211 L212 352 L353 352 L353 362 Z " />
<glyph glyph-name="comma" unicode="&#x2c;" horiz-adv-x="178" d="M117 14 C119 28 114 48 93 50 C77 52 63 41 61 25 C59 10 70 -5 86 -7 C93 -8 100 -6 105 -2 C105 -2 100 -27 76 -45 C78 -47 81 -50 81 -50 C81 -50 112 -25 117 14 L117 14 Z " />
<glyph glyph-name="hyphen" unicode="&#x2d;" horiz-adv-x="375" d="M60 362 L60 352 L315 352 L315 362 L60 362 Z " />
<glyph glyph-name="period" unicode="&#x2e;" horiz-adv-x="177" d="M88 51 C73 51 60 38 60 22 C60 6 73 -7 88 -7 C104 -7 117 6 117 22 C117 38 104 51 88 51 L88 51 Z " />
<glyph glyph-name="slash" unicode="&#x2f;" horiz-adv-x="314" d="M254 774 L50 -74 L60 -74 L264 774 L254 774 Z " />
<glyph glyph-name="zero" unicode="0" horiz-adv-x="407" d="M203 0 C203 0 203 0 203 0 C203 0 203 0 203 0 L203 0 Z M203 700 C203 700 203 700 203 700 C203 700 203 700 203 700 L203 700 Z M322 518 C322 631 290 707 203 707 C117 707 85 631 85 518 C85 510 85 356 85 348 C85 340 85 189 85 181 C85 69 117 -7 203 -7 C290 -7 322 69 322 181 C322 189 322 340 322 348 C322 356 322 510 322 518 L322 518 Z M270 168 C270 85 260 0 203 0 C146 0 137 85 137 168 C137 181 137 335 136 348 C137 360 137 519 137 531 C137 614 146 700 203 700 C260 700 270 614 270 531 C270 519 270 360 270 348 C270 335 270 181 270 168 L270 168 Z " />
<glyph glyph-name="one" unicode="1" horiz-adv-x="267" d="M40 644 L40 634 L130 669 L130 0 L182 0 L182 700 L40 644 Z " />
<glyph glyph-name="two" unicode="2" horiz-adv-x="364" d="M299 574 C299 676 262 707 182 707 C103 707 65 672 66 574 C66 535 72 513 72 513 L122 513 C122 513 116 548 116 587 C116 657 132 700 182 700 C233 700 249 653 249 587 C249 405 65 280 65 0 C134 0 289 0 289 0 L289 47 C289 47 162 47 79 47 C79 289 299 389 299 574 L299 574 Z " />
<glyph glyph-name="three" unicode="3" horiz-adv-x="366" d="M128 420 L274 664 L274 700 L85 700 L85 653 L255 653 L113 415 L116 408 C116 408 144 416 172 411 C261 393 248 269 248 168 C248 85 239 0 182 0 C132 0 116 43 116 113 C116 152 121 187 121 187 L71 187 C71 187 65 165 65 126 C65 28 102 -7 182 -7 C268 -7 300 69 300 181 C300 293 309 466 128 420 L128 420 Z " />
<glyph glyph-name="four" unicode="4" horiz-adv-x="336" d="M301 161 L253 161 L253 700 L243 700 L40 157 L40 154 L40 154 L40 151 L201 151 L201 0 L253 0 L253 151 L301 151 L301 161 Z M53 161 L201 555 L201 161 L53 161 Z " />
<glyph glyph-name="five" unicode="5" horiz-adv-x="355" d="M99 418 L118 653 L284 653 L284 700 L112 700 L90 415 L93 408 C93 408 140 416 168 411 C257 393 243 269 243 168 C243 85 234 0 177 0 C127 0 111 43 111 113 C111 152 116 187 116 187 L66 187 C66 187 61 165 61 126 C60 28 97 -7 177 -7 C264 -7 295 69 295 181 C295 293 295 463 99 418 L99 418 Z " />
<glyph glyph-name="six" unicode="6" horiz-adv-x="367" d="M183 0 C183 0 183 0 183 0 C183 0 183 0 183 0 L183 0 Z M183 418 C183 418 183 418 183 418 C183 418 183 418 183 418 L183 418 Z M183 426 C125 426 91 391 75 334 C79 509 104 671 196 671 C231 671 259 652 287 629 C287 631 287 677 287 679 C253 697 232 707 207 707 C80 707 65 457 65 205 C65 91 97 -7 183 -7 C270 -7 302 78 302 209 C302 341 270 426 183 426 L183 426 Z M183 0 C126 0 116 113 116 205 C116 298 126 418 183 418 C240 418 250 324 250 209 C250 94 240 0 183 0 L183 0 Z " />
<glyph glyph-name="seven" unicode="7" horiz-adv-x="309" d="M254 700 L65 700 L65 653 L247 653 C154 494 84 261 84 0 C98 0 130 0 144 0 C134 220 176 522 254 653 L254 700 Z " />
<glyph glyph-name="eight" unicode="8" horiz-adv-x="358" d="M203 414 C247 425 287 469 287 559 C287 664 235 707 179 707 C123 707 71 664 71 559 C71 469 111 425 155 414 C87 398 60 312 60 204 C60 83 93 -7 179 -7 C265 -7 298 83 298 204 C298 312 271 398 203 414 L203 414 Z M122 559 C122 631 128 700 179 700 C230 700 236 631 236 559 C236 487 230 418 179 418 C128 418 122 487 122 559 L122 559 Z M179 0 C122 0 113 107 113 204 C113 300 122 409 179 409 C236 409 245 300 245 204 C245 107 236 0 179 0 L179 0 Z " />
<glyph glyph-name="nine" unicode="9" horiz-adv-x="357" d="M178 700 C178 700 179 700 178 700 C178 700 179 700 178 700 L178 700 Z M178 281 C179 281 178 281 178 281 C179 281 178 281 178 281 L178 281 Z M178 274 C237 274 271 308 286 366 C282 190 258 29 165 29 C130 29 103 48 75 70 C75 68 75 23 75 20 C109 2 130 -7 154 -7 C282 -7 297 242 297 494 C297 609 265 707 178 707 C92 707 60 622 60 490 C60 359 92 274 178 274 L178 274 Z M178 700 C236 700 245 587 245 494 C245 402 236 281 178 281 C121 281 112 376 112 490 C112 605 121 700 178 700 L178 700 Z " />
<glyph glyph-name="colon" unicode="&#x3a;" horiz-adv-x="177" d="M89 51 C73 51 60 38 60 22 C60 6 73 -7 89 -7 C105 -7 117 6 117 22 C117 38 105 51 89 51 L89 51 Z M89 432 C73 432 60 419 60 403 C60 388 73 375 89 375 C105 375 117 388 117 403 C117 419 105 432 89 432 L89 432 Z " />
<glyph glyph-name="semicolon" unicode="&#x3b;" horiz-adv-x="178" d="M89 432 C73 432 60 419 60 403 C60 388 73 375 89 375 C105 375 118 388 118 403 C118 419 105 432 89 432 L89 432 Z M117 14 C119 28 114 48 93 50 C77 52 63 41 61 25 C59 10 70 -5 86 -7 C93 -8 100 -6 106 -2 C106 -2 101 -27 77 -45 C78 -47 82 -50 82 -50 C82 -50 113 -25 117 14 L117 14 Z " />
<glyph glyph-name="less" unicode="&#x3c;" horiz-adv-x="319" d="M234 336 L232 346 L40 185 L40 175 L232 14 L234 24 L62 180 L234 336 Z " />
<glyph glyph-name="equal" unicode="&#x3d;" horiz-adv-x="413" d="M60 418 L60 408 L353 408 L353 418 L60 418 Z M60 297 L353 297 L353 306 L60 306 L60 297 Z " />
<glyph glyph-name="greater" unicode="&#x3e;" horiz-adv-x="294" d="M62 346 L60 336 L232 180 L60 24 L62 14 L254 175 L254 185 L62 346 Z " />
<glyph glyph-name="question" unicode="&#x3f;" horiz-adv-x="363" d="M182 700 C232 700 248 653 248 587 C248 415 147 350 147 98 C150 98 155 98 159 98 C159 344 298 389 298 574 C298 676 261 707 182 707 C102 707 65 672 65 574 C65 535 71 513 71 513 L121 513 C121 513 115 548 115 587 C115 657 131 700 182 700 L182 700 Z M154 51 C139 51 126 38 126 22 C126 6 139 -7 154 -7 C170 -7 183 6 183 22 C183 38 170 51 154 51 L154 51 Z " />
<glyph glyph-name="at" unicode="&#x40;" horiz-adv-x="798" d="M438 552 C136 566 57 350 44 241 C15 -4 158 -120 306 -150 C471 -185 586 -107 606 -98 L603 -89 C573 -111 449 -173 307 -141 C88 -92 30 82 53 239 C77 402 186 556 437 543 C668 531 763 351 747 207 C731 58 648 -23 567 -13 C536 -9 531 28 540 74 C560 177 594 334 594 334 C594 334 521 409 420 404 C303 398 234 333 214 208 C194 78 254 -13 369 -13 C425 -13 468 21 488 56 C501 -9 546 -20 567 -22 C642 -27 740 35 756 207 C771 361 673 541 438 552 L438 552 Z M369 -3 C275 -3 247 89 269 195 C292 301 324 385 410 393 C459 397 499 374 538 335 C495 102 463 -3 369 -3 L369 -3 Z " />
<glyph glyph-name="A" unicode="A" horiz-adv-x="361" d="M287 0 L341 0 L174 700 L20 0 L30 0 L82 234 L231 234 L287 0 L287 0 Z M84 244 L154 560 L229 244 L84 244 L84 244 Z " />
<glyph glyph-name="B" unicode="B" horiz-adv-x="396" d="M208 242 C302 269 342 369 342 468 C342 584 289 700 157 700 C151 700 85 700 85 700 L85 0 C85 0 152 0 160 0 C292 0 346 52 346 123 C346 185 305 231 208 242 L208 242 Z M147 691 C238 691 282 591 282 468 C282 345 238 245 147 245 C144 245 142 245 139 245 L139 691 C142 691 144 691 147 691 L147 691 Z M166 10 C156 10 147 10 139 10 L139 235 C147 235 156 235 166 235 C257 235 286 176 286 123 C286 71 257 10 166 10 L166 10 Z " />
<glyph glyph-name="C" unicode="C" horiz-adv-x="636" d="M401 700 C470 700 538 684 596 649 L596 658 C542 690 477 707 401 707 C177 707 40 548 40 350 C40 153 177 -7 401 -7 C477 -7 542 11 596 42 L596 52 C538 17 470 0 401 0 C218 0 103 157 103 350 C103 544 218 700 401 700 L401 700 Z " />
<glyph glyph-name="D" unicode="D" horiz-adv-x="680" d="M221 700 C209 700 85 700 85 700 L85 0 C85 0 209 0 221 0 C517 0 630 159 630 350 C630 541 517 700 221 700 L221 700 Z M221 10 C206 10 172 10 139 10 L139 691 C172 691 206 691 221 691 C458 691 569 526 569 350 C569 174 458 10 221 10 L221 10 Z " />
<glyph glyph-name="E" unicode="E" horiz-adv-x="439" d="M140 10 L140 346 L335 346 L335 356 L140 356 L140 691 L355 691 L355 700 L85 700 L85 0 L374 0 L374 10 L140 10 Z " />
<glyph glyph-name="F" unicode="F" horiz-adv-x="420" d="M355 691 L355 700 L85 700 L85 0 L139 0 L139 346 L335 346 L335 356 L139 356 L139 691 L355 691 Z " />
<glyph glyph-name="G" unicode="G" horiz-adv-x="718" d="M579 356 L579 39 C529 13 459 0 401 0 C218 0 103 157 103 350 C103 544 218 700 401 700 C470 700 538 684 596 649 L596 658 C542 690 476 707 401 707 C177 707 40 548 40 350 C40 153 177 -7 401 -7 C468 -7 537 7 587 33 C603 41 618 50 633 61 L633 356 L579 356 Z " />
<glyph glyph-name="H" unicode="H" horiz-adv-x="655" d="M515 700 L515 355 L139 355 L139 700 L85 700 L85 0 L139 0 L139 345 L515 345 L515 0 L570 0 L570 700 L515 700 Z " />
<glyph glyph-name="I" unicode="I" horiz-adv-x="224" d="M85 700 L85 0 L139 0 L139 700 L85 700 Z " />
<glyph glyph-name="J" unicode="J" horiz-adv-x="254" d="M-6 700 L-6 691 L114 691 L114 -91 C114 -163 95 -222 44 -222 C-6 -222 -25 -172 -25 -100 L-25 -67 L-80 -67 L-80 -87 C-80 -187 -35 -230 44 -230 C124 -230 169 -178 169 -78 L169 700 L-6 700 Z " />
<glyph glyph-name="K" unicode="K" horiz-adv-x="409" d="M307 0 L369 0 L252 318 C332 453 343 700 343 700 L333 700 C333 700 311 257 139 243 L139 700 L85 700 L85 0 L139 0 L139 234 C168 236 193 249 215 269 L307 0 Z " />
<glyph glyph-name="L" unicode="L" horiz-adv-x="376" d="M139 10 L139 700 L85 700 L85 0 L336 0 L336 10 L139 10 Z " />
<glyph glyph-name="M" unicode="M" horiz-adv-x="690" d="M499 700 L346 118 L177 700 L40 0 L50 0 L160 565 L320 0 L326 0 L478 586 L590 0 L645 0 L499 700 Z " />
<glyph glyph-name="N" unicode="N" horiz-adv-x="513" d="M428 700 L374 700 L374 116 L94 700 L85 700 L85 0 L139 0 L139 586 L418 0 L428 0 L428 700 Z " />
<glyph glyph-name="O" unicode="O" horiz-adv-x="803" d="M402 707 C177 707 40 548 40 350 C40 153 177 -7 402 -7 C626 -7 763 153 763 350 C763 548 626 707 402 707 L402 707 Z M402 0 C218 0 103 157 103 350 C103 544 218 700 402 700 C585 700 700 544 700 350 C700 157 585 0 402 0 L402 0 Z " />
<glyph glyph-name="P" unicode="P" horiz-adv-x="449" d="M144 700 C142 700 85 700 85 700 L85 0 L139 0 L139 161 C140 161 142 161 144 161 C275 161 409 241 409 431 C409 621 275 700 144 700 L144 700 Z M153 171 C148 171 143 171 139 171 L139 691 C143 691 148 691 153 691 C244 691 349 597 349 431 C349 265 244 171 153 171 L153 171 Z " />
<glyph glyph-name="Q" unicode="Q" horiz-adv-x="802" d="M335 -63 L630 -103 L631 -86 L335 -53 L335 -63 Z M401 707 C177 707 40 547 40 350 C40 152 177 -7 401 -7 C625 -7 762 152 762 350 C762 547 625 707 401 707 L401 707 Z M401 0 C218 0 103 157 103 350 C103 543 218 700 401 700 C584 700 699 543 699 350 C699 157 584 0 401 0 L401 0 Z " />
<glyph glyph-name="R" unicode="R" horiz-adv-x="453" d="M413 0 L315 180 C371 225 410 299 410 412 C410 623 276 700 144 700 C143 700 85 700 85 700 L85 0 L140 0 L140 124 C141 124 143 124 144 124 C186 124 228 132 266 149 L347 0 L413 0 Z M140 134 L140 691 C144 691 149 691 154 691 C244 691 350 612 350 412 C350 213 244 134 154 134 C149 134 144 134 140 134 L140 134 Z " />
<glyph glyph-name="S" unicode="S" horiz-adv-x="273" d="M122 581 C127 644 157 700 207 700 L207 707 C138 707 79 670 68 568 C49 394 164 269 158 130 C155 54 110 0 59 0 L59 -7 C139 -7 205 41 212 146 C223 300 109 411 122 581 L122 581 Z " />
<glyph glyph-name="T" unicode="T" horiz-adv-x="492" d="M452 700 L40 700 L40 691 L219 691 L219 0 L273 0 L273 691 L452 691 L452 700 Z " />
<glyph glyph-name="U" unicode="U" horiz-adv-x="654" d="M560 700 L560 215 C560 82 460 0 349 0 C259 0 139 67 139 206 L139 700 L85 700 L85 222 C85 46 238 -7 349 -7 C460 -7 569 65 569 222 L569 700 L560 700 Z " />
<glyph glyph-name="V" unicode="V" horiz-adv-x="446" d="M234 0 L406 700 L397 700 L255 120 L94 700 L40 700 L234 0 Z " />
<glyph glyph-name="W" unicode="W" horiz-adv-x="741" d="M234 0 L377 581 L536 0 L701 700 L691 700 L553 110 L403 700 L397 700 L255 120 L94 700 L40 700 L234 0 Z " />
<glyph glyph-name="X" unicode="X" horiz-adv-x="460" d="M405 0 L249 374 L401 700 L391 700 L244 385 L112 700 L55 700 L213 320 L60 0 L70 0 L218 309 L347 0 L405 0 Z " />
<glyph glyph-name="Y" unicode="Y" horiz-adv-x="504" d="M464 700 L454 700 L297 277 L96 700 L40 700 L249 265 L249 0 L303 0 L302 265 L464 700 Z " />
<glyph glyph-name="Z" unicode="Z" horiz-adv-x="443" d="M388 700 L81 700 L81 690 L330 690 L45 0 L370 0 L370 10 L103 10 L388 700 Z " />
<glyph glyph-name="bracketleft" unicode="&#x5b;" horiz-adv-x="325" d="M285 764 L285 774 L85 774 L85 -74 L285 -74 L285 -64 L95 -64 L95 764 L285 764 Z " />
<glyph glyph-name="backslash" unicode="&#x5c;" horiz-adv-x="313" d="M60 774 L50 774 L253 -74 L263 -74 L60 774 Z " />
<glyph glyph-name="bracketright" unicode="&#x5d;" horiz-adv-x="325" d="M40 774 L40 764 L230 764 L230 -64 L40 -64 L40 -74 L240 -74 L240 774 L40 774 Z " />
<glyph glyph-name="asciicircum" unicode="&#x5e;" horiz-adv-x="409" d="M209 774 L200 774 L60 607 L69 605 L204 755 L340 605 L349 607 L209 774 Z " />
<glyph glyph-name="underscore" unicode="&#x5f;" horiz-adv-x="450" d="M60 -25 L60 -35 L390 -35 L390 -25 L60 -25 Z " />
<glyph glyph-name="grave" unicode="&#x60;" horiz-adv-x="240" d="M60 665 L178 550 L180 560 L82 669 L60 665 Z " />
<glyph glyph-name="a" unicode="a" horiz-adv-x="361" d="M286 0 L341 0 L174 700 L120 700 L148 582 L20 0 L30 0 L81 234 L231 234 L286 0 Z M84 244 L153 560 L228 244 L84 244 Z " />
<glyph glyph-name="b" unicode="b" horiz-adv-x="354" d="M193 359 C263 378 282 436 282 517 L282 535 C282 635 252 700 134 700 C130 700 70 700 70 700 L70 0 C70 0 142 0 156 0 C275 0 304 65 304 165 L304 197 C304 285 281 347 193 359 L193 359 Z M134 690 C215 690 228 622 228 548 L228 504 C228 430 215 362 134 362 C130 362 127 362 124 362 L124 690 C127 690 130 690 134 690 L134 690 Z M250 152 C250 78 238 10 156 10 C142 10 131 10 124 10 L124 351 C131 351 142 351 156 351 C238 351 250 284 250 210 L250 152 Z " />
<glyph glyph-name="c" unicode="c" horiz-adv-x="406" d="M336 508 L336 574 C336 674 282 708 203 708 C123 708 70 674 70 574 L70 126 C70 26 123 -8 203 -8 C282 -8 336 26 336 126 L336 193 L282 193 L282 113 C282 41 253 1 203 0 C153 1 124 41 124 113 L124 587 C124 659 153 700 203 700 C253 700 282 659 282 587 L282 508 L336 508 Z " />
<glyph glyph-name="d" unicode="d" horiz-adv-x="410" d="M174 700 C153 700 70 700 70 700 L70 0 C70 0 153 0 174 0 C292 0 340 60 340 160 L340 541 C340 641 292 700 174 700 L174 700 Z M286 147 C286 73 255 10 174 10 C154 10 137 10 124 10 L124 690 C137 690 154 690 174 690 C255 690 286 628 286 554 L286 147 Z " />
<glyph glyph-name="e" unicode="e" horiz-adv-x="277" d="M114 10 L114 346 L198 346 L198 356 L114 356 L114 690 L218 690 L218 700 L60 700 L60 0 L237 0 L237 10 L114 10 Z " />
<glyph glyph-name="f" unicode="f" horiz-adv-x="284" d="M229 690 L229 700 L70 700 L70 0 L124 0 L124 345 L210 345 L210 355 L124 355 L124 690 L229 690 Z " />
<glyph glyph-name="g" unicode="g" horiz-adv-x="406" d="M336 508 L336 583 C336 678 283 708 203 708 C123 708 70 678 70 583 L70 117 C70 23 123 -8 203 -8 C257 -8 300 7 321 46 L326 0 L336 0 L336 304 L210 304 L210 294 L282 294 L282 104 C282 38 253 0 203 0 C153 0 124 38 124 104 L124 596 C124 663 153 700 203 700 C253 700 282 663 282 596 L282 508 L336 508 Z " />
<glyph glyph-name="h" unicode="h" horiz-adv-x="384" d="M260 700 L260 355 L125 355 L125 700 L70 700 L70 0 L125 0 L125 345 L260 345 L260 0 L314 0 L314 700 L260 700 Z " />
<glyph glyph-name="i" unicode="i" horiz-adv-x="194" d="M70 700 L70 0 L124 0 L124 700 L70 700 Z " />
<glyph glyph-name="j" unicode="j" horiz-adv-x="203" d="M35 700 L35 690 L79 690 L79 54 C79 -18 50 -74 0 -74 L0 -81 C79 -81 133 -31 133 67 L133 700 L35 700 Z " />
<glyph glyph-name="k" unicode="k" horiz-adv-x="383" d="M292 0 L353 0 L198 431 L309 700 L299 700 L124 275 L124 700 L70 700 L70 0 L124 0 L124 251 L168 358 L292 0 Z " />
<glyph glyph-name="l" unicode="l" horiz-adv-x="262" d="M124 10 L124 700 L70 700 L70 0 L247 0 L247 10 L124 10 Z " />
<glyph glyph-name="m" unicode="m" horiz-adv-x="484" d="M402 700 L247 261 L84 700 L30 700 L73 585 L73 0 L83 0 L83 559 L221 186 L231 186 L360 552 L360 0 L414 0 L414 700 L402 700 Z " />
<glyph glyph-name="n" unicode="n" horiz-adv-x="369" d="M284 700 L284 159 L94 700 L40 700 L73 602 L73 0 L83 0 L83 573 L284 0 L294 0 L294 700 L284 700 Z " />
<glyph glyph-name="o" unicode="o" horiz-adv-x="406" d="M203 708 C124 708 70 674 70 574 L70 126 C70 26 124 -8 203 -8 C283 -8 336 26 336 126 L336 574 C336 674 283 708 203 708 L203 708 Z M282 113 C282 41 253 0 203 0 C153 0 124 41 124 113 L124 587 C124 659 153 700 203 700 C253 700 282 659 282 587 L282 113 Z " />
<glyph glyph-name="p" unicode="p" horiz-adv-x="336" d="M138 700 C133 700 70 700 70 700 L70 0 L124 0 L124 322 C128 322 133 322 138 322 C256 322 286 387 286 487 L286 535 C286 635 256 700 138 700 L138 700 Z M232 474 C232 400 219 332 138 332 C133 332 128 332 124 332 L124 690 C128 690 133 690 138 690 C219 690 232 622 232 548 L232 474 Z " />
<glyph glyph-name="q" unicode="q" horiz-adv-x="406" d="M172 -50 L335 -82 L336 -67 L172 -42 L172 -50 Z M203 707 C124 707 70 674 70 574 L70 126 C70 26 124 -7 203 -7 C283 -7 336 26 336 126 L336 574 C336 674 283 707 203 707 L203 707 Z M282 113 C282 41 253 0 203 0 C153 0 124 41 124 113 L124 587 C124 659 153 700 203 700 C253 700 282 659 282 587 L282 113 Z " />
<glyph glyph-name="r" unicode="r" horiz-adv-x="346" d="M311 0 L222 320 C271 345 286 398 286 468 L286 535 C286 635 256 700 138 700 C133 700 70 700 70 700 L70 0 L124 0 L124 304 C128 304 133 304 138 304 C151 304 163 304 173 306 L255 0 L311 0 Z M124 313 L124 690 C128 690 133 690 138 690 C219 690 232 622 232 548 L232 455 C232 381 219 313 138 313 C133 313 128 313 124 313 L124 313 Z " />
<glyph glyph-name="s" unicode="s" horiz-adv-x="346" d="M99 587 C99 654 115 700 165 700 C215 700 231 657 231 587 C231 548 226 513 226 513 L280 513 C280 513 285 535 285 574 C286 672 245 707 165 707 C85 707 45 676 45 574 C45 435 237 213 246 113 C252 43 227 0 177 0 C127 0 109 44 108 113 C107 154 114 187 114 187 L60 187 C60 187 55 165 54 126 C52 24 97 -7 177 -7 C257 -7 306 32 300 126 C292 248 99 444 99 587 L99 587 Z " />
<glyph glyph-name="t" unicode="t" horiz-adv-x="313" d="M283 700 L20 700 L20 690 L125 690 L125 0 L179 0 L179 690 L283 690 L283 700 Z " />
<glyph glyph-name="u" unicode="u" horiz-adv-x="406" d="M282 700 L282 113 C282 41 253 0 203 0 C153 0 124 41 124 113 L124 700 L70 700 L70 126 C70 26 124 -7 203 -7 C283 -7 336 26 336 126 L336 700 L282 700 Z " />
<glyph glyph-name="v" unicode="v" horiz-adv-x="340" d="M30 700 L170 0 L180 0 L310 700 L300 700 L194 131 L93 700 L30 700 Z " />
<glyph glyph-name="w" unicode="w" horiz-adv-x="492" d="M452 700 L346 131 L287 465 L332 700 L322 700 L283 489 L245 700 L182 700 L243 394 L195 131 L93 700 L30 700 L171 0 L180 0 L248 368 L322 0 L332 0 L462 700 L452 700 Z " />
<glyph glyph-name="x" unicode="x" horiz-adv-x="294" d="M259 0 L164 367 L237 700 L227 700 L159 388 L78 700 L20 700 L118 322 L44 0 L54 0 L123 302 L202 0 L259 0 Z " />
<glyph glyph-name="y" unicode="y" horiz-adv-x="313" d="M273 700 L263 700 L178 322 L71 700 L15 700 L132 309 L132 0 L186 0 L185 307 L273 700 Z " />
<glyph glyph-name="z" unicode="z" horiz-adv-x="266" d="M86 10 L225 700 L48 700 L48 690 L169 690 L30 0 L226 0 L226 10 L86 10 Z " />
<glyph glyph-name="braceleft" unicode="&#x7b;" horiz-adv-x="264" d="M119 477 C119 739 121 806 224 806 L224 815 C106 815 110 733 110 477 C110 422 87 396 40 396 L40 387 C87 387 110 362 110 307 C110 50 106 -31 224 -31 L224 -22 C121 -22 119 45 119 307 C119 353 103 381 72 392 C103 402 119 430 119 477 L119 477 Z " />
<glyph glyph-name="bar" unicode="&#x7c;" horiz-adv-x="180" d="M85 774 L85 -74 L95 -74 L95 774 L85 774 Z " />
<glyph glyph-name="braceright" unicode="&#x7d;" horiz-adv-x="264" d="M154 477 C154 733 158 815 40 815 L40 806 C143 806 145 739 145 477 C145 430 161 402 192 392 C161 381 145 353 145 307 C145 45 143 -22 40 -22 L40 -31 C158 -31 154 50 154 307 C154 362 176 387 224 387 L224 396 C176 396 154 422 154 477 L154 477 Z " />
<glyph glyph-name="asciitilde" unicode="&#x7e;" horiz-adv-x="466" d="M324 256 C343 256 360 262 374 273 C392 287 404 309 406 335 L397 336 C395 312 384 292 368 280 C352 267 331 263 307 267 C272 273 253 294 233 317 C214 338 195 360 161 367 C136 373 112 368 93 354 C73 339 61 314 60 284 L69 284 C70 311 81 333 99 347 C115 359 136 363 159 358 C190 351 207 331 226 311 C246 288 267 265 305 258 C312 257 318 256 324 256 L324 256 Z " />
<glyph glyph-name="exclamdown" unicode="&#xa1;" horiz-adv-x="177" d="M89 455 C105 455 117 468 117 484 C117 500 105 513 89 513 C73 513 60 500 60 484 C60 468 73 455 89 455 L89 455 Z M82 407 C82 407 62 -71 62 -134 C62 -181 69 -195 88 -195 C107 -195 114 -181 114 -134 C114 -71 94 407 94 407 L82 407 Z " />
<glyph glyph-name="cent" unicode="&#xa2;" horiz-adv-x="386" d="M326 230 L326 260 C326 357 275 391 198 393 L198 460 L188 460 L188 393 C111 391 60 357 60 260 L60 126 C60 28 111 -6 188 -7 L188 -74 L198 -74 L198 -7 C275 -6 326 28 326 126 L326 156 L272 156 L272 113 C272 43 245 3 198 0 L198 385 C245 383 272 342 272 272 L272 230 L326 230 Z M114 113 L114 272 C114 342 141 383 188 385 L188 0 C141 3 114 43 114 113 L114 113 Z " />
<glyph glyph-name="sterling" unicode="&#xa3;" horiz-adv-x="382" d="M94 10 C132 125 139 240 138 349 L295 349 L295 359 L137 359 C136 440 130 517 130 587 C130 654 147 700 197 700 C247 700 263 658 263 587 C263 548 257 513 257 513 L308 513 C308 513 313 535 313 574 C314 672 276 707 197 707 C117 707 80 676 80 574 C80 496 93 430 102 359 L30 359 L30 349 L103 349 C115 255 119 151 78 0 C79 0 342 0 342 0 L342 10 L94 10 Z " />
<glyph glyph-name="currency" unicode="&#xa4;" horiz-adv-x="505" d="M397 208 C397 238 386 271 365 298 L445 378 L438 385 L358 306 C334 332 299 350 252 350 C206 350 171 332 147 306 L67 385 L60 378 L140 298 C119 272 108 238 108 208 C108 171 123 130 154 102 L60 7 L67 0 L162 95 C185 77 215 66 252 66 C290 66 320 77 343 95 L438 0 L445 7 L351 102 C381 130 397 171 397 208 L397 208 Z M252 72 C180 72 165 148 165 208 C165 267 180 343 252 343 C325 343 340 267 340 208 C340 148 325 72 252 72 L252 72 Z " />
<glyph glyph-name="yen" unicode="&#xa5;" horiz-adv-x="328" d="M288 307 L288 317 L202 317 L288 700 L278 700 L193 322 L86 700 L30 700 L144 317 L42 317 L42 307 L146 307 L146 265 L42 265 L42 255 L146 255 L146 0 L200 0 L200 255 L288 255 L288 265 L200 265 L200 307 L288 307 Z " />
<glyph glyph-name="brokenbar" unicode="&#xa6;" horiz-adv-x="180" d="M85 -74 L95 -74 L95 200 L85 200 L85 -74 Z M85 774 L85 500 L95 500 L95 774 L85 774 Z " />
<glyph glyph-name="section" unicode="&#xa7;" horiz-adv-x="467" d="M391 124 C373 276 239 364 219 534 C212 596 231 656 280 666 L279 673 C227 663 185 633 172 574 C111 558 66 510 74 414 C89 240 226 138 247 1 C258 -74 224 -136 175 -145 L176 -152 C232 -141 276 -108 292 -51 C358 -29 402 29 391 124 L391 124 Z M295 -38 C299 -19 299 3 297 28 C278 180 145 268 125 437 C119 493 133 547 170 565 C168 549 167 531 169 511 C184 336 321 235 341 97 C350 36 329 -16 295 -38 L295 -38 Z " />
<glyph glyph-name="dieresis" unicode="&#xa8;" horiz-adv-x="276" d="M89 623 C73 623 60 610 60 594 C60 578 73 565 89 565 C105 565 117 578 117 594 C117 610 105 623 89 623 L89 623 Z M187 623 C171 623 158 610 158 594 C158 578 171 565 187 565 C203 565 216 578 216 594 C216 610 203 623 187 623 L187 623 Z " />
<glyph glyph-name="guillemotleft" unicode="&#xab;" horiz-adv-x="409" d="M369 336 L367 346 L175 185 L175 175 L367 14 L369 24 L197 180 L369 336 Z M255 336 L252 346 L60 185 L60 175 L252 14 L255 24 L82 180 L255 336 Z " />
<glyph glyph-name="macron" unicode="&#xaf;" horiz-adv-x="399" d="M314 599 L85 599 L85 589 L314 589 L314 599 Z " />
<glyph glyph-name="degree" unicode="&#xb0;" horiz-adv-x="382" d="M191 593 C250 593 297 640 297 699 C297 758 250 806 191 806 C132 806 85 758 85 699 C85 640 132 593 191 593 L191 593 Z M191 796 C245 796 288 753 288 699 C288 646 245 602 191 602 C137 602 94 646 94 699 C94 753 137 796 191 796 L191 796 Z " />
<glyph glyph-name="plusminus" unicode="&#xb1;" horiz-adv-x="413" d="M60 206 L353 206 L353 216 L60 216 L60 206 Z M212 455 L212 597 L202 597 L202 455 L60 455 L60 445 L202 445 L202 304 L212 304 L212 445 L353 445 L353 455 L212 455 Z " />
<glyph glyph-name="acute" unicode="&#xb4;" horiz-adv-x="290" d="M183 669 L85 560 L87 550 L205 665 L183 669 Z " />
<glyph glyph-name="paragraph" unicode="&#xb6;" horiz-adv-x="404" d="M309 756 L309 0 L319 0 L319 756 L309 756 Z M223 756 C122 754 40 671 40 568 C40 466 122 383 223 381 L223 0 L233 0 L233 756 L223 756 Z " />
<glyph glyph-name="periodcentered" unicode="&#xb7;" horiz-adv-x="227" d="M113 461 C98 461 85 448 85 432 C85 416 98 403 113 403 C129 403 142 416 142 432 C142 448 129 461 113 461 L113 461 Z " />
<glyph glyph-name="cedilla" unicode="&#xb8;" horiz-adv-x="271" d="M183 -104 C192 -75 174 -31 114 -50 L137 0 L129 0 L106 -55 L107 -57 C107 -57 119 -55 127 -56 C146 -57 146 -76 139 -102 C132 -130 109 -141 85 -144 L85 -150 C111 -152 171 -146 183 -104 L183 -104 Z " />
<glyph glyph-name="ordmasculine" unicode="&#xba;" horiz-adv-x="382" d="M191 593 C250 593 297 640 297 699 C297 758 250 806 191 806 C132 806 85 758 85 699 C85 640 132 593 191 593 L191 593 Z M191 796 C245 796 288 753 288 699 C288 646 245 602 191 602 C137 602 94 646 94 699 C94 753 137 796 191 796 L191 796 Z " />
<glyph glyph-name="guillemotright" unicode="&#xbb;" horiz-adv-x="409" d="M234 185 L42 346 L40 336 L212 180 L40 24 L42 14 L234 175 L234 185 Z M157 346 L154 336 L327 180 L154 24 L157 14 L349 175 L349 185 L157 346 Z " />
<glyph glyph-name="questiondown" unicode="&#xbf;" horiz-adv-x="353" d="M287 -8 L237 -8 C237 -8 242 -43 242 -82 C242 -152 226 -195 176 -195 C126 -195 110 -148 110 -82 C110 89 210 155 210 407 C208 407 202 407 199 407 C199 161 60 116 60 -69 C60 -171 97 -202 176 -202 C256 -202 293 -167 293 -69 C293 -30 287 -8 287 -8 L287 -8 Z M203 455 C219 455 232 468 232 484 C232 500 219 513 203 513 C188 513 175 500 175 484 C175 468 188 455 203 455 L203 455 Z " />
<glyph glyph-name="Agrave" unicode="&#xc0;" horiz-adv-x="361" d="M287 0 L341 0 L174 700 L20 0 L30 0 L82 234 L231 234 L287 0 L287 0 Z M84 244 L154 560 L229 244 L84 244 L84 244 Z M70 865 L188 750 L190 760 L92 869 L70 865 Z " />
<glyph glyph-name="Aacute" unicode="&#xc1;" horiz-adv-x="361" d="M287 0 L341 0 L174 700 L20 0 L30 0 L82 234 L231 234 L287 0 L287 0 Z M84 244 L154 560 L229 244 L84 244 L84 244 Z M268 869 L170 760 L172 750 L290 865 L268 869 Z " />
<glyph glyph-name="Acircumflex" unicode="&#xc2;" horiz-adv-x="361" d="M287 0 L341 0 L174 700 L20 0 L30 0 L82 234 L231 234 L287 0 L287 0 Z M84 244 L154 560 L229 244 L84 244 L84 244 Z M307 760 L189 869 L173 869 L54 760 L56 750 L181 858 L305 750 L307 760 Z " />
<glyph glyph-name="Atilde" unicode="&#xc3;" horiz-adv-x="361" d="M287 0 L341 0 L174 700 L20 0 L30 0 L82 234 L231 234 L287 0 L287 0 Z M84 244 L154 560 L229 244 L84 244 L84 244 Z M246 757 C260 757 272 761 283 769 C296 780 305 796 307 816 L297 816 C296 800 289 785 277 777 C266 768 251 765 234 768 C209 772 195 787 181 803 C167 818 153 834 128 840 C109 844 91 841 78 830 C63 819 54 801 53 779 L62 778 C63 797 71 813 83 823 C95 832 110 835 126 831 C148 826 160 812 174 797 C189 780 204 763 232 758 C237 758 241 757 246 757 L246 757 Z " />
<glyph glyph-name="Adieresis" unicode="&#xc4;" horiz-adv-x="361" d="M287 0 L341 0 L174 700 L20 0 L30 0 L82 234 L231 234 L287 0 L287 0 Z M84 244 L154 560 L229 244 L84 244 L84 244 Z M131 823 C115 823 102 810 102 794 C102 778 115 765 131 765 C147 765 159 778 159 794 C159 810 147 823 131 823 L131 823 Z M229 823 C213 823 200 810 200 794 C200 778 213 765 229 765 C245 765 258 778 258 794 C258 810 245 823 229 823 L229 823 Z " />
<glyph glyph-name="Aring" unicode="&#xc5;" horiz-adv-x="361" d="M287 0 L341 0 L174 700 L20 0 L30 0 L82 234 L231 234 L287 0 L287 0 Z M84 244 L154 560 L229 244 L84 244 L84 244 Z M181 755 C224 755 259 791 259 834 C259 878 224 913 181 913 C137 913 102 878 102 834 C102 791 137 755 181 755 L181 755 Z M181 904 C219 904 250 872 250 834 C250 796 219 765 181 765 C142 765 111 796 111 834 C111 872 142 904 181 904 L181 904 Z " />
<glyph glyph-name="AE" unicode="&#xc6;" horiz-adv-x="640" d="M341 10 L341 346 L536 346 L536 356 L341 356 L341 690 L557 690 L557 700 L287 700 L20 0 L30 0 L119 234 L287 234 L287 0 L575 0 L575 10 L341 10 Z M123 244 L287 673 L287 244 L123 244 Z " />
<glyph glyph-name="Ccedilla" unicode="&#xc7;" horiz-adv-x="635" d="M401 700 C469 700 538 683 595 648 L595 658 C541 689 476 707 401 707 C177 707 40 547 40 350 C40 153 176 -7 400 -7 L379 -55 L380 -57 C380 -57 392 -55 400 -56 C419 -57 419 -76 412 -102 C404 -129 382 -141 358 -144 L358 -150 C384 -152 443 -146 456 -104 C465 -75 447 -31 387 -50 L406 -7 C479 -6 543 12 595 42 L595 52 C538 17 469 0 401 0 C217 0 103 157 103 350 C103 543 217 700 401 700 L401 700 Z " />
<glyph glyph-name="Egrave" unicode="&#xc8;" horiz-adv-x="439" d="M140 10 L140 346 L335 346 L335 356 L140 356 L140 691 L355 691 L355 700 L85 700 L85 0 L374 0 L374 10 L140 10 Z M169 865 L287 750 L289 760 L191 869 L169 865 Z " />
<glyph glyph-name="Eacute" unicode="&#xc9;" horiz-adv-x="439" d="M140 10 L140 346 L335 346 L335 356 L140 356 L140 691 L355 691 L355 700 L85 700 L85 0 L374 0 L374 10 L140 10 Z M267 869 L169 760 L171 750 L289 865 L267 869 Z " />
<glyph glyph-name="Ecircumflex" unicode="&#xca;" horiz-adv-x="439" d="M140 10 L140 346 L335 346 L335 356 L140 356 L140 691 L355 691 L355 700 L85 700 L85 0 L374 0 L374 10 L140 10 Z M356 760 L238 869 L222 869 L103 760 L105 750 L230 858 L354 750 L356 760 Z " />
<glyph glyph-name="Edieresis" unicode="&#xcb;" horiz-adv-x="439" d="M140 10 L140 346 L335 346 L335 356 L140 356 L140 691 L355 691 L355 700 L85 700 L85 0 L374 0 L374 10 L140 10 Z M180 823 C164 823 151 810 151 794 C151 778 164 765 180 765 C196 765 208 778 208 794 C208 810 196 823 180 823 L180 823 Z M278 823 C262 823 249 810 249 794 C249 778 262 765 278 765 C294 765 307 778 307 794 C307 810 294 823 278 823 L278 823 Z " />
<glyph glyph-name="Igrave" unicode="&#xcc;" horiz-adv-x="222" d="M83 700 L83 0 L137 0 L137 700 L83 700 Z M10 865 L128 750 L130 760 L32 869 L10 865 Z " />
<glyph glyph-name="Iacute" unicode="&#xcd;" horiz-adv-x="222" d="M85 700 L85 0 L139 0 L139 700 L85 700 Z M190 869 L92 760 L94 750 L212 865 L190 869 Z " />
<glyph glyph-name="Icircumflex" unicode="&#xce;" horiz-adv-x="222" d="M84 700 L84 0 L138 0 L138 700 L84 700 Z M238 760 L120 869 L104 869 L-15 760 L-13 750 L112 858 L236 750 L238 760 Z " />
<glyph glyph-name="Idieresis" unicode="&#xcf;" horiz-adv-x="221" d="M86 700 L86 0 L140 0 L140 700 L86 700 Z M64 823 C48 823 35 810 35 794 C35 778 48 765 64 765 C80 765 92 778 92 794 C92 810 80 823 64 823 L64 823 Z M162 823 C146 823 133 810 133 794 C133 778 146 765 162 765 C178 765 191 778 191 794 C191 810 178 823 162 823 L162 823 Z " />
<glyph glyph-name="Eth" unicode="&#xd0;" horiz-adv-x="685" d="M226 700 C214 700 90 700 90 700 L90 356 L20 356 L20 346 L90 346 L90 0 C90 0 214 0 226 0 C522 0 635 159 635 350 C635 541 522 700 226 700 L226 700 Z M226 10 C212 10 178 10 144 10 L144 346 L306 346 L306 356 L144 356 L144 690 C178 690 212 690 226 690 C463 690 574 526 574 350 C574 174 463 10 226 10 L226 10 Z " />
<glyph glyph-name="Ntilde" unicode="&#xd1;" horiz-adv-x="513" d="M428 700 L374 700 L374 116 L94 700 L85 700 L85 0 L139 0 L139 586 L418 0 L428 0 L428 700 Z M322 757 C336 757 348 761 359 769 C372 780 381 796 383 816 L373 816 C372 800 365 785 353 777 C342 768 327 765 310 768 C285 772 271 787 257 803 C243 818 229 834 204 840 C185 844 167 841 154 830 C139 819 130 801 129 779 L138 778 C139 797 147 813 159 823 C171 832 186 835 202 831 C224 826 236 812 250 797 C265 780 280 763 308 758 C313 758 317 757 322 757 L322 757 Z " />
<glyph glyph-name="Ograve" unicode="&#xd2;" horiz-adv-x="803" d="M402 707 C177 707 40 548 40 350 C40 153 177 -7 402 -7 C626 -7 763 153 763 350 C763 548 626 707 402 707 L402 707 Z M402 0 C218 0 103 157 103 350 C103 544 218 700 402 700 C585 700 700 544 700 350 C700 157 585 0 402 0 L402 0 Z M301 865 L419 750 L421 760 L323 869 L301 865 Z " />
<glyph glyph-name="Oacute" unicode="&#xd3;" horiz-adv-x="803" d="M402 707 C177 707 40 548 40 350 C40 153 177 -7 402 -7 C626 -7 763 153 763 350 C763 548 626 707 402 707 L402 707 Z M402 0 C218 0 103 157 103 350 C103 544 218 700 402 700 C585 700 700 544 700 350 C700 157 585 0 402 0 L402 0 Z M479 869 L381 760 L383 750 L501 865 L479 869 Z " />
<glyph glyph-name="Ocircumflex" unicode="&#xd4;" horiz-adv-x="803" d="M402 707 C177 707 40 548 40 350 C40 153 177 -7 402 -7 C626 -7 763 153 763 350 C763 548 626 707 402 707 L402 707 Z M402 0 C218 0 103 157 103 350 C103 544 218 700 402 700 C585 700 700 544 700 350 C700 157 585 0 402 0 L402 0 Z M528 760 L410 869 L394 869 L275 760 L277 750 L402 858 L526 750 L528 760 Z " />
<glyph glyph-name="Otilde" unicode="&#xd5;" horiz-adv-x="803" d="M402 707 C177 707 40 548 40 350 C40 153 177 -7 402 -7 C626 -7 763 153 763 350 C763 548 626 707 402 707 L402 707 Z M402 0 C218 0 103 157 103 350 C103 544 218 700 402 700 C585 700 700 544 700 350 C700 157 585 0 402 0 L402 0 Z M467 757 C481 757 493 761 504 769 C517 780 526 796 528 816 L518 816 C517 800 510 785 498 777 C487 768 472 765 455 768 C430 772 416 787 402 803 C388 818 374 834 349 840 C330 844 312 841 299 830 C284 819 275 801 274 779 L283 778 C284 797 292 813 304 823 C316 832 331 835 347 831 C369 826 381 812 395 797 C410 780 425 763 453 758 C458 758 462 757 467 757 L467 757 Z " />
<glyph glyph-name="Odieresis" unicode="&#xd6;" horiz-adv-x="803" d="M402 707 C177 707 40 548 40 350 C40 153 177 -7 402 -7 C626 -7 763 153 763 350 C763 548 626 707 402 707 L402 707 Z M402 0 C218 0 103 157 103 350 C103 544 218 700 402 700 C585 700 700 544 700 350 C700 157 585 0 402 0 L402 0 Z M352 823 C336 823 323 810 323 794 C323 778 336 765 352 765 C368 765 380 778 380 794 C380 810 368 823 352 823 L352 823 Z M450 823 C434 823 421 810 421 794 C421 778 434 765 450 765 C466 765 479 778 479 794 C479 810 466 823 450 823 L450 823 Z " />
<glyph glyph-name="multiply" unicode="&#xd7;" horiz-adv-x="334" d="M274 457 L267 464 L167 364 L67 464 L60 457 L160 357 L60 257 L67 250 L167 350 L267 250 L274 257 L174 357 L274 457 Z " />
<glyph glyph-name="Oslash" unicode="&#xd8;" horiz-adv-x="802" d="M524 689 L554 775 L544 775 L515 692 C480 702 442 707 401 707 C177 707 40 547 40 350 C40 192 128 58 278 11 L248 -75 L258 -75 L286 8 C321 -2 360 -7 401 -7 C625 -7 762 153 762 350 C762 508 674 642 524 689 L524 689 Z M103 350 C103 543 217 700 401 700 C441 700 478 693 510 679 L282 25 C169 77 103 203 103 350 L103 350 Z M401 0 C361 0 324 8 291 21 L519 675 C632 624 699 498 699 350 C699 157 584 0 401 0 L401 0 Z " />
<glyph glyph-name="Ugrave" unicode="&#xd9;" horiz-adv-x="654" d="M560 700 L560 215 C560 82 460 0 349 0 C259 0 139 67 139 206 L139 700 L85 700 L85 222 C85 46 238 -7 349 -7 C460 -7 569 65 569 222 L569 700 L560 700 Z M247 865 L365 750 L367 760 L269 869 L247 865 Z " />
<glyph glyph-name="Uacute" unicode="&#xda;" horiz-adv-x="654" d="M560 700 L560 215 C560 82 460 0 349 0 C259 0 139 67 139 206 L139 700 L85 700 L85 222 C85 46 238 -7 349 -7 C460 -7 569 65 569 222 L569 700 L560 700 Z M425 869 L327 760 L329 750 L447 865 L425 869 Z " />
<glyph glyph-name="Ucircumflex" unicode="&#xdb;" horiz-adv-x="654" d="M560 700 L560 215 C560 82 460 0 349 0 C259 0 139 67 139 206 L139 700 L85 700 L85 222 C85 46 238 -7 349 -7 C460 -7 569 65 569 222 L569 700 L560 700 Z M473 760 L355 869 L339 869 L220 760 L222 750 L347 858 L471 750 L473 760 Z " />
<glyph glyph-name="Udieresis" unicode="&#xdc;" horiz-adv-x="654" d="M560 700 L560 215 C560 82 460 0 349 0 C259 0 139 67 139 206 L139 700 L85 700 L85 222 C85 46 238 -7 349 -7 C460 -7 569 65 569 222 L569 700 L560 700 Z M298 823 C282 823 269 810 269 794 C269 778 282 765 298 765 C314 765 326 778 326 794 C326 810 314 823 298 823 L298 823 Z M396 823 C380 823 367 810 367 794 C367 778 380 765 396 765 C412 765 425 778 425 794 C425 810 412 823 396 823 L396 823 Z " />
<glyph glyph-name="Yacute" unicode="&#xdd;" horiz-adv-x="504" d="M464 700 L454 700 L297 277 L96 700 L40 700 L249 265 L249 0 L303 0 L302 265 L464 700 Z M320 869 L222 760 L224 750 L342 865 L320 869 Z " />
<glyph glyph-name="Thorn" unicode="&#xde;" horiz-adv-x="449" d="M144 620 C142 620 141 620 139 620 L139 700 L85 700 L85 0 L139 0 L139 81 C141 81 142 81 144 81 C275 81 409 160 409 350 C409 540 275 620 144 620 L144 620 Z M153 91 C148 91 143 91 139 91 L139 610 C143 610 148 610 153 610 C244 610 349 516 349 350 C349 184 244 91 153 91 L153 91 Z " />
<glyph glyph-name="germandbls" unicode="&#xdf;" horiz-adv-x="432" d="M203 420 L350 665 L350 700 C350 700 279 700 237 700 C131 700 85 648 85 508 C85 377 85 0 85 0 L139 0 C139 0 139 429 139 509 C139 609 161 653 237 653 C292 653 331 653 331 653 L189 415 L192 409 C192 409 220 417 248 411 C337 393 324 269 324 169 C324 50 268 -35 165 28 C165 28 165 28 165 21 C263 -46 376 8 376 182 C376 293 385 467 203 420 L203 420 Z " />
<glyph glyph-name="agrave" unicode="&#xe0;" horiz-adv-x="361" d="M286 0 L341 0 L174 700 L120 700 L148 582 L20 0 L30 0 L81 234 L231 234 L286 0 Z M84 244 L153 560 L228 244 L84 244 Z M30 865 L148 750 L150 760 L52 869 L30 865 Z " />
<glyph glyph-name="aacute" unicode="&#xe1;" horiz-adv-x="361" d="M286 0 L341 0 L174 700 L120 700 L148 582 L20 0 L30 0 L81 234 L231 234 L286 0 Z M84 244 L153 560 L228 244 L84 244 Z M248 869 L150 760 L152 750 L270 865 L248 869 Z " />
<glyph glyph-name="acircumflex" unicode="&#xe2;" horiz-adv-x="361" d="M286 0 L341 0 L174 700 L120 700 L148 582 L20 0 L30 0 L81 234 L231 234 L286 0 Z M84 244 L153 560 L228 244 L84 244 Z M277 760 L159 869 L143 869 L24 760 L26 750 L151 858 L275 750 L277 760 Z " />
<glyph glyph-name="atilde" unicode="&#xe3;" horiz-adv-x="361" d="M286 0 L341 0 L174 700 L120 700 L148 582 L20 0 L30 0 L81 234 L231 234 L286 0 Z M84 244 L153 560 L228 244 L84 244 Z M246 757 C260 757 272 761 283 769 C296 780 305 796 307 816 L297 816 C296 800 289 785 277 777 C266 768 251 765 234 768 C209 772 195 787 181 803 C167 818 153 834 128 840 C109 844 91 841 78 830 C63 819 54 801 53 779 L62 778 C63 797 71 813 83 823 C95 832 110 835 126 831 C148 826 160 812 174 797 C189 780 204 763 232 758 C237 758 241 757 246 757 L246 757 Z " />
<glyph glyph-name="adieresis" unicode="&#xe4;" horiz-adv-x="361" d="M286 0 L341 0 L174 700 L120 700 L148 582 L20 0 L30 0 L81 234 L231 234 L286 0 Z M84 244 L153 560 L228 244 L84 244 Z M101 823 C85 823 72 810 72 794 C72 778 85 765 101 765 C117 765 129 778 129 794 C129 810 117 823 101 823 L101 823 Z M199 823 C183 823 170 810 170 794 C170 778 183 765 199 765 C215 765 228 778 228 794 C228 810 215 823 199 823 L199 823 Z " />
<glyph glyph-name="aring" unicode="&#xe5;" horiz-adv-x="361" d="M286 0 L341 0 L174 700 L120 700 L148 582 L20 0 L30 0 L81 234 L231 234 L286 0 Z M84 244 L153 560 L228 244 L84 244 Z M181 755 C224 755 259 791 259 834 C259 878 224 913 181 913 C137 913 102 878 102 834 C102 791 137 755 181 755 L181 755 Z M181 904 C219 904 250 872 250 834 C250 796 219 765 181 765 C142 765 111 796 111 834 C111 872 142 904 181 904 L181 904 Z " />
<glyph glyph-name="ae" unicode="&#xe6;" horiz-adv-x="493" d="M340 10 L340 346 L425 346 L425 356 L340 356 L340 690 L445 690 L445 700 L286 700 L20 0 L29 0 L119 234 L286 234 L286 0 L463 0 L463 10 L340 10 Z M286 244 L122 244 L286 673 L286 244 Z " />
<glyph glyph-name="ccedilla" unicode="&#xe7;" horiz-adv-x="406" d="M336 508 L336 574 C336 674 283 707 203 707 C124 707 70 674 70 574 L70 126 C70 30 120 -5 195 -7 L174 -55 L175 -56 C175 -56 187 -55 195 -56 C214 -57 213 -76 207 -101 C199 -129 177 -140 153 -144 L153 -150 C179 -151 238 -146 251 -103 C260 -75 242 -31 182 -50 L201 -7 C202 -7 203 -7 203 -7 C283 -7 336 26 336 126 L336 193 L282 193 L282 113 C282 41 253 0 203 0 C153 0 124 41 124 113 L124 587 C124 659 153 700 203 700 C253 700 282 659 282 587 L282 508 L336 508 Z " />
<glyph glyph-name="egrave" unicode="&#xe8;" horiz-adv-x="287" d="M124 10 L124 346 L208 346 L208 356 L124 356 L124 690 L228 690 L228 700 L70 700 L70 0 L247 0 L247 10 L124 10 Z M74 865 L192 750 L194 760 L96 869 L74 865 Z " />
<glyph glyph-name="eacute" unicode="&#xe9;" horiz-adv-x="287" d="M124 10 L124 346 L208 346 L208 356 L124 356 L124 690 L228 690 L228 700 L70 700 L70 0 L247 0 L247 10 L124 10 Z M202 869 L104 760 L106 750 L224 865 L202 869 Z " />
<glyph glyph-name="ecircumflex" unicode="&#xea;" horiz-adv-x="283" d="M126 10 L126 346 L210 346 L210 356 L126 356 L126 690 L230 690 L230 700 L72 700 L72 0 L249 0 L249 10 L126 10 Z M273 760 L155 869 L139 869 L20 760 L22 750 L147 858 L271 750 L273 760 Z " />
<glyph glyph-name="edieresis" unicode="&#xeb;" horiz-adv-x="287" d="M124 10 L124 346 L208 346 L208 356 L124 356 L124 690 L228 690 L228 700 L70 700 L70 0 L247 0 L247 10 L124 10 Z M105 823 C89 823 76 810 76 794 C76 778 89 765 105 765 C121 765 133 778 133 794 C133 810 121 823 105 823 L105 823 Z M203 823 C187 823 174 810 174 794 C174 778 187 765 203 765 C219 765 232 778 232 794 C232 810 219 823 203 823 L203 823 Z " />
<glyph glyph-name="igrave" unicode="&#xec;" horiz-adv-x="222" d="M83 700 L83 0 L137 0 L137 700 L83 700 Z M10 865 L128 750 L130 760 L32 869 L10 865 Z " />
<glyph glyph-name="iacute" unicode="&#xed;" horiz-adv-x="222" d="M85 700 L85 0 L139 0 L139 700 L85 700 Z M190 869 L92 760 L94 750 L212 865 L190 869 Z " />
<glyph glyph-name="icircumflex" unicode="&#xee;" horiz-adv-x="222" d="M84 700 L84 0 L138 0 L138 700 L84 700 Z M238 760 L120 869 L104 869 L-15 760 L-13 750 L112 858 L236 750 L238 760 Z " />
<glyph glyph-name="idieresis" unicode="&#xef;" horiz-adv-x="221" d="M86 700 L86 0 L140 0 L140 700 L86 700 Z M64 823 C48 823 35 810 35 794 C35 778 48 765 64 765 C80 765 92 778 92 794 C92 810 80 823 64 823 L64 823 Z M162 823 C146 823 133 810 133 794 C133 778 146 765 162 765 C178 765 191 778 191 794 C191 810 178 823 162 823 L162 823 Z " />
<glyph glyph-name="eth" unicode="&#xf0;" horiz-adv-x="341" d="M168 0 C168 0 168 0 168 0 C168 0 168 0 168 0 L168 0 Z M168 419 C168 419 168 419 168 419 C168 419 168 419 168 419 L168 419 Z M237 573 L301 602 L296 611 L234 582 C200 660 154 692 102 707 C102 705 102 700 102 698 C145 682 180 651 204 568 L127 533 L132 524 L207 559 C217 520 226 469 229 409 C213 420 193 426 168 426 C82 426 50 350 50 237 C50 229 50 190 50 182 C50 69 82 -7 168 -7 C255 -7 287 69 287 182 C287 190 287 229 287 237 C287 339 263 510 237 573 L237 573 Z M235 169 C235 85 225 0 168 0 C111 0 102 85 102 169 C102 181 102 238 102 250 C102 334 111 419 168 419 C225 419 235 334 235 250 C235 238 235 181 235 169 L235 169 Z " />
<glyph glyph-name="ntilde" unicode="&#xf1;" horiz-adv-x="364" d="M284 700 L284 159 L94 700 L40 700 L73 602 L73 0 L83 0 L83 573 L284 0 L294 0 L294 700 L284 700 Z M233 757 C247 757 259 761 270 769 C283 780 292 796 294 816 L284 816 C283 800 276 785 264 777 C253 768 238 765 221 768 C196 772 182 787 168 803 C154 818 140 834 115 840 C96 844 78 841 65 830 C50 819 41 801 40 779 L49 778 C50 797 58 813 70 823 C82 832 97 835 113 831 C135 826 147 812 161 797 C176 780 191 763 219 758 C224 758 228 757 233 757 L233 757 Z " />
<glyph glyph-name="ograve" unicode="&#xf2;" horiz-adv-x="406" d="M203 708 C124 708 70 674 70 574 L70 126 C70 26 124 -8 203 -8 C283 -8 336 26 336 126 L336 574 C336 674 283 708 203 708 L203 708 Z M282 113 C282 41 253 0 203 0 C153 0 124 41 124 113 L124 587 C124 659 153 700 203 700 C253 700 282 659 282 587 L282 113 Z M97 865 L215 750 L217 760 L119 869 L97 865 Z " />
<glyph glyph-name="oacute" unicode="&#xf3;" horiz-adv-x="406" d="M203 708 C124 708 70 674 70 574 L70 126 C70 26 124 -8 203 -8 C283 -8 336 26 336 126 L336 574 C336 674 283 708 203 708 L203 708 Z M282 113 C282 41 253 0 203 0 C153 0 124 41 124 113 L124 587 C124 659 153 700 203 700 C253 700 282 659 282 587 L282 113 Z M279 869 L181 760 L183 750 L301 865 L279 869 Z " />
<glyph glyph-name="ocircumflex" unicode="&#xf4;" horiz-adv-x="406" d="M203 708 C124 708 70 674 70 574 L70 126 C70 26 124 -8 203 -8 C283 -8 336 26 336 126 L336 574 C336 674 283 708 203 708 L203 708 Z M282 113 C282 41 253 0 203 0 C153 0 124 41 124 113 L124 587 C124 659 153 700 203 700 C253 700 282 659 282 587 L282 113 Z M330 760 L212 869 L196 869 L77 760 L79 750 L204 858 L328 750 L330 760 Z " />
<glyph glyph-name="otilde" unicode="&#xf5;" horiz-adv-x="406" d="M203 708 C124 708 70 674 70 574 L70 126 C70 26 124 -8 203 -8 C283 -8 336 26 336 126 L336 574 C336 674 283 708 203 708 L203 708 Z M282 113 C282 41 253 0 203 0 C153 0 124 41 124 113 L124 587 C124 659 153 700 203 700 C253 700 282 659 282 587 L282 113 Z M269 757 C283 757 295 761 306 769 C319 780 328 796 330 816 L320 816 C319 800 312 785 300 777 C289 768 274 765 257 768 C232 772 218 787 204 803 C190 818 176 834 151 840 C132 844 114 841 101 830 C86 819 77 801 76 779 L85 778 C86 797 94 813 106 823 C118 832 133 835 149 831 C171 826 183 812 197 797 C212 780 227 763 255 758 C260 758 264 757 269 757 L269 757 Z " />
<glyph glyph-name="odieresis" unicode="&#xf6;" horiz-adv-x="406" d="M203 708 C124 708 70 674 70 574 L70 126 C70 26 124 -8 203 -8 C283 -8 336 26 336 126 L336 574 C336 674 283 708 203 708 L203 708 Z M282 113 C282 41 253 0 203 0 C153 0 124 41 124 113 L124 587 C124 659 153 700 203 700 C253 700 282 659 282 587 L282 113 Z M154 823 C138 823 125 810 125 794 C125 778 138 765 154 765 C170 765 182 778 182 794 C182 810 170 823 154 823 L154 823 Z M252 823 C236 823 223 810 223 794 C223 778 236 765 252 765 C268 765 281 778 281 794 C281 810 268 823 252 823 L252 823 Z " />
<glyph glyph-name="divide" unicode="&#xf7;" horiz-adv-x="413" d="M60 362 L60 352 L353 352 L353 362 L60 362 Z M206 411 C222 411 235 424 235 439 C235 455 222 468 206 468 C190 468 177 455 177 439 C177 424 190 411 206 411 L206 411 Z M207 303 C191 303 178 291 178 275 C178 259 191 246 207 246 C223 246 236 259 236 275 C236 291 223 303 207 303 L207 303 Z " />
<glyph glyph-name="oslash" unicode="&#xf8;" horiz-adv-x="407" d="M283 691 L301 775 L291 775 L274 695 C254 704 230 707 203 707 C124 707 70 674 70 574 L70 126 C70 65 90 29 124 10 L106 -74 L116 -74 L133 5 C153 -3 177 -7 203 -7 C283 -7 337 26 337 126 L337 574 C337 635 316 672 283 691 L283 691 Z M124 113 L124 587 C124 659 153 700 203 700 C232 700 253 687 267 663 L133 52 C127 69 124 89 124 113 L124 113 Z M283 113 C283 41 254 0 203 0 C175 0 154 13 140 37 L273 648 C279 631 283 611 283 587 L283 113 Z " />
<glyph glyph-name="ugrave" unicode="&#xf9;" horiz-adv-x="406" d="M282 700 L282 113 C282 41 253 0 203 0 C153 0 124 41 124 113 L124 700 L70 700 L70 126 C70 26 124 -7 203 -7 C283 -7 336 26 336 126 L336 700 L282 700 Z M122 865 L240 750 L242 760 L144 869 L122 865 Z " />
<glyph glyph-name="uacute" unicode="&#xfa;" horiz-adv-x="406" d="M282 700 L282 113 C282 41 253 0 203 0 C153 0 124 41 124 113 L124 700 L70 700 L70 126 C70 26 124 -7 203 -7 C283 -7 336 26 336 126 L336 700 L282 700 Z M281 869 L183 760 L185 750 L303 865 L281 869 Z " />
<glyph glyph-name="ucircumflex" unicode="&#xfb;" horiz-adv-x="406" d="M282 700 L282 113 C282 41 253 0 203 0 C153 0 124 41 124 113 L124 700 L70 700 L70 126 C70 26 124 -7 203 -7 C283 -7 336 26 336 126 L336 700 L282 700 Z M330 760 L212 869 L196 869 L77 760 L79 750 L204 858 L328 750 L330 760 Z " />
<glyph glyph-name="udieresis" unicode="&#xfc;" horiz-adv-x="406" d="M282 700 L282 113 C282 41 253 0 203 0 C153 0 124 41 124 113 L124 700 L70 700 L70 126 C70 26 124 -7 203 -7 C283 -7 336 26 336 126 L336 700 L282 700 Z M154 823 C138 823 125 810 125 794 C125 778 138 765 154 765 C170 765 182 778 182 794 C182 810 170 823 154 823 L154 823 Z M252 823 C236 823 223 810 223 794 C223 778 236 765 252 765 C268 765 281 778 281 794 C281 810 268 823 252 823 L252 823 Z " />
<glyph glyph-name="yacute" unicode="&#xfd;" horiz-adv-x="313" d="M273 700 L263 700 L178 322 L71 700 L15 700 L132 309 L132 0 L186 0 L185 307 L273 700 Z M231 869 L133 760 L135 750 L253 865 L231 869 Z " />
<glyph glyph-name="thorn" unicode="&#xfe;" horiz-adv-x="337" d="M139 539 C133 539 129 539 125 539 L125 700 L70 700 L70 0 L125 0 L125 161 C129 161 133 161 139 161 C257 161 287 226 287 326 L287 374 C287 474 257 539 139 539 L139 539 Z M233 313 C233 239 220 171 139 171 C133 171 129 171 125 171 L125 529 C129 529 133 529 139 529 C220 529 233 461 233 387 L233 313 Z " />
<glyph glyph-name="ydieresis" unicode="&#xff;" horiz-adv-x="313" d="M273 700 L263 700 L178 322 L71 700 L15 700 L132 309 L132 0 L186 0 L185 307 L273 700 Z M111 823 C95 823 82 810 82 794 C82 778 95 765 111 765 C127 765 139 778 139 794 C139 810 127 823 111 823 L111 823 Z M209 823 C193 823 180 810 180 794 C180 778 193 765 209 765 C225 765 238 778 238 794 C238 810 225 823 209 823 L209 823 Z " />
<glyph glyph-name="Amacron" unicode="&#x100;" horiz-adv-x="361" d="M287 0 L341 0 L174 700 L20 0 L30 0 L82 234 L231 234 L287 0 L287 0 Z M84 244 L154 560 L229 244 L84 244 L84 244 Z M295 799 L66 799 L66 789 L295 789 L295 799 Z " />
<glyph glyph-name="amacron" unicode="&#x101;" horiz-adv-x="361" d="M286 0 L341 0 L174 700 L120 700 L148 582 L20 0 L30 0 L81 234 L231 234 L286 0 Z M84 244 L153 560 L228 244 L84 244 Z M265 799 L36 799 L36 789 L265 789 L265 799 Z " />
<glyph glyph-name="Abreve" unicode="&#x102;" horiz-adv-x="361" d="M287 0 L341 0 L174 700 L20 0 L30 0 L82 234 L231 234 L287 0 L287 0 Z M84 244 L154 560 L229 244 L84 244 L84 244 Z M279 861 C279 807 234 763 180 763 C126 763 82 807 81 861 L72 861 C72 802 121 754 180 754 C239 754 288 802 288 861 L279 861 Z " />
<glyph glyph-name="abreve" unicode="&#x103;" horiz-adv-x="361" d="M286 0 L341 0 L174 700 L120 700 L148 582 L20 0 L30 0 L81 234 L231 234 L286 0 Z M84 244 L153 560 L228 244 L84 244 Z M249 861 C249 807 204 763 150 763 C96 763 52 807 51 861 L42 861 C42 802 91 754 150 754 C209 754 258 802 258 861 L249 861 Z " />
<glyph glyph-name="Aogonek" unicode="&#x104;" horiz-adv-x="362" d="M283 -94 C270 -51 307 -7 336 0 L341 0 L174 700 L20 0 L30 0 L82 234 L231 234 L287 0 L326 0 C293 -11 235 -45 240 -100 C244 -148 309 -170 342 -124 L342 -118 C311 -129 290 -120 283 -94 L283 -94 Z M84 244 L154 560 L229 244 L84 244 Z " />
<glyph glyph-name="aogonek" unicode="&#x105;" horiz-adv-x="361" d="M277 -94 C265 -50 301 -7 331 0 L341 0 L174 700 L120 700 L148 582 L20 0 L30 0 L82 234 L231 234 L287 0 L320 0 C288 -11 230 -45 235 -100 C239 -148 303 -170 336 -124 L336 -118 C305 -129 285 -120 277 -94 L277 -94 Z M84 244 L154 560 L229 244 L84 244 Z " />
<glyph glyph-name="Cacute" unicode="&#x106;" horiz-adv-x="636" d="M401 700 C470 700 538 684 596 649 L596 658 C542 690 477 707 401 707 C177 707 40 548 40 350 C40 153 177 -7 401 -7 C477 -7 542 11 596 42 L596 52 C538 17 470 0 401 0 C218 0 103 157 103 350 C103 544 218 700 401 700 L401 700 Z M446 869 L348 760 L350 750 L468 865 L446 869 Z " />
<glyph glyph-name="cacute" unicode="&#x107;" horiz-adv-x="406" d="M336 508 L336 574 C336 674 282 708 203 708 C123 708 70 674 70 574 L70 126 C70 26 123 -8 203 -8 C282 -8 336 26 336 126 L336 193 L282 193 L282 113 C282 41 253 1 203 0 C153 1 124 41 124 113 L124 587 C124 659 153 700 203 700 C253 700 282 659 282 587 L282 508 L336 508 Z M286 869 L188 760 L190 750 L308 865 L286 869 Z " />
<glyph glyph-name="Ccircumflex" unicode="&#x108;" horiz-adv-x="636" d="M401 700 C470 700 538 684 596 649 L596 658 C542 690 477 707 401 707 C177 707 40 548 40 350 C40 153 177 -7 401 -7 C477 -7 542 11 596 42 L596 52 C538 17 470 0 401 0 C218 0 103 157 103 350 C103 544 218 700 401 700 L401 700 Z M514 760 L396 869 L380 869 L261 760 L263 750 L388 858 L512 750 L514 760 Z " />
<glyph glyph-name="ccircumflex" unicode="&#x109;" horiz-adv-x="406" d="M336 508 L336 574 C336 674 282 708 203 708 C123 708 70 674 70 574 L70 126 C70 26 123 -8 203 -8 C282 -8 336 26 336 126 L336 193 L282 193 L282 113 C282 41 253 1 203 0 C153 1 124 41 124 113 L124 587 C124 659 153 700 203 700 C253 700 282 659 282 587 L282 508 L336 508 Z M334 760 L216 869 L200 869 L81 760 L83 750 L208 858 L332 750 L334 760 Z " />
<glyph glyph-name="Cdotaccent" unicode="&#x10a;" horiz-adv-x="636" d="M401 700 C470 700 538 684 596 649 L596 658 C542 690 477 707 401 707 C177 707 40 548 40 350 C40 153 177 -7 401 -7 C477 -7 542 11 596 42 L596 52 C538 17 470 0 401 0 C218 0 103 157 103 350 C103 544 218 700 401 700 L401 700 Z M388 823 C372 823 359 810 359 794 C359 778 372 765 388 765 C404 765 417 778 417 794 C417 810 404 823 388 823 L388 823 Z " />
<glyph glyph-name="cdotaccent" unicode="&#x10b;" horiz-adv-x="406" d="M336 508 L336 574 C336 674 282 708 203 708 C123 708 70 674 70 574 L70 126 C70 26 123 -8 203 -8 C282 -8 336 26 336 126 L336 193 L282 193 L282 113 C282 41 253 1 203 0 C153 1 124 41 124 113 L124 587 C124 659 153 700 203 700 C253 700 282 659 282 587 L282 508 L336 508 Z M202 823 C186 823 173 810 173 794 C173 778 186 765 202 765 C218 765 231 778 231 794 C231 810 218 823 202 823 L202 823 Z " />
<glyph glyph-name="Ccaron" unicode="&#x10c;" horiz-adv-x="636" d="M401 700 C470 700 538 684 596 649 L596 658 C542 690 477 707 401 707 C177 707 40 548 40 350 C40 153 177 -7 401 -7 C477 -7 542 11 596 42 L596 52 C538 17 470 0 401 0 C218 0 103 157 103 350 C103 544 218 700 401 700 L401 700 Z M522 878 L398 770 L273 878 L271 868 L390 758 L406 758 L524 868 L522 878 Z " />
<glyph glyph-name="ccaron" unicode="&#x10d;" horiz-adv-x="406" d="M336 508 L336 574 C336 674 282 708 203 708 C123 708 70 674 70 574 L70 126 C70 26 123 -8 203 -8 C282 -8 336 26 336 126 L336 193 L282 193 L282 113 C282 41 253 1 203 0 C153 1 124 41 124 113 L124 587 C124 659 153 700 203 700 C253 700 282 659 282 587 L282 508 L336 508 Z M332 878 L208 770 L83 878 L81 868 L200 758 L216 758 L334 868 L332 878 Z " />
<glyph glyph-name="Dcaron" unicode="&#x10e;" horiz-adv-x="680" d="M221 700 C209 700 85 700 85 700 L85 0 C85 0 209 0 221 0 C517 0 630 159 630 350 C630 541 517 700 221 700 L221 700 Z M221 10 C206 10 172 10 139 10 L139 691 C172 691 206 691 221 691 C458 691 569 526 569 350 C569 174 458 10 221 10 L221 10 Z M417 878 L293 770 L168 878 L166 868 L285 758 L301 758 L419 868 L417 878 Z " />
<glyph glyph-name="dcaron" unicode="&#x10f;" horiz-adv-x="441" d="M174 700 C153 700 70 700 70 700 L70 0 C70 0 153 0 174 0 C292 0 340 60 340 160 L340 541 C340 641 292 700 174 700 L174 700 Z M286 147 C286 73 255 10 174 10 C154 10 137 10 124 10 L124 690 C137 690 154 690 174 690 C255 690 286 628 286 554 L286 147 Z M420 669 C422 684 417 703 396 705 C380 707 366 696 364 680 C362 665 373 650 389 648 C396 648 403 649 409 653 C409 653 404 628 380 610 C381 608 385 605 385 605 C385 605 416 630 420 669 L420 669 Z " />
<glyph glyph-name="Dcroat" unicode="&#x110;" horiz-adv-x="685" d="M226 700 C214 700 90 700 90 700 L90 356 L20 356 L20 346 L90 346 L90 0 C90 0 214 0 226 0 C522 0 635 159 635 350 C635 541 522 700 226 700 L226 700 Z M226 10 C212 10 178 10 144 10 L144 346 L306 346 L306 356 L144 356 L144 690 C178 690 212 690 226 690 C463 690 574 526 574 350 C574 174 463 10 226 10 L226 10 Z " />
<glyph glyph-name="dcroat" unicode="&#x111;" horiz-adv-x="403" d="M166 700 C145 700 62 700 62 700 L62 356 L20 356 L20 346 L62 346 L62 0 C62 0 145 0 166 0 C284 0 333 60 333 160 L333 541 C333 641 284 700 166 700 L166 700 Z M278 147 C278 73 247 10 166 10 C146 10 130 10 116 10 L116 346 L195 346 L195 356 L116 356 L116 690 C130 690 146 690 166 690 C247 690 278 628 278 554 L278 147 Z " />
<glyph glyph-name="Emacron" unicode="&#x112;" horiz-adv-x="439" d="M140 10 L140 346 L335 346 L335 356 L140 356 L140 691 L355 691 L355 700 L85 700 L85 0 L374 0 L374 10 L140 10 Z M344 799 L115 799 L115 789 L344 789 L344 799 Z " />
<glyph glyph-name="emacron" unicode="&#x113;" horiz-adv-x="319" d="M144 10 L144 346 L228 346 L228 356 L144 356 L144 690 L248 690 L248 700 L90 700 L90 0 L267 0 L267 10 L144 10 Z M289 799 L60 799 L60 789 L289 789 L289 799 Z " />
<glyph glyph-name="Ebreve" unicode="&#x114;" horiz-adv-x="439" d="M140 10 L140 346 L335 346 L335 356 L140 356 L140 691 L355 691 L355 700 L85 700 L85 0 L374 0 L374 10 L140 10 Z M328 861 C328 807 283 763 229 763 C175 763 131 807 130 861 L121 861 C121 802 170 754 229 754 C288 754 337 802 337 861 L328 861 Z " />
<glyph glyph-name="ebreve" unicode="&#x115;" horiz-adv-x="306" d="M138 10 L138 346 L222 346 L222 356 L138 356 L138 690 L242 690 L242 700 L84 700 L84 0 L261 0 L261 10 L138 10 Z M267 861 C267 807 222 763 168 763 C114 763 70 807 69 861 L60 861 C60 802 109 754 168 754 C227 754 276 802 276 861 L267 861 Z " />
<glyph glyph-name="Edotaccent" unicode="&#x116;" horiz-adv-x="439" d="M140 10 L140 346 L335 346 L335 356 L140 356 L140 691 L355 691 L355 700 L85 700 L85 0 L374 0 L374 10 L140 10 Z M229 823 C213 823 200 810 200 794 C200 778 213 765 229 765 C245 765 258 778 258 794 C258 810 245 823 229 823 L229 823 Z " />
<glyph glyph-name="edotaccent" unicode="&#x117;" horiz-adv-x="267" d="M114 10 L114 346 L198 346 L198 356 L114 356 L114 690 L218 690 L218 700 L60 700 L60 0 L237 0 L237 10 L114 10 Z M144 823 C128 823 115 810 115 794 C115 778 128 765 144 765 C160 765 173 778 173 794 C173 810 160 823 144 823 L144 823 Z " />
<glyph glyph-name="Eogonek" unicode="&#x118;" horiz-adv-x="438" d="M367 0 L373 0 L373 10 L139 10 L139 346 L334 346 L334 356 L139 356 L139 690 L354 690 L354 700 L85 700 L85 0 L357 0 C324 -11 266 -45 271 -100 C275 -148 340 -170 373 -124 L373 -118 C342 -129 321 -120 314 -94 C301 -51 338 -7 367 0 L367 0 Z " />
<glyph glyph-name="eogonek" unicode="&#x119;" horiz-adv-x="267" d="M232 0 L237 0 L237 10 L114 10 L114 346 L199 346 L199 356 L114 356 L114 690 L219 690 L219 700 L60 700 L60 0 L221 0 C189 -11 130 -45 135 -100 C140 -148 204 -170 237 -124 L237 -118 C206 -129 185 -120 178 -94 C165 -50 202 -7 232 0 L232 0 Z " />
<glyph glyph-name="Ecaron" unicode="&#x11a;" horiz-adv-x="439" d="M140 10 L140 346 L335 346 L335 356 L140 356 L140 691 L355 691 L355 700 L85 700 L85 0 L374 0 L374 10 L140 10 Z M354 878 L230 770 L105 878 L103 868 L222 758 L238 758 L356 868 L354 878 Z " />
<glyph glyph-name="ecaron" unicode="&#x11b;" horiz-adv-x="283" d="M116 10 L116 346 L200 346 L200 356 L116 356 L116 690 L220 690 L220 700 L62 700 L62 0 L239 0 L239 10 L116 10 Z M271 878 L147 770 L22 878 L20 868 L139 758 L155 758 L273 868 L271 878 Z " />
<glyph glyph-name="Gcircumflex" unicode="&#x11c;" horiz-adv-x="718" d="M579 356 L579 39 C529 13 459 0 401 0 C218 0 103 157 103 350 C103 544 218 700 401 700 C470 700 538 684 596 649 L596 658 C542 690 476 707 401 707 C177 707 40 548 40 350 C40 153 177 -7 401 -7 C468 -7 537 7 587 33 C603 41 618 50 633 61 L633 356 L579 356 Z M523 760 L405 869 L389 869 L270 760 L272 750 L397 858 L521 750 L523 760 Z " />
<glyph glyph-name="gcircumflex" unicode="&#x11d;" horiz-adv-x="406" d="M336 508 L336 583 C336 678 283 708 203 708 C123 708 70 678 70 583 L70 117 C70 23 123 -8 203 -8 C257 -8 300 7 321 46 L326 0 L336 0 L336 304 L210 304 L210 294 L282 294 L282 104 C282 38 253 0 203 0 C153 0 124 38 124 104 L124 596 C124 663 153 700 203 700 C253 700 282 663 282 596 L282 508 L336 508 Z M330 760 L212 869 L196 869 L77 760 L79 750 L204 858 L328 750 L330 760 Z " />
<glyph glyph-name="Gbreve" unicode="&#x11e;" horiz-adv-x="718" d="M579 356 L579 39 C529 13 459 0 401 0 C218 0 103 157 103 350 C103 544 218 700 401 700 C470 700 538 684 596 649 L596 658 C542 690 476 707 401 707 C177 707 40 548 40 350 C40 153 177 -7 401 -7 C468 -7 537 7 587 33 C603 41 618 50 633 61 L633 356 L579 356 Z M495 861 C495 807 450 763 396 763 C342 763 298 807 297 861 L288 861 C288 802 337 754 396 754 C455 754 504 802 504 861 L495 861 Z " />
<glyph glyph-name="gbreve" unicode="&#x11f;" horiz-adv-x="406" d="M336 508 L336 583 C336 678 283 708 203 708 C123 708 70 678 70 583 L70 117 C70 23 123 -8 203 -8 C257 -8 300 7 321 46 L326 0 L336 0 L336 304 L210 304 L210 294 L282 294 L282 104 C282 38 253 0 203 0 C153 0 124 38 124 104 L124 596 C124 663 153 700 203 700 C253 700 282 663 282 596 L282 508 L336 508 Z M302 861 C302 807 257 763 203 763 C149 763 105 807 104 861 L95 861 C95 802 144 754 203 754 C262 754 311 802 311 861 L302 861 Z " />
<glyph glyph-name="Gdotaccent" unicode="&#x120;" horiz-adv-x="718" d="M579 356 L579 39 C529 13 459 0 401 0 C218 0 103 157 103 350 C103 544 218 700 401 700 C470 700 538 684 596 649 L596 658 C542 690 476 707 401 707 C177 707 40 548 40 350 C40 153 177 -7 401 -7 C468 -7 537 7 587 33 C603 41 618 50 633 61 L633 356 L579 356 Z M396 823 C380 823 367 810 367 794 C367 778 380 765 396 765 C412 765 425 778 425 794 C425 810 412 823 396 823 L396 823 Z " />
<glyph glyph-name="gdotaccent" unicode="&#x121;" horiz-adv-x="406" d="M336 508 L336 583 C336 678 283 708 203 708 C123 708 70 678 70 583 L70 117 C70 23 123 -8 203 -8 C257 -8 300 7 321 46 L326 0 L336 0 L336 304 L210 304 L210 294 L282 294 L282 104 C282 38 253 0 203 0 C153 0 124 38 124 104 L124 596 C124 663 153 700 203 700 C253 700 282 663 282 596 L282 508 L336 508 Z M203 823 C187 823 174 810 174 794 C174 778 187 765 203 765 C219 765 232 778 232 794 C232 810 219 823 203 823 L203 823 Z " />
<glyph glyph-name="Gcommaaccent" unicode="&#x122;" horiz-adv-x="718" d="M433 -94 C435 -80 430 -60 409 -58 C393 -56 379 -67 377 -83 C375 -98 386 -113 402 -115 C409 -116 416 -114 421 -110 C421 -110 416 -135 392 -153 C394 -155 397 -158 397 -158 C397 -158 428 -133 433 -94 L433 -94 Z M579 356 L579 39 C529 13 459 0 401 0 C218 0 103 157 103 350 C103 544 218 700 401 700 C470 700 538 684 596 649 L596 658 C542 690 476 707 401 707 C177 707 40 548 40 350 C40 153 177 -7 401 -7 C468 -7 537 7 587 33 C603 41 618 50 633 61 L633 356 L579 356 Z " />
<glyph glyph-name="gcommaaccent" unicode="&#x123;" horiz-adv-x="406" d="M336 508 L336 583 C336 678 283 708 203 708 C123 708 70 678 70 583 L70 117 C70 23 123 -8 203 -8 C257 -8 300 7 321 46 L326 0 L336 0 L336 304 L210 304 L210 294 L282 294 L282 104 C282 38 253 0 203 0 C153 0 124 38 124 104 L124 596 C124 663 153 700 203 700 C253 700 282 663 282 596 L282 508 L336 508 Z M175 801 C174 786 179 767 200 765 C215 763 230 774 232 790 C234 805 222 820 207 822 C200 822 193 821 187 817 C187 817 192 842 216 860 C214 862 211 865 211 865 C211 865 180 840 175 801 L175 801 Z " />
<glyph glyph-name="Hcircumflex" unicode="&#x124;" horiz-adv-x="655" d="M515 700 L515 355 L139 355 L139 700 L85 700 L85 0 L139 0 L139 345 L515 345 L515 0 L570 0 L570 700 L515 700 Z M454 760 L336 869 L320 869 L201 760 L203 750 L328 858 L452 750 L454 760 Z " />
<glyph glyph-name="hcircumflex" unicode="&#x125;" horiz-adv-x="393" d="M264 700 L264 355 L129 355 L129 700 L74 700 L74 0 L129 0 L129 345 L264 345 L264 0 L318 0 L318 700 L264 700 Z M323 760 L205 869 L189 869 L70 760 L72 750 L197 858 L321 750 L323 760 Z " />
<glyph glyph-name="Hbar" unicode="&#x126;" horiz-adv-x="662" d="M627 494 L573 494 L573 700 L519 700 L519 494 L143 494 L143 700 L89 700 L89 494 L35 494 L35 484 L89 484 L89 0 L143 0 L143 345 L519 345 L519 0 L573 0 L573 484 L627 484 L627 494 Z M519 355 L143 355 L143 484 L519 484 L519 355 Z " />
<glyph glyph-name="hbar" unicode="&#x127;" horiz-adv-x="392" d="M362 450 L318 450 L318 700 L264 700 L264 450 L129 450 L129 700 L74 700 L74 450 L30 450 L30 440 L74 440 L74 0 L129 0 L129 345 L264 345 L264 0 L318 0 L318 440 L362 440 L362 450 Z M264 355 L129 355 L129 440 L264 440 L264 355 Z " />
<glyph glyph-name="Itilde" unicode="&#x128;" horiz-adv-x="224" d="M85 700 L85 0 L139 0 L139 700 L85 700 Z M178 757 C192 757 204 761 215 769 C228 780 237 796 239 816 L229 816 C228 800 221 785 209 777 C198 768 183 765 166 768 C141 772 127 787 113 803 C99 818 85 834 60 840 C41 844 23 841 10 830 C-5 819 -14 801 -15 779 L-6 778 C-5 797 3 813 15 823 C27 832 42 835 58 831 C80 826 92 812 106 797 C121 780 136 763 164 758 C169 758 173 757 178 757 L178 757 Z " />
<glyph glyph-name="itilde" unicode="&#x129;" horiz-adv-x="224" d="M85 700 L85 0 L139 0 L139 700 L85 700 Z M178 757 C192 757 204 761 215 769 C228 780 237 796 239 816 L229 816 C228 800 221 785 209 777 C198 768 183 765 166 768 C141 772 127 787 113 803 C99 818 85 834 60 840 C41 844 23 841 10 830 C-5 819 -14 801 -15 779 L-6 778 C-5 797 3 813 15 823 C27 832 42 835 58 831 C80 826 92 812 106 797 C121 780 136 763 164 758 C169 758 173 757 178 757 L178 757 Z " />
<glyph glyph-name="Imacron" unicode="&#x12a;" horiz-adv-x="229" d="M87 700 L87 0 L141 0 L141 700 L87 700 Z M229 799 L0 799 L0 789 L229 789 L229 799 Z " />
<glyph glyph-name="imacron" unicode="&#x12b;" horiz-adv-x="229" d="M87 700 L87 0 L141 0 L141 700 L87 700 Z M229 799 L0 799 L0 789 L229 789 L229 799 Z " />
<glyph glyph-name="Ibreve" unicode="&#x12c;" horiz-adv-x="246" d="M96 700 L96 0 L150 0 L150 700 L96 700 Z M222 861 C222 807 177 763 123 763 C69 763 25 807 24 861 L15 861 C15 802 64 754 123 754 C182 754 231 802 231 861 L222 861 Z " />
<glyph glyph-name="ibreve" unicode="&#x12d;" horiz-adv-x="246" d="M96 700 L96 0 L150 0 L150 700 L96 700 Z M222 861 C222 807 177 763 123 763 C69 763 25 807 24 861 L15 861 C15 802 64 754 123 754 C182 754 231 802 231 861 L222 861 Z " />
<glyph glyph-name="Iogonek" unicode="&#x12e;" horiz-adv-x="218" d="M128 0 L133 0 L133 700 L79 700 L79 0 L117 0 C85 -11 27 -45 31 -100 C36 -148 100 -170 133 -124 L133 -118 C102 -129 81 -120 74 -94 C61 -51 98 -7 128 0 L128 0 Z " />
<glyph glyph-name="iogonek" unicode="&#x12f;" horiz-adv-x="218" d="M128 0 L133 0 L133 700 L79 700 L79 0 L117 0 C85 -11 26 -45 31 -100 C36 -148 100 -170 133 -124 L133 -118 C102 -129 81 -120 74 -94 C61 -50 98 -7 128 0 L128 0 Z " />
<glyph glyph-name="Idotaccent" unicode="&#x130;" horiz-adv-x="228" d="M87 700 L87 0 L141 0 L141 700 L87 700 Z M114 823 C98 823 85 810 85 794 C85 778 98 765 114 765 C130 765 143 778 143 794 C143 810 130 823 114 823 L114 823 Z " />
<glyph glyph-name="dotlessi" unicode="&#x131;" horiz-adv-x="224" d="M85 700 L85 0 L139 0 L139 700 L85 700 Z " />
<glyph glyph-name="IJ" unicode="&#x132;" horiz-adv-x="452" d="M85 700 L85 0 L139 0 L139 700 L85 700 Z M192 700 L192 691 L312 691 L312 -91 C312 -163 293 -222 242 -222 C192 -222 173 -172 173 -100 L173 -67 L118 -67 L118 -87 C118 -187 163 -230 242 -230 C322 -230 367 -178 367 -78 L367 700 L192 700 Z " />
<glyph glyph-name="ij" unicode="&#x133;" horiz-adv-x="382" d="M85 700 L85 0 L139 0 L139 700 L85 700 Z M214 700 L214 690 L258 690 L258 54 C258 -18 229 -74 179 -74 L179 -81 C258 -81 312 -31 312 67 L312 700 L214 700 Z " />
<glyph glyph-name="Jcircumflex" unicode="&#x134;" horiz-adv-x="258" d="M-4 700 L-4 691 L116 691 L116 -91 C116 -163 97 -222 46 -222 C-4 -222 -23 -172 -23 -100 L-23 -67 L-78 -67 L-78 -87 C-78 -187 -33 -230 46 -230 C126 -230 171 -178 171 -78 L171 700 L-4 700 Z M173 760 L55 869 L39 869 L-80 760 L-78 750 L47 858 L171 750 L173 760 Z " />
<glyph glyph-name="jcircumflex" unicode="&#x135;" horiz-adv-x="213" d="M45 700 L45 690 L89 690 L89 54 C89 -18 60 -74 10 -74 L10 -81 C89 -81 143 -31 143 67 L143 700 L45 700 Z M233 760 L115 869 L99 869 L-20 760 L-18 750 L107 858 L231 750 L233 760 Z " />
<glyph glyph-name="Kcommaaccent" unicode="&#x136;" horiz-adv-x="409" d="M248 -94 C250 -80 245 -60 224 -58 C208 -56 194 -67 192 -83 C190 -98 201 -113 217 -115 C224 -116 231 -114 236 -110 C236 -110 231 -135 207 -153 C209 -155 212 -158 212 -158 C212 -158 243 -133 248 -94 L248 -94 Z M307 0 L369 0 L252 318 C332 453 343 700 343 700 L333 700 C333 700 311 257 139 243 L139 700 L85 700 L85 0 L139 0 L139 234 C168 236 193 249 215 269 L307 0 Z " />
<glyph glyph-name="kcommaaccent" unicode="&#x137;" horiz-adv-x="383" d="M233 -94 C235 -80 230 -60 209 -58 C193 -56 179 -67 177 -83 C175 -98 186 -113 202 -115 C209 -116 216 -114 221 -110 C221 -110 216 -135 192 -153 C194 -155 197 -158 197 -158 C197 -158 228 -133 233 -94 L233 -94 Z M292 0 L353 0 L198 431 L309 700 L299 700 L124 275 L124 700 L70 700 L70 0 L124 0 L124 251 L168 358 L292 0 Z " />
<glyph glyph-name="kgreenlandic" unicode="&#x138;" horiz-adv-x="383" d="M292 0 L353 0 L198 431 L309 700 L299 700 L124 275 L124 700 L70 700 L70 0 L124 0 L124 251 L168 358 L292 0 Z " />
<glyph glyph-name="Lacute" unicode="&#x139;" horiz-adv-x="376" d="M139 10 L139 700 L85 700 L85 0 L336 0 L336 10 L139 10 Z M208 869 L110 760 L112 750 L230 865 L208 869 Z " />
<glyph glyph-name="lacute" unicode="&#x13a;" horiz-adv-x="262" d="M124 10 L124 700 L70 700 L70 0 L247 0 L247 10 L124 10 Z M193 869 L95 760 L97 750 L215 865 L193 869 Z " />
<glyph glyph-name="Lcommaaccent" unicode="&#x13b;" horiz-adv-x="376" d="M248 -94 C250 -80 245 -60 224 -58 C208 -56 194 -67 192 -83 C190 -98 201 -113 217 -115 C224 -116 231 -114 236 -110 C236 -110 231 -135 207 -153 C209 -155 212 -158 212 -158 C212 -158 243 -133 248 -94 L248 -94 Z M139 10 L139 700 L85 700 L85 0 L336 0 L336 10 L139 10 Z " />
<glyph glyph-name="lcommaaccent" unicode="&#x13c;" horiz-adv-x="262" d="M194 -94 C196 -80 191 -60 170 -58 C154 -56 140 -67 138 -83 C136 -98 147 -113 163 -115 C170 -116 177 -114 182 -110 C182 -110 177 -135 153 -153 C155 -155 158 -158 158 -158 C158 -158 189 -133 194 -94 L194 -94 Z M124 10 L124 700 L70 700 L70 0 L247 0 L247 10 L124 10 Z " />
<glyph glyph-name="Lcaron" unicode="&#x13d;" horiz-adv-x="376" d="M139 10 L139 700 L85 700 L85 0 L336 0 L336 10 L139 10 Z M297 669 C299 684 294 703 273 705 C257 707 243 696 241 680 C239 665 250 650 266 648 C273 648 280 649 286 653 C286 653 281 628 257 610 C258 608 262 605 262 605 C262 605 293 630 297 669 L297 669 Z " />
<glyph glyph-name="lcaron" unicode="&#x13e;" horiz-adv-x="278" d="M124 10 L124 700 L70 700 L70 0 L247 0 L247 10 L124 10 Z M262 669 C264 684 259 703 238 705 C222 707 208 696 206 680 C204 665 215 650 231 648 C238 648 245 649 251 653 C251 653 246 628 222 610 C223 608 227 605 227 605 C227 605 258 630 262 669 L262 669 Z " />
<glyph glyph-name="Ldot" unicode="&#x13f;" horiz-adv-x="378" d="M309 201 C293 201 280 188 280 172 C280 156 293 143 309 143 C325 143 338 156 338 172 C338 188 325 201 309 201 L309 201 Z M139 10 L139 700 L85 700 L85 0 L336 0 L336 10 L139 10 Z " />
<glyph glyph-name="ldot" unicode="&#x140;" horiz-adv-x="278" d="M234 201 C218 201 205 188 205 172 C205 156 218 143 234 143 C250 143 263 156 263 172 C263 188 250 201 234 201 L234 201 Z M124 10 L124 700 L70 700 L70 0 L247 0 L247 10 L124 10 Z " />
<glyph glyph-name="Lslash" unicode="&#x141;" horiz-adv-x="376" d="M139 10 L139 195 L278 282 L273 290 L139 206 L139 700 L85 700 L85 172 L30 138 L36 130 L85 161 L85 0 L336 0 L336 10 L139 10 Z " />
<glyph glyph-name="lslash" unicode="&#x142;" horiz-adv-x="257" d="M119 10 L119 183 L203 226 L198 235 L119 194 L119 700 L65 700 L65 167 L10 138 L16 130 L65 155 L65 0 L242 0 L242 10 L119 10 Z " />
<glyph glyph-name="Nacute" unicode="&#x143;" horiz-adv-x="513" d="M428 700 L374 700 L374 116 L94 700 L85 700 L85 0 L139 0 L139 586 L418 0 L428 0 L428 700 Z M334 869 L236 760 L238 750 L356 865 L334 869 Z " />
<glyph glyph-name="nacute" unicode="&#x144;" horiz-adv-x="369" d="M284 700 L284 159 L94 700 L40 700 L73 602 L73 0 L83 0 L83 573 L284 0 L294 0 L294 700 L284 700 Z M239 869 L141 760 L143 750 L261 865 L239 869 Z " />
<glyph glyph-name="Ncommaaccent" unicode="&#x145;" horiz-adv-x="513" d="M296 -94 C298 -80 293 -60 272 -58 C256 -56 242 -67 240 -83 C238 -98 249 -113 265 -115 C272 -116 279 -114 284 -110 C284 -110 279 -135 255 -153 C257 -155 260 -158 260 -158 C260 -158 291 -133 296 -94 L296 -94 Z M428 700 L374 700 L374 116 L94 700 L85 700 L85 0 L139 0 L139 586 L418 0 L428 0 L428 700 Z " />
<glyph glyph-name="ncommaaccent" unicode="&#x146;" horiz-adv-x="369" d="M218 -94 C220 -80 215 -60 194 -58 C178 -56 164 -67 162 -83 C160 -98 171 -113 187 -115 C194 -116 201 -114 206 -110 C206 -110 201 -135 177 -153 C179 -155 182 -158 182 -158 C182 -158 213 -133 218 -94 L218 -94 Z M284 700 L284 159 L94 700 L40 700 L73 602 L73 0 L83 0 L83 573 L284 0 L294 0 L294 700 L284 700 Z " />
<glyph glyph-name="Ncaron" unicode="&#x147;" horiz-adv-x="513" d="M428 700 L374 700 L374 116 L94 700 L85 700 L85 0 L139 0 L139 586 L418 0 L428 0 L428 700 Z M381 878 L257 770 L132 878 L130 868 L249 758 L265 758 L383 868 L381 878 Z " />
<glyph glyph-name="ncaron" unicode="&#x148;" horiz-adv-x="383" d="M284 700 L284 159 L94 700 L40 700 L73 602 L73 0 L83 0 L83 573 L284 0 L294 0 L294 700 L284 700 Z M306 878 L182 770 L57 878 L55 868 L174 758 L190 758 L308 868 L306 878 Z " />
<glyph glyph-name="napostrophe" unicode="&#x149;" horiz-adv-x="390" d="M305 700 L305 159 L115 700 L61 700 L94 602 L94 0 L104 0 L104 573 L305 0 L315 0 L315 700 L305 700 Z M37 669 C39 684 34 703 13 705 C-3 707 -17 696 -19 680 C-21 665 -10 650 6 648 C13 648 20 649 26 653 C26 653 21 628 -3 610 C-2 608 2 605 2 605 C2 605 33 630 37 669 L37 669 Z " />
<glyph glyph-name="Eng" unicode="&#x14a;" horiz-adv-x="513" d="M428 700 L374 700 L374 116 L95 700 L85 700 L85 0 L139 0 L139 586 L417 3 C415 -11 411 -25 402 -36 C390 -49 371 -56 346 -56 L346 -66 C374 -66 394 -57 409 -42 C424 -26 428 -4 428 30 C428 63 428 700 428 700 L428 700 Z " />
<glyph glyph-name="eng" unicode="&#x14b;" horiz-adv-x="369" d="M284 700 L284 159 L94 700 L40 700 L73 603 L73 0 L83 0 L83 574 L283 3 C281 -11 277 -25 268 -36 C256 -49 237 -56 212 -56 L212 -65 C240 -65 260 -57 275 -42 C285 -31 294 -13 294 19 C294 39 294 700 294 700 L284 700 Z " />
<glyph glyph-name="Omacron" unicode="&#x14c;" horiz-adv-x="803" d="M402 707 C177 707 40 548 40 350 C40 153 177 -7 402 -7 C626 -7 763 153 763 350 C763 548 626 707 402 707 L402 707 Z M402 0 C218 0 103 157 103 350 C103 544 218 700 402 700 C585 700 700 544 700 350 C700 157 585 0 402 0 L402 0 Z M516 799 L287 799 L287 789 L516 789 L516 799 Z " />
<glyph glyph-name="omacron" unicode="&#x14d;" horiz-adv-x="406" d="M203 708 C124 708 70 674 70 574 L70 126 C70 26 124 -8 203 -8 C283 -8 336 26 336 126 L336 574 C336 674 283 708 203 708 L203 708 Z M282 113 C282 41 253 0 203 0 C153 0 124 41 124 113 L124 587 C124 659 153 700 203 700 C253 700 282 659 282 587 L282 113 Z M318 799 L89 799 L89 789 L318 789 L318 799 Z " />
<glyph glyph-name="Obreve" unicode="&#x14e;" horiz-adv-x="803" d="M402 707 C177 707 40 548 40 350 C40 153 177 -7 402 -7 C626 -7 763 153 763 350 C763 548 626 707 402 707 L402 707 Z M402 0 C218 0 103 157 103 350 C103 544 218 700 402 700 C585 700 700 544 700 350 C700 157 585 0 402 0 L402 0 Z M500 861 C500 807 455 763 401 763 C347 763 303 807 302 861 L293 861 C293 802 342 754 401 754 C460 754 509 802 509 861 L500 861 Z " />
<glyph glyph-name="obreve" unicode="&#x14f;" horiz-adv-x="406" d="M203 708 C124 708 70 674 70 574 L70 126 C70 26 124 -8 203 -8 C283 -8 336 26 336 126 L336 574 C336 674 283 708 203 708 L203 708 Z M282 113 C282 41 253 0 203 0 C153 0 124 41 124 113 L124 587 C124 659 153 700 203 700 C253 700 282 659 282 587 L282 113 Z M302 861 C302 807 257 763 203 763 C149 763 105 807 104 861 L95 861 C95 802 144 754 203 754 C262 754 311 802 311 861 L302 861 Z " />
<glyph glyph-name="Ohungarumlaut" unicode="&#x150;" horiz-adv-x="803" d="M402 707 C177 707 40 548 40 350 C40 153 177 -7 402 -7 C626 -7 763 153 763 350 C763 548 626 707 402 707 L402 707 Z M402 0 C218 0 103 157 103 350 C103 544 218 700 402 700 C585 700 700 544 700 350 C700 157 585 0 402 0 L402 0 Z M439 869 L341 760 L343 750 L461 865 L439 869 Z M539 869 L441 760 L443 750 L561 865 L539 869 Z " />
<glyph glyph-name="ohungarumlaut" unicode="&#x151;" horiz-adv-x="420" d="M203 708 C124 708 70 674 70 574 L70 126 C70 26 124 -8 203 -8 C283 -8 336 26 336 126 L336 574 C336 674 283 708 203 708 L203 708 Z M282 113 C282 41 253 0 203 0 C153 0 124 41 124 113 L124 587 C124 659 153 700 203 700 C253 700 282 659 282 587 L282 113 Z M228 869 L130 760 L132 750 L250 865 L228 869 Z M328 869 L230 760 L232 750 L350 865 L328 869 Z " />
<glyph glyph-name="OE" unicode="&#x152;" horiz-adv-x="754" d="M455 10 L455 346 L651 346 L651 356 L455 356 L455 690 L671 690 L671 700 L401 700 C177 700 40 547 40 350 C40 153 177 0 401 0 L689 0 L689 10 L455 10 Z M401 8 C218 8 103 157 103 350 C103 543 218 693 401 693 L401 8 Z " />
<glyph glyph-name="oe" unicode="&#x153;" horiz-adv-x="500" d="M337 10 L337 346 L421 346 L421 356 L337 356 L337 690 L442 690 L442 700 L283 700 L283 690 C262 702 234 707 203 707 C124 707 70 674 70 574 L70 126 C70 26 124 -7 203 -7 C234 -7 262 -2 283 10 L283 0 L460 0 L460 10 L337 10 Z M283 113 C283 41 254 0 203 0 C153 0 124 41 124 113 L124 587 C124 659 153 700 203 700 C254 700 283 659 283 587 L283 113 Z " />
<glyph glyph-name="Racute" unicode="&#x154;" horiz-adv-x="453" d="M413 0 L315 180 C371 225 410 299 410 412 C410 623 276 700 144 700 C143 700 85 700 85 700 L85 0 L140 0 L140 124 C141 124 143 124 144 124 C186 124 228 132 266 149 L347 0 L413 0 Z M140 134 L140 691 C144 691 149 691 154 691 C244 691 350 612 350 412 C350 213 244 134 154 134 C149 134 144 134 140 134 L140 134 Z M287 869 L189 760 L191 750 L309 865 L287 869 Z " />
<glyph glyph-name="racute" unicode="&#x155;" horiz-adv-x="346" d="M311 0 L222 320 C271 345 286 398 286 468 L286 535 C286 635 256 700 138 700 C133 700 70 700 70 700 L70 0 L124 0 L124 304 C128 304 133 304 138 304 C151 304 163 304 173 306 L255 0 L311 0 Z M124 313 L124 690 C128 690 133 690 138 690 C219 690 232 622 232 548 L232 455 C232 381 219 313 138 313 C133 313 128 313 124 313 L124 313 Z M212 869 L114 760 L116 750 L234 865 L212 869 Z " />
<glyph glyph-name="Rcommaaccent" unicode="&#x156;" horiz-adv-x="453" d="M266 -94 C268 -80 263 -60 242 -58 C226 -56 212 -67 210 -83 C208 -98 219 -113 235 -115 C242 -116 249 -114 254 -110 C254 -110 249 -135 225 -153 C227 -155 230 -158 230 -158 C230 -158 261 -133 266 -94 L266 -94 Z M413 0 L315 180 C371 225 410 299 410 412 C410 623 276 700 144 700 C143 700 85 700 85 700 L85 0 L140 0 L140 124 C141 124 143 124 144 124 C186 124 228 132 266 149 L347 0 L413 0 Z M140 134 L140 691 C144 691 149 691 154 691 C244 691 350 612 350 412 C350 213 244 134 154 134 C149 134 144 134 140 134 L140 134 Z " />
<glyph glyph-name="rcommaaccent" unicode="&#x157;" horiz-adv-x="346" d="M213 -94 C215 -80 210 -60 189 -58 C173 -56 159 -67 157 -83 C155 -98 166 -113 182 -115 C189 -116 196 -114 201 -110 C201 -110 196 -135 172 -153 C174 -155 177 -158 177 -158 C177 -158 208 -133 213 -94 L213 -94 Z M311 0 L222 320 C271 345 286 398 286 468 L286 535 C286 635 256 700 138 700 C133 700 70 700 70 700 L70 0 L124 0 L124 304 C128 304 133 304 138 304 C151 304 163 304 173 306 L255 0 L311 0 Z M124 313 L124 690 C128 690 133 690 138 690 C219 690 232 622 232 548 L232 455 C232 381 219 313 138 313 C133 313 128 313 124 313 L124 313 Z " />
<glyph glyph-name="Rcaron" unicode="&#x158;" horiz-adv-x="458" d="M413 0 L315 180 C371 225 410 299 410 412 C410 623 276 700 144 700 C143 700 85 700 85 700 L85 0 L140 0 L140 124 C141 124 143 124 144 124 C186 124 228 132 266 149 L347 0 L413 0 Z M140 134 L140 691 C144 691 149 691 154 691 C244 691 350 612 350 412 C350 213 244 134 154 134 C149 134 144 134 140 134 L140 134 Z M353 878 L229 770 L104 878 L102 868 L221 758 L237 758 L355 868 L353 878 Z " />
<glyph glyph-name="rcaron" unicode="&#x159;" horiz-adv-x="369" d="M334 0 L245 320 C294 345 309 398 309 468 L309 535 C309 635 279 700 161 700 C156 700 93 700 93 700 L93 0 L147 0 L147 304 C151 304 156 304 161 304 C174 304 186 304 196 306 L278 0 L334 0 Z M147 313 L147 690 C151 690 156 690 161 690 C242 690 255 622 255 548 L255 455 C255 381 242 313 161 313 C156 313 151 313 147 313 L147 313 Z M321 878 L197 770 L72 878 L70 868 L189 758 L205 758 L323 868 L321 878 Z " />
<glyph glyph-name="Sacute" unicode="&#x15a;" horiz-adv-x="286" d="M122 581 C127 644 157 700 207 700 L207 707 C138 707 79 670 68 568 C49 394 164 269 158 130 C155 54 110 0 59 0 L59 -7 C139 -7 205 41 212 146 C223 300 109 411 122 581 L122 581 Z M204 869 L106 760 L108 750 L226 865 L204 869 Z " />
<glyph glyph-name="sacute" unicode="&#x15b;" horiz-adv-x="346" d="M99 587 C99 654 115 700 165 700 C215 700 231 657 231 587 C231 548 226 513 226 513 L280 513 C280 513 285 535 285 574 C286 672 245 707 165 707 C85 707 45 676 45 574 C45 435 237 213 246 113 C252 43 227 0 177 0 C127 0 109 44 108 113 C107 154 114 187 114 187 L60 187 C60 187 55 165 54 126 C52 24 97 -7 177 -7 C257 -7 306 32 300 126 C292 248 99 444 99 587 L99 587 Z M249 869 L151 760 L153 750 L271 865 L249 869 Z " />
<glyph glyph-name="Scircumflex" unicode="&#x15c;" horiz-adv-x="283" d="M122 581 C127 644 157 700 207 700 L207 707 C138 707 79 670 68 568 C49 394 164 269 158 130 C155 54 110 0 59 0 L59 -7 C139 -7 205 41 212 146 C223 300 109 411 122 581 L122 581 Z M263 760 L145 869 L129 869 L10 760 L12 750 L137 858 L261 750 L263 760 Z " />
<glyph glyph-name="scircumflex" unicode="&#x15d;" horiz-adv-x="346" d="M99 587 C99 654 115 700 165 700 C215 700 231 657 231 587 C231 548 226 513 226 513 L280 513 C280 513 285 535 285 574 C286 672 245 707 165 707 C85 707 45 676 45 574 C45 435 237 213 246 113 C252 43 227 0 177 0 C127 0 109 44 108 113 C107 154 114 187 114 187 L60 187 C60 187 55 165 54 126 C52 24 97 -7 177 -7 C257 -7 306 32 300 126 C292 248 99 444 99 587 L99 587 Z M300 760 L182 869 L166 869 L47 760 L49 750 L174 858 L298 750 L300 760 Z " />
<glyph glyph-name="Scedilla" unicode="&#x15e;" horiz-adv-x="274" d="M123 581 C128 644 157 700 208 700 L208 707 C139 707 80 670 69 568 C50 394 165 269 159 130 C156 54 111 0 60 0 L60 -7 C76 -7 92 -5 106 -1 L82 -55 L83 -56 C83 -56 95 -55 103 -56 C122 -57 122 -76 115 -102 C107 -129 85 -140 61 -144 L61 -150 C87 -152 146 -146 159 -103 C168 -75 150 -31 90 -50 L113 1 C117 2 121 4 125 5 C137 9 135 9 128 7 C175 28 208 73 213 146 C224 300 110 411 123 581 L123 581 Z " />
<glyph glyph-name="scedilla" unicode="&#x15f;" horiz-adv-x="345" d="M301 126 C293 248 99 444 99 587 C99 654 115 700 165 700 C216 700 232 657 232 587 C232 548 226 513 226 513 L280 513 C280 513 286 535 286 574 C286 672 245 707 165 707 C86 707 45 676 45 574 C45 435 237 213 246 113 C253 43 228 0 177 0 C127 0 110 44 108 113 C108 154 114 187 114 187 L60 187 C60 187 55 165 54 126 C52 24 98 -7 177 -7 C179 -7 181 -7 183 -7 L162 -55 L163 -56 C163 -56 175 -55 183 -56 C202 -57 202 -76 195 -102 C187 -129 165 -140 141 -144 L141 -150 C167 -152 226 -146 239 -103 C248 -75 230 -31 170 -50 L190 -7 C262 -3 306 37 301 126 L301 126 Z " />
<glyph glyph-name="Scaron" unicode="&#x160;" horiz-adv-x="283" d="M122 581 C127 644 157 700 207 700 L207 707 C138 707 79 670 68 568 C49 394 164 269 158 130 C155 54 110 0 59 0 L59 -7 C139 -7 205 41 212 146 C223 300 109 411 122 581 L122 581 Z M261 878 L137 770 L12 878 L10 868 L129 758 L145 758 L263 868 L261 878 Z " />
<glyph glyph-name="scaron" unicode="&#x161;" horiz-adv-x="346" d="M99 587 C99 654 115 700 165 700 C215 700 231 657 231 587 C231 548 226 513 226 513 L280 513 C280 513 285 535 285 574 C286 672 245 707 165 707 C85 707 45 676 45 574 C45 435 237 213 246 113 C252 43 227 0 177 0 C127 0 109 44 108 113 C107 154 114 187 114 187 L60 187 C60 187 55 165 54 126 C52 24 97 -7 177 -7 C257 -7 306 32 300 126 C292 248 99 444 99 587 L99 587 Z M298 878 L174 770 L49 878 L47 868 L166 758 L182 758 L300 868 L298 878 Z " />
<glyph glyph-name="Tcommaaccent" unicode="&#x162;" horiz-adv-x="492" d="M274 -94 C276 -80 271 -60 250 -58 C234 -56 220 -67 218 -83 C216 -98 227 -113 243 -115 C250 -116 257 -114 262 -110 C262 -110 257 -135 233 -153 C235 -155 238 -158 238 -158 C238 -158 269 -133 274 -94 L274 -94 Z M452 700 L40 700 L40 691 L219 691 L219 0 L273 0 L273 691 L452 691 L452 700 Z " />
<glyph glyph-name="tcommaaccent" unicode="&#x163;" horiz-adv-x="313" d="M181 -94 C183 -80 178 -60 157 -58 C141 -56 127 -67 125 -83 C123 -98 134 -113 150 -115 C157 -116 164 -114 169 -110 C169 -110 164 -135 140 -153 C142 -155 145 -158 145 -158 C145 -158 176 -133 181 -94 L181 -94 Z M283 700 L20 700 L20 690 L125 690 L125 0 L179 0 L179 690 L283 690 L283 700 Z " />
<glyph glyph-name="Tcaron" unicode="&#x164;" horiz-adv-x="492" d="M452 700 L40 700 L40 691 L219 691 L219 0 L273 0 L273 691 L452 691 L452 700 Z M370 878 L246 770 L121 878 L119 868 L238 758 L254 758 L372 868 L370 878 Z " />
<glyph glyph-name="tcaron" unicode="&#x165;" horiz-adv-x="366" d="M283 700 L20 700 L20 690 L125 690 L125 0 L179 0 L179 690 L283 690 L283 700 Z M365 669 C367 684 362 703 341 705 C325 707 311 696 309 680 C307 665 318 650 334 648 C341 648 348 649 354 653 C354 653 349 628 325 610 C326 608 330 605 330 605 C330 605 361 630 365 669 L365 669 Z " />
<glyph glyph-name="Tbar" unicode="&#x166;" horiz-adv-x="491" d="M451 690 L451 700 L40 700 L40 690 L218 690 L218 355 L102 355 L102 345 L218 345 L218 0 L272 0 L272 345 L389 345 L389 355 L272 355 L272 690 L451 690 Z " />
<glyph glyph-name="tbar" unicode="&#x167;" horiz-adv-x="313" d="M283 690 L283 700 L20 700 L20 690 L124 690 L124 356 L64 356 L64 346 L124 346 L124 0 L178 0 L178 346 L239 346 L239 356 L178 356 L178 690 L283 690 Z " />
<glyph glyph-name="Utilde" unicode="&#x168;" horiz-adv-x="654" d="M560 700 L560 215 C560 82 460 0 349 0 C259 0 139 67 139 206 L139 700 L85 700 L85 222 C85 46 238 -7 349 -7 C460 -7 569 65 569 222 L569 700 L560 700 Z M413 757 C427 757 439 761 450 769 C463 780 472 796 474 816 L464 816 C463 800 456 785 444 777 C433 768 418 765 401 768 C376 772 362 787 348 803 C334 818 320 834 295 840 C276 844 258 841 245 830 C230 819 221 801 220 779 L229 778 C230 797 238 813 250 823 C262 832 277 835 293 831 C315 826 327 812 341 797 C356 780 371 763 399 758 C404 758 408 757 413 757 L413 757 Z " />
<glyph glyph-name="utilde" unicode="&#x169;" horiz-adv-x="406" d="M282 700 L282 113 C282 41 253 0 203 0 C153 0 124 41 124 113 L124 700 L70 700 L70 126 C70 26 124 -7 203 -7 C283 -7 336 26 336 126 L336 700 L282 700 Z M269 757 C283 757 295 761 306 769 C319 780 328 796 330 816 L320 816 C319 800 312 785 300 777 C289 768 274 765 257 768 C232 772 218 787 204 803 C190 818 176 834 151 840 C132 844 114 841 101 830 C86 819 77 801 76 779 L85 778 C86 797 94 813 106 823 C118 832 133 835 149 831 C171 826 183 812 197 797 C212 780 227 763 255 758 C260 758 264 757 269 757 L269 757 Z " />
<glyph glyph-name="Umacron" unicode="&#x16a;" horiz-adv-x="654" d="M560 700 L560 215 C560 82 460 0 349 0 C259 0 139 67 139 206 L139 700 L85 700 L85 222 C85 46 238 -7 349 -7 C460 -7 569 65 569 222 L569 700 L560 700 Z M441 799 L212 799 L212 789 L441 789 L441 799 Z " />
<glyph glyph-name="umacron" unicode="&#x16b;" horiz-adv-x="406" d="M282 700 L282 113 C282 41 253 0 203 0 C153 0 124 41 124 113 L124 700 L70 700 L70 126 C70 26 124 -7 203 -7 C283 -7 336 26 336 126 L336 700 L282 700 Z M317 799 L88 799 L88 789 L317 789 L317 799 Z " />
<glyph glyph-name="Ubreve" unicode="&#x16c;" horiz-adv-x="654" d="M560 700 L560 215 C560 82 460 0 349 0 C259 0 139 67 139 206 L139 700 L85 700 L85 222 C85 46 238 -7 349 -7 C460 -7 569 65 569 222 L569 700 L560 700 Z M456 861 C456 807 411 763 357 763 C303 763 259 807 258 861 L249 861 C249 802 298 754 357 754 C416 754 465 802 465 861 L456 861 Z " />
<glyph glyph-name="ubreve" unicode="&#x16d;" horiz-adv-x="406" d="M282 700 L282 113 C282 41 253 0 203 0 C153 0 124 41 124 113 L124 700 L70 700 L70 126 C70 26 124 -7 203 -7 C283 -7 336 26 336 126 L336 700 L282 700 Z M301 861 C301 807 256 763 202 763 C148 763 104 807 103 861 L94 861 C94 802 143 754 202 754 C261 754 310 802 310 861 L301 861 Z " />
<glyph glyph-name="Uring" unicode="&#x16e;" horiz-adv-x="654" d="M560 700 L560 215 C560 82 460 0 349 0 C259 0 139 67 139 206 L139 700 L85 700 L85 222 C85 46 238 -7 349 -7 C460 -7 569 65 569 222 L569 700 L560 700 Z M347 755 C390 755 425 791 425 834 C425 878 390 913 347 913 C303 913 268 878 268 834 C268 791 303 755 347 755 L347 755 Z M347 904 C385 904 416 872 416 834 C416 796 385 765 347 765 C308 765 277 796 277 834 C277 872 308 904 347 904 L347 904 Z " />
<glyph glyph-name="uring" unicode="&#x16f;" horiz-adv-x="406" d="M282 700 L282 113 C282 41 253 0 203 0 C153 0 124 41 124 113 L124 700 L70 700 L70 126 C70 26 124 -7 203 -7 C283 -7 336 26 336 126 L336 700 L282 700 Z M203 755 C246 755 281 791 281 834 C281 878 246 913 203 913 C159 913 124 878 124 834 C124 791 159 755 203 755 L203 755 Z M203 904 C241 904 272 872 272 834 C272 796 241 765 203 765 C164 765 133 796 133 834 C133 872 164 904 203 904 L203 904 Z " />
<glyph glyph-name="Uhungarumlaut" unicode="&#x170;" horiz-adv-x="654" d="M560 700 L560 215 C560 82 460 0 349 0 C259 0 139 67 139 206 L139 700 L85 700 L85 222 C85 46 238 -7 349 -7 C460 -7 569 65 569 222 L569 700 L560 700 Z M365 869 L267 760 L269 750 L387 865 L365 869 Z M465 869 L367 760 L369 750 L487 865 L465 869 Z " />
<glyph glyph-name="uhungarumlaut" unicode="&#x171;" horiz-adv-x="413" d="M282 700 L282 113 C282 41 253 0 203 0 C153 0 124 41 124 113 L124 700 L70 700 L70 126 C70 26 124 -7 203 -7 C283 -7 336 26 336 126 L336 700 L282 700 Z M231 869 L133 760 L135 750 L253 865 L231 869 Z M331 869 L233 760 L235 750 L353 865 L331 869 Z " />
<glyph glyph-name="Uogonek" unicode="&#x172;" horiz-adv-x="655" d="M560 700 L560 215 C560 82 461 0 350 0 C259 0 139 67 139 206 L139 700 L85 700 L85 222 C85 46 239 -7 350 -7 C356 -7 362 -7 367 -7 C335 -22 294 -53 298 -100 C302 -148 366 -170 400 -124 L400 -118 C368 -129 348 -120 341 -94 C330 -57 355 -20 381 -5 C480 7 570 80 570 222 L570 700 L560 700 Z " />
<glyph glyph-name="uogonek" unicode="&#x173;" horiz-adv-x="406" d="M282 700 L282 113 C282 41 253 0 203 0 C153 0 124 41 124 113 L124 700 L70 700 L70 126 C70 26 123 -7 203 -7 C203 -7 204 -7 204 -7 C172 -23 132 -54 136 -100 C140 -148 204 -170 238 -124 L238 -118 C206 -129 186 -120 178 -94 C168 -58 191 -22 216 -7 C288 -3 336 32 336 126 L336 700 L282 700 Z " />
<glyph glyph-name="Wcircumflex" unicode="&#x174;" horiz-adv-x="741" d="M234 0 L377 581 L536 0 L701 700 L691 700 L553 110 L403 700 L397 700 L255 120 L94 700 L40 700 L234 0 Z M527 760 L409 869 L393 869 L274 760 L276 750 L401 858 L525 750 L527 760 Z " />
<glyph glyph-name="wcircumflex" unicode="&#x175;" horiz-adv-x="492" d="M452 700 L346 131 L287 465 L332 700 L322 700 L283 489 L245 700 L182 700 L243 394 L195 131 L93 700 L30 700 L171 0 L180 0 L248 368 L322 0 L332 0 L462 700 L452 700 Z M385 760 L267 869 L251 869 L132 760 L134 750 L259 858 L383 750 L385 760 Z " />
<glyph glyph-name="Ycircumflex" unicode="&#x176;" horiz-adv-x="504" d="M464 700 L454 700 L297 277 L96 700 L40 700 L249 265 L249 0 L303 0 L302 265 L464 700 Z M402 760 L284 869 L268 869 L149 760 L151 750 L276 858 L400 750 L402 760 Z " />
<glyph glyph-name="ycircumflex" unicode="&#x177;" horiz-adv-x="313" d="M273 700 L263 700 L178 322 L71 700 L15 700 L132 309 L132 0 L186 0 L185 307 L273 700 Z M272 760 L154 869 L138 869 L19 760 L21 750 L146 858 L270 750 L272 760 Z " />
<glyph glyph-name="Ydieresis" unicode="&#x178;" horiz-adv-x="504" d="M464 700 L454 700 L297 277 L96 700 L40 700 L249 265 L249 0 L303 0 L302 265 L464 700 Z M227 823 C211 823 198 810 198 794 C198 778 211 765 227 765 C243 765 255 778 255 794 C255 810 243 823 227 823 L227 823 Z M325 823 C309 823 296 810 296 794 C296 778 309 765 325 765 C341 765 354 778 354 794 C354 810 341 823 325 823 L325 823 Z " />
<glyph glyph-name="Zacute" unicode="&#x179;" horiz-adv-x="443" d="M388 700 L81 700 L81 690 L330 690 L45 0 L370 0 L370 10 L103 10 L388 700 Z M324 869 L226 760 L228 750 L346 865 L324 869 Z " />
<glyph glyph-name="zacute" unicode="&#x17a;" horiz-adv-x="266" d="M86 10 L225 700 L48 700 L48 690 L169 690 L30 0 L226 0 L226 10 L86 10 Z M199 869 L101 760 L103 750 L221 865 L199 869 Z " />
<glyph glyph-name="Zdotaccent" unicode="&#x17b;" horiz-adv-x="443" d="M388 700 L81 700 L81 690 L330 690 L45 0 L370 0 L370 10 L103 10 L388 700 Z M246 823 C230 823 217 810 217 794 C217 778 230 765 246 765 C262 765 275 778 275 794 C275 810 262 823 246 823 L246 823 Z " />
<glyph glyph-name="zdotaccent" unicode="&#x17c;" horiz-adv-x="266" d="M86 10 L225 700 L48 700 L48 690 L169 690 L30 0 L226 0 L226 10 L86 10 Z M151 823 C135 823 122 810 122 794 C122 778 135 765 151 765 C167 765 180 778 180 794 C180 810 167 823 151 823 L151 823 Z " />
<glyph glyph-name="Zcaron" unicode="&#x17d;" horiz-adv-x="443" d="M388 700 L81 700 L81 690 L330 690 L45 0 L370 0 L370 10 L103 10 L388 700 Z M381 878 L257 770 L132 878 L130 868 L249 758 L265 758 L383 868 L381 878 Z " />
<glyph glyph-name="zcaron" unicode="&#x17e;" horiz-adv-x="258" d="M86 10 L225 700 L48 700 L48 690 L169 690 L30 0 L226 0 L226 10 L86 10 Z M266 878 L142 770 L17 878 L15 868 L134 758 L150 758 L268 868 L266 878 Z " />
<glyph glyph-name="longs" unicode="&#x17f;" horiz-adv-x="274" d="M244 690 L244 700 L85 700 L85 0 L139 0 L139 690 L244 690 Z " />
<glyph glyph-name="AEacute" unicode="&#x1fc;" horiz-adv-x="640" d="M341 10 L341 346 L536 346 L536 356 L341 356 L341 690 L557 690 L557 700 L287 700 L20 0 L30 0 L119 234 L287 234 L287 0 L575 0 L575 10 L341 10 Z M123 244 L287 673 L287 244 L123 244 Z M435 869 L337 760 L339 750 L457 865 L435 869 Z " />
<glyph glyph-name="aeacute" unicode="&#x1fd;" horiz-adv-x="503" d="M340 10 L340 346 L425 346 L425 356 L340 356 L340 690 L445 690 L445 700 L286 700 L20 0 L29 0 L119 234 L286 234 L286 0 L463 0 L463 10 L340 10 Z M286 244 L122 244 L286 673 L286 244 Z M435 869 L337 760 L339 750 L457 865 L435 869 Z " />
<glyph glyph-name="Oslashacute" unicode="&#x1fe;" horiz-adv-x="802" d="M524 689 L554 775 L544 775 L515 692 C480 702 442 707 401 707 C177 707 40 547 40 350 C40 192 128 58 278 11 L248 -75 L258 -75 L286 8 C321 -2 360 -7 401 -7 C625 -7 762 153 762 350 C762 508 674 642 524 689 L524 689 Z M103 350 C103 543 217 700 401 700 C441 700 478 693 510 679 L282 25 C169 77 103 203 103 350 L103 350 Z M401 0 C361 0 324 8 291 21 L519 675 C632 624 699 498 699 350 C699 157 584 0 401 0 L401 0 Z M499 869 L401 760 L403 750 L521 865 L499 869 Z " />
<glyph glyph-name="oslashacute" unicode="&#x1ff;" horiz-adv-x="407" d="M283 691 L301 775 L291 775 L274 695 C254 704 230 707 203 707 C124 707 70 674 70 574 L70 126 C70 65 90 29 124 10 L106 -74 L116 -74 L133 5 C153 -3 177 -7 203 -7 C283 -7 337 26 337 126 L337 574 C337 635 316 672 283 691 L283 691 Z M124 113 L124 587 C124 659 153 700 203 700 C232 700 253 687 267 663 L133 52 C127 69 124 89 124 113 L124 113 Z M283 113 C283 41 254 0 203 0 C175 0 154 13 140 37 L273 648 C279 631 283 611 283 587 L283 113 Z M286 869 L188 760 L190 750 L308 865 L286 869 Z " />
<glyph glyph-name="Scommaaccent" unicode="&#x218;" horiz-adv-x="273" d="M161 -94 C163 -80 158 -60 137 -58 C121 -56 107 -67 105 -83 C103 -98 114 -113 130 -115 C137 -116 144 -114 149 -110 C149 -110 144 -135 120 -153 C122 -155 125 -158 125 -158 C125 -158 156 -133 161 -94 L161 -94 Z M122 581 C127 644 157 700 207 700 L207 707 C138 707 79 670 68 568 C49 394 164 269 158 130 C155 54 110 0 59 0 L59 -7 C139 -7 205 41 212 146 C223 300 109 411 122 581 L122 581 Z " />
<glyph glyph-name="scommaaccent" unicode="&#x219;" horiz-adv-x="346" d="M209 -94 C211 -80 206 -60 185 -58 C169 -56 155 -67 153 -83 C151 -98 162 -113 178 -115 C185 -116 192 -114 197 -110 C197 -110 192 -135 168 -153 C170 -155 173 -158 173 -158 C173 -158 204 -133 209 -94 L209 -94 Z M99 587 C99 654 115 700 165 700 C215 700 231 657 231 587 C231 548 226 513 226 513 L280 513 C280 513 285 535 285 574 C286 672 245 707 165 707 C85 707 45 676 45 574 C45 435 237 213 246 113 C252 43 227 0 177 0 C127 0 109 44 108 113 C107 154 114 187 114 187 L60 187 C60 187 55 165 54 126 C52 24 97 -7 177 -7 C257 -7 306 32 300 126 C292 248 99 444 99 587 L99 587 Z " />
<glyph glyph-name="circumflex" unicode="&#x2c6;" horiz-adv-x="423" d="M338 560 L220 669 L204 669 L85 560 L87 550 L212 658 L336 550 L338 560 Z " />
<glyph glyph-name="caron" unicode="&#x2c7;" horiz-adv-x="423" d="M336 678 L212 570 L87 678 L85 668 L204 558 L220 558 L338 668 L336 678 Z " />
<glyph glyph-name="breve" unicode="&#x2d8;" horiz-adv-x="386" d="M292 661 C292 607 247 563 193 563 C139 563 95 607 94 661 L85 661 C85 602 134 554 193 554 C252 554 301 602 301 661 L292 661 Z " />
<glyph glyph-name="dotaccent" unicode="&#x2d9;" horiz-adv-x="228" d="M114 623 C98 623 85 610 85 594 C85 578 98 565 114 565 C130 565 143 578 143 594 C143 610 130 623 114 623 L114 623 Z " />
<glyph glyph-name="ring" unicode="&#x2da;" horiz-adv-x="327" d="M164 555 C207 555 242 591 242 634 C242 678 207 713 164 713 C120 713 85 678 85 634 C85 591 120 555 164 555 L164 555 Z M164 704 C202 704 233 672 233 634 C233 596 202 565 164 565 C125 565 94 596 94 634 C94 672 125 704 164 704 L164 704 Z " />
<glyph glyph-name="ogonek" unicode="&#x2db;" horiz-adv-x="273" d="M86 -100 C90 -148 154 -170 188 -124 L188 -118 C156 -130 136 -120 128 -94 C116 -51 152 -7 182 0 L182 4 C156 -2 80 -37 86 -100 L86 -100 Z " />
<glyph glyph-name="tilde" unicode="&#x2dc;" horiz-adv-x="424" d="M278 557 C292 557 304 561 315 569 C328 580 337 596 339 616 L329 616 C328 600 321 585 309 577 C298 568 283 565 266 568 C241 572 227 587 213 603 C199 618 185 634 160 640 C141 644 123 641 110 630 C95 619 86 601 85 579 L94 578 C95 597 103 613 115 623 C127 632 142 635 158 631 C180 626 192 612 206 597 C221 580 236 563 264 558 C269 558 273 557 278 557 L278 557 Z " />
<glyph glyph-name="hungarumlaut" unicode="&#x2dd;" horiz-adv-x="390" d="M183 669 L85 560 L87 550 L205 665 L183 669 Z M283 669 L185 560 L187 550 L305 665 L283 669 Z " />
<glyph glyph-name="Wgrave" unicode="&#x1e80;" horiz-adv-x="741" d="M234 0 L377 581 L536 0 L701 700 L691 700 L553 110 L403 700 L397 700 L255 120 L94 700 L40 700 L234 0 Z M290 865 L408 750 L410 760 L312 869 L290 865 Z " />
<glyph glyph-name="wgrave" unicode="&#x1e81;" horiz-adv-x="492" d="M452 700 L346 131 L287 465 L332 700 L322 700 L283 489 L245 700 L182 700 L243 394 L195 131 L93 700 L30 700 L171 0 L180 0 L248 368 L322 0 L332 0 L462 700 L452 700 Z M170 865 L288 750 L290 760 L192 869 L170 865 Z " />
<glyph glyph-name="Wacute" unicode="&#x1e82;" horiz-adv-x="741" d="M234 0 L377 581 L536 0 L701 700 L691 700 L553 110 L403 700 L397 700 L255 120 L94 700 L40 700 L234 0 Z M488 869 L390 760 L392 750 L510 865 L488 869 Z " />
<glyph glyph-name="wacute" unicode="&#x1e83;" horiz-adv-x="492" d="M452 700 L346 131 L287 465 L332 700 L322 700 L283 489 L245 700 L182 700 L243 394 L195 131 L93 700 L30 700 L171 0 L180 0 L248 368 L322 0 L332 0 L462 700 L452 700 Z M328 869 L230 760 L232 750 L350 865 L328 869 Z " />
<glyph glyph-name="Wdieresis" unicode="&#x1e84;" horiz-adv-x="741" d="M234 0 L377 581 L536 0 L701 700 L691 700 L553 110 L403 700 L397 700 L255 120 L94 700 L40 700 L234 0 Z M351 823 C335 823 322 810 322 794 C322 778 335 765 351 765 C367 765 379 778 379 794 C379 810 367 823 351 823 L351 823 Z M449 823 C433 823 420 810 420 794 C420 778 433 765 449 765 C465 765 478 778 478 794 C478 810 465 823 449 823 L449 823 Z " />
<glyph glyph-name="wdieresis" unicode="&#x1e85;" horiz-adv-x="492" d="M452 700 L346 131 L287 465 L332 700 L322 700 L283 489 L245 700 L182 700 L243 394 L195 131 L93 700 L30 700 L171 0 L180 0 L248 368 L322 0 L332 0 L462 700 L452 700 Z M214 823 C198 823 185 810 185 794 C185 778 198 765 214 765 C230 765 242 778 242 794 C242 810 230 823 214 823 L214 823 Z M312 823 C296 823 283 810 283 794 C283 778 296 765 312 765 C328 765 341 778 341 794 C341 810 328 823 312 823 L312 823 Z " />
<glyph glyph-name="Ygrave" unicode="&#x1ef2;" horiz-adv-x="504" d="M464 700 L454 700 L297 277 L96 700 L40 700 L249 265 L249 0 L303 0 L302 265 L464 700 Z M172 865 L290 750 L292 760 L194 869 L172 865 Z " />
<glyph glyph-name="ygrave" unicode="&#x1ef3;" horiz-adv-x="313" d="M273 700 L263 700 L178 322 L71 700 L15 700 L132 309 L132 0 L186 0 L185 307 L273 700 Z M60 865 L178 750 L180 760 L82 869 L60 865 Z " />
<glyph glyph-name="endash" unicode="&#x2013;" horiz-adv-x="413" d="M60 362 L60 352 L353 352 L353 362 L60 362 Z " />
<glyph glyph-name="emdash" unicode="&#x2014;" horiz-adv-x="449" d="M60 362 L60 352 L389 352 L389 362 L60 362 Z " />
<glyph glyph-name="quoteleft" unicode="&#x2018;" horiz-adv-x="179" d="M61 729 C60 714 65 695 86 693 C101 691 116 702 118 718 C120 733 108 748 93 750 C86 750 79 749 73 745 C73 745 78 770 102 788 C100 790 97 793 97 793 C97 793 66 768 61 729 L61 729 Z " />
<glyph glyph-name="quoteright" unicode="&#x2019;" horiz-adv-x="178" d="M117 756 C119 771 114 790 93 792 C77 794 63 783 61 767 C59 752 70 737 86 735 C93 735 100 736 106 740 C106 740 101 715 77 697 C78 695 82 692 82 692 C82 692 113 717 117 756 L117 756 Z " />
<glyph glyph-name="quotesinglbase" unicode="&#x201a;" horiz-adv-x="179" d="M118 13 C120 28 115 47 93 50 C78 52 63 41 61 25 C60 9 71 -5 86 -7 C94 -8 100 -6 106 -2 C106 -2 101 -27 77 -45 C79 -47 82 -50 82 -50 C82 -50 113 -25 118 13 L118 13 Z " />
<glyph glyph-name="quotedblleft" unicode="&#x201c;" horiz-adv-x="252" d="M135 729 C133 714 138 695 159 693 C175 691 189 702 191 718 C193 733 182 748 166 750 C159 750 152 749 147 745 C147 745 151 770 175 788 C174 790 170 793 170 793 C170 793 139 768 135 729 L135 729 Z M61 729 C59 714 64 695 85 693 C101 691 115 702 117 718 C119 733 108 748 92 750 C85 750 78 749 73 745 C73 745 77 770 101 788 C100 790 96 793 96 793 C96 793 65 768 61 729 L61 729 Z " />
<glyph glyph-name="quotedblright" unicode="&#x201d;" horiz-adv-x="252" d="M117 756 C119 771 114 790 93 792 C77 794 63 783 61 767 C59 752 70 737 86 735 C93 735 100 736 105 740 C105 740 101 715 77 697 C78 695 82 692 82 692 C82 692 113 717 117 756 L117 756 Z M191 756 C193 771 188 790 167 792 C151 794 137 783 135 767 C133 752 144 737 160 735 C167 735 174 736 179 740 C179 740 175 715 151 697 C152 695 156 692 156 692 C156 692 187 717 191 756 L191 756 Z " />
<glyph glyph-name="quotedblbase" unicode="&#x201e;" horiz-adv-x="252" d="M117 13 C119 28 114 47 92 50 C77 52 62 41 61 25 C59 9 70 -5 86 -7 C93 -8 100 -6 105 -2 C105 -2 100 -27 76 -45 C78 -47 81 -50 81 -50 C81 -50 112 -25 117 13 L117 13 Z M191 13 C193 28 188 47 167 50 C151 52 137 41 135 25 C133 9 144 -5 160 -7 C167 -8 174 -6 179 -2 C179 -2 174 -27 150 -45 C152 -47 155 -50 155 -50 C155 -50 186 -25 191 13 L191 13 Z " />
<glyph glyph-name="bullet" unicode="&#x2022;" horiz-adv-x="258" d="M128 459 C105 459 85 439 85 414 C85 389 105 369 128 369 C153 369 173 389 173 414 C173 439 153 459 128 459 L128 459 Z " />
<glyph glyph-name="ellipsis" unicode="&#x2026;" horiz-adv-x="491" d="M88 51 C73 51 60 38 60 22 C60 6 73 -7 88 -7 C104 -7 117 6 117 22 C117 38 104 51 88 51 L88 51 Z M245 51 C230 51 217 38 217 22 C217 6 230 -7 245 -7 C261 -7 274 6 274 22 C274 38 261 51 245 51 L245 51 Z M402 51 C387 51 374 38 374 22 C374 6 387 -7 402 -7 C418 -7 431 6 431 22 C431 38 418 51 402 51 L402 51 Z " />
<glyph glyph-name="perthousand" unicode="&#x2030;" horiz-adv-x="1019" d="M525 700 L136 0 L146 0 L535 700 L525 700 Z M329 565 C329 630 281 707 184 707 C88 707 40 630 40 565 C40 500 88 423 184 423 C281 423 329 500 329 565 L329 565 Z M97 565 C97 624 112 701 184 701 C257 701 272 624 272 565 C272 506 257 429 184 429 C112 429 97 506 97 565 L97 565 Z M488 278 C392 278 344 200 344 136 C344 71 392 -7 488 -7 C584 -7 632 71 632 136 C632 200 584 278 488 278 L488 278 Z M488 0 C416 0 400 76 400 136 C400 195 416 271 488 271 C560 271 576 195 576 136 C576 76 560 0 488 0 L488 0 Z M835 278 C739 278 691 200 691 136 C691 71 739 -7 835 -7 C931 -7 979 71 979 136 C979 200 931 278 835 278 L835 278 Z M835 0 C763 0 747 76 747 136 C747 195 763 271 835 271 C907 271 923 195 923 136 C923 76 907 0 835 0 L835 0 Z " />
<glyph glyph-name="guilsinglleft" unicode="&#x2039;" horiz-adv-x="368" d="M308 458 L306 467 L40 362 L40 352 L306 247 L308 256 L54 357 L308 458 Z " />
<glyph glyph-name="guilsinglright" unicode="&#x203a;" horiz-adv-x="368" d="M62 467 L60 458 L314 357 L60 256 L62 247 L328 352 L328 362 L62 467 Z " />
<glyph glyph-name="exclamdbl" unicode="&#x203c;" horiz-adv-x="331" d="M89 51 C73 51 60 38 60 22 C60 6 73 -7 89 -7 C105 -7 118 6 118 22 C118 38 105 51 89 51 L89 51 Z M88 700 C70 699 62 686 62 639 C62 576 83 98 83 98 L94 98 C94 98 115 576 115 639 C115 686 107 699 88 700 L88 700 Z M242 51 C226 51 213 38 213 22 C213 6 226 -7 242 -7 C258 -7 271 6 271 22 C271 38 258 51 242 51 L242 51 Z M241 700 C223 699 215 686 215 639 C215 576 236 98 236 98 L247 98 C247 98 268 576 268 639 C268 686 260 699 241 700 L241 700 Z " />
<glyph glyph-name="Euro" unicode="&#x20ac;" horiz-adv-x="696" d="M462 700 C530 700 599 683 656 648 L656 658 C603 689 537 707 462 707 C254 707 121 570 103 392 L64 392 L60 382 L102 382 C101 372 101 361 101 350 C101 339 101 329 102 318 L64 318 L60 308 L103 308 C121 131 254 -7 462 -7 C537 -7 603 11 656 42 L656 52 C599 17 530 0 462 0 C292 0 181 135 166 308 L413 308 L417 318 L165 318 C164 329 164 339 164 350 C164 361 164 372 165 382 L432 382 L436 392 L166 392 C181 566 292 700 462 700 L462 700 Z " />
<glyph glyph-name="ruble" unicode="&#x20bd;" horiz-adv-x="347" d="M149 700 C144 700 81 700 81 700 L81 332 L10 332 L10 322 L81 322 L81 265 L10 265 L10 255 L81 255 L81 0 L135 0 L135 255 L256 255 L256 265 L135 265 L135 322 C139 322 144 322 149 322 C267 322 297 387 297 487 L297 535 C297 635 267 700 149 700 L149 700 Z M243 474 C243 400 230 332 149 332 C144 332 139 332 135 332 L135 690 C139 690 144 690 149 690 C230 690 243 622 243 548 L243 474 Z " />
<glyph glyph-name="bitcoin" unicode="&#x20bf;" horiz-adv-x="355" d="M193 359 C263 378 283 436 283 517 L283 535 C283 616 263 674 193 693 L193 775 L183 775 L183 696 C172 698 159 699 145 700 L145 775 L135 775 L135 700 C135 700 135 700 134 700 C131 700 70 700 70 700 L70 0 C70 0 131 0 135 0 L135 -74 L145 -74 L145 0 C149 0 153 0 157 0 C166 0 175 1 183 2 L183 -74 L193 -74 L193 3 C281 15 305 76 305 165 L305 197 C305 285 281 346 193 359 L193 359 Z M134 690 C216 690 229 622 229 548 L229 504 C229 430 216 362 134 362 C131 362 127 362 124 362 L124 690 C127 690 131 690 134 690 L134 690 Z M251 152 C251 78 238 10 157 10 C142 10 132 10 124 10 L124 351 C132 351 142 351 157 351 C238 351 251 284 251 210 L251 152 Z " />
<glyph glyph-name="afii61352" unicode="&#x2116;" horiz-adv-x="644" d="M284 700 L284 159 L94 700 L40 700 L73 603 L73 0 L83 0 L83 574 L284 0 L294 0 L294 700 L284 700 Z M363 399 L600 399 L600 409 L363 409 L363 399 Z M482 467 C563 467 604 532 604 587 C604 642 563 707 482 707 C400 707 359 642 359 587 C359 532 400 467 482 467 L482 467 Z M482 702 C543 702 556 637 556 587 C556 537 543 472 482 472 C420 472 407 537 407 587 C407 637 420 702 482 702 L482 702 Z " />
<glyph glyph-name="minus" unicode="&#x2212;" horiz-adv-x="375" d="M60 362 L60 352 L315 352 L315 362 L60 362 Z " />
<glyph glyph-name="approxequal" unicode="&#x2248;" horiz-adv-x="466" d="M324 307 C343 307 360 313 374 324 C392 338 404 360 406 386 L397 387 C395 363 384 343 368 331 C352 319 331 314 307 318 C272 324 253 345 233 368 C214 389 195 411 161 418 C135 424 111 419 93 405 C73 390 61 365 60 335 L69 335 C70 362 81 384 99 398 C115 410 136 414 159 409 C190 402 207 383 226 362 C246 339 267 316 305 309 C312 308 318 307 324 307 L324 307 Z M324 204 C343 204 360 209 374 220 C392 234 404 256 406 283 L397 284 C395 260 384 240 368 227 C352 215 331 210 307 215 C272 221 253 242 233 264 C214 285 195 307 161 314 C135 320 111 315 93 301 C73 286 61 261 60 232 L69 231 C70 258 81 280 99 294 C115 307 136 311 159 305 C190 299 207 279 226 258 C246 235 267 212 305 205 C312 204 318 204 324 204 L324 204 Z " />
<glyph glyph-name="notequal" unicode="&#x2260;" horiz-adv-x="413" d="M353 408 L353 418 L274 418 L313 457 L306 464 L260 418 L60 418 L60 408 L250 408 L149 306 L60 306 L60 297 L139 297 L99 257 L106 250 L153 297 L353 297 L353 306 L163 306 L264 408 L353 408 Z " />
<glyph glyph-name="lessequal" unicode="&#x2264;" horiz-adv-x="369" d="M329 458 L326 467 L60 362 L60 352 L326 247 L329 256 L75 357 L329 458 Z M60 189 L329 189 L329 199 L60 199 L60 189 Z " />
<glyph glyph-name="greaterequal" unicode="&#x2265;" horiz-adv-x="368" d="M42 247 L308 352 L308 362 L42 467 L40 458 L293 357 L40 256 L42 247 Z M40 199 L40 189 L308 189 L308 199 L40 199 Z " />
<glyph glyph-name="f_f" unicode="&#xfb00;" horiz-adv-x="580" d="M540 690 L540 700 L70 700 L70 0 L124 0 L124 345 L210 345 L210 355 L124 355 L124 690 L305 690 L305 0 L359 0 L359 345 L445 345 L445 355 L359 355 L359 690 L540 690 Z " />
<glyph glyph-name="fi" unicode="&#xfb01;" horiz-adv-x="409" d="M285 570 L285 0 L339 0 L339 570 L285 570 Z M124 690 L305 690 L305 700 L70 700 L70 0 L124 0 L124 345 L210 345 L210 355 L124 355 L124 690 Z " />
<glyph glyph-name="f_f_i" unicode="&#xfb03;" horiz-adv-x="644" d="M520 570 L520 0 L574 0 L574 570 L520 570 Z M359 690 L540 690 L540 700 L70 700 L70 0 L124 0 L124 345 L210 345 L210 355 L124 355 L124 690 L305 690 L305 0 L359 0 L359 345 L445 345 L445 355 L359 355 L359 690 Z " />
</font>
</svg>
